<svg xmlns="http://www.w3.org/2000/svg" width="1117.693" height="434.543" viewBox="0 0 1117.693 434.543">
  <g id="Group_880" data-name="Group 880" transform="translate(-1233.513 -482.745)">
    <path id="Path_1217" data-name="Path 1217" d="M1521.13,666.687c9.953-4.962,20.035-9.7,28.919-16.527C1540.067,655.094,1529.258,658.545,1521.13,666.687Z" transform="translate(122.521 71.317)" fill="#f98c90"/>
    <path id="Path_1218" data-name="Path 1218" d="M1698.468,578.99a2.06,2.06,0,0,1-2.866-.642,81.561,81.561,0,0,1-7.886-13.575,1.774,1.774,0,0,1,.856-2.41,2.012,2.012,0,0,1,2.6.356c3.636,4.221,5.946,9.226,8.228,13.846C1699.523,577.821,1699.252,578.548,1698.468,578.99Z" transform="translate(193.405 33.784)" fill="#f98c90"/>
    <path id="Path_1219" data-name="Path 1219" d="M1573.46,731.645v-2.823c-.043-6.289-.171-6.4-6.132-4.677-11.651,3.351-23.358,6.56-34.937,10.153-13.547,4.207-11.265.6-11.208,16.128.014,4.135.984,4.706,5.034,3.479,13.418-4.064,26.823-8.114,40.2-12.292C1574,739.26,1573.531,740.957,1573.46,731.645Zm-9.412,8.043c-11.365,3.422-22.73,6.773-34.052,10.281-6.5,2.011-6.032,2.638-6.06-4.235-.014-6.274-.014-6.232,6.245-8.043,12.036-3.479,24.071-7.016,36.092-10.51,4.364-1.283,4.449-1.212,4.535,3.451C1570.922,737.606,1570.936,737.606,1564.049,739.688Z" transform="translate(122.467 102.428)" fill="#f98c90"/>
    <path id="Path_1220" data-name="Path 1220" d="M1718.188,558c-15.187-6.56-29.019-2.838-41.967,5.961-4.635,3.151-5.69,9.454-3.251,14.559,4.62,9.654,12.435,13.718,23.258,13.048,6.988.5,13.9-1.369,20.605-3.864a18.692,18.692,0,0,0,10.153-8.257C1730.922,572.284,1726.4,561.532,1718.188,558Zm-23.015,28.363c-7.016.485-13.19-1.055-17.34-7.273-2.652-3.964-2.31-7.986,1.625-10.652,10.923-7.372,22.716-10.453,35.493-5.2,8.57,3.536,9.483,11.793,2.082,17.311C1710.531,585.389,1702.859,585.988,1695.173,586.358Zm29.432-8.043c-2.524,4.036-6.474,6.631-12.15,8.242,2.7-1.74,4.592-2.781,6.289-4.078,8.513-6.6,7.173-16.784-2.624-21.561-8.941-4.363-17.8-2.952-26.752-.328-1.141.342-2.281.713-3.436,1.07,10.167-4.535,20.534-6.3,31.143-1.383C1724.149,563.543,1728.185,572.6,1724.605,578.316Z" transform="translate(186.661 30.636)" fill="#f98c90"/>
    <path id="Path_1221" data-name="Path 1221" d="M1741.834,555.256c-2.952-.214-5.875-.884-8.812-1.326-28.42-4.249-56.84-8.57-85.288-12.72-14.945-2.182-29.86-4.677-44.947-5.932q-25.432-2.1-50.836-4.292-29.86-2.61-59.692-5.319c-2.353-.1-3.052.043-5.932,2.139-26.851,19.607-54.444,38.188-80.369,59.036-1.668,1.34-4.934,2.3-4.249,4.806.727,2.681,3.95,1.34,6.089,1.754a15.068,15.068,0,0,0,1.611.171c22.231,2.624,44.477,5.29,66.722,7.857,24.4,2.809,48.854,5.148,73.2,8.4,29.147,3.907,58.109,9.155,87.114,14.074,25.154,4.264,50.337,8.242,75.492,12.449,3.037.5,4.734-.342,5.918-3.265,4.52-11.137,9.312-22.16,13.832-33.311,5.177-12.777,9.668-25.8,13.732-38.972C1746.554,557.067,1745.713,555.541,1741.834,555.256ZM1430.1,573.979c17.854-12.891,35.992-25.4,53.674-38.5,6.2-4.606,12.677-3.109,19.037-2.609q33.689,2.7,67.307,6.26c24.142,2.538,48.3,5.105,72.34,8.556s48.113,6.631,72.155,10.025c6.545.927,13.019,2.282,19.564,3.266,3.38.514,2.824,2.4,2.068,4.663-5.091,15.372-10.01,30.816-16.755,45.6-2.239,4.905-4.15,9.982-6,15.044-1,2.709-2.581,3.266-5.3,2.809Q1651.5,619.511,1594.8,610.1c-32.213-5.39-64.626-9.2-97.052-13.005-27.992-3.294-56.041-6.075-84.062-9.069-.143-.314-.285-.628-.427-.927C1418.862,582.706,1424.324,578.129,1430.1,573.979Zm312.163-11.936a503.572,503.572,0,0,1-18.167,49.411c-2.6,6.089-5.148,12.206-7.558,18.367-1.169,3.009-2.567,4.306-6.246,3.679-25.4-4.364-50.85-8.442-76.276-12.62-30.473-5.019-60.875-10.452-91.534-14.4-27.165-3.508-54.416-6.132-81.609-9.412-17.412-2.1-34.851-3.936-52.263-5.9a20.324,20.324,0,0,1-2.567-.67c.628-1.169,1.269-1.626,1.925-1.426,10.153,3.08,20.762,2.923,31.158,4.221,18.994,2.381,38.074,4.193,57.1,6.374,18.623,2.139,37.261,4.278,55.856,6.731,15.1,2,30.174,4.335,45.218,6.773,30.359,4.934,60.69,10.039,91.035,15.073,7.058,1.183,14.131,2.239,21.147,3.622,2.738.542,4.378,0,5.462-2.609,8.955-21.575,18.01-43.122,24.641-65.581.955-3.223-.2-4.364-3.266-4.92-27.222-4.92-54.687-8.2-82.051-12.092-20.834-2.966-41.739-5.547-62.644-7.886-17.967-2.01-36.006-3.308-53.988-5.19-16.028-1.7-32.07-3.223-48.17-4.449,2.281-1,4.663-.642,7-.456,15.472,1.283,30.944,2.524,46.4,3.907,19.208,1.711,38.4,3.722,57.638,5.3,29.09,2.381,57.738,7.829,86.615,11.75,17.768,2.424,35.479,5.39,53.218,8.028C1743.659,558.151,1742.89,559.976,1742.262,562.044Z" transform="translate(71.609 18.274)" fill="#f98c90"/>
    <path id="Path_1222" data-name="Path 1222" d="M2016.6,579.631c0-1.141.015-1.683,0-2.21-.1-4.663-.813-5.148-4.934-3.237-3.536,1.64-7.059,3.308-10.552,5.034-6.417,3.166-7.244,4.934-5.961,11.978.5,2.724,1.839,3.365,4.249,2.1,4.164-2.2,8.256-4.506,12.52-6.488C2015.36,585.206,2017.57,583.139,2016.6,579.631Zm-3.921,3.522a94.322,94.322,0,0,1-13.191,7.016c-2.524,1.027-1.084-1.911-1.6-2.567-.5-2.709.528-4.164,2.652-5.134,3.066-1.4,6.032-3.037,9.127-4.392,1.183-.513,2.795-2.4,3.779-.485C2014.29,579.246,2014.732,581.9,2012.679,583.153Z" transform="translate(324.23 38.505)" fill="#f98c90"/>
    <path id="Path_1223" data-name="Path 1223" d="M1417.14,749.967A274.428,274.428,0,0,1,1405.518,718c-.756-2.581-1.968-4.221-4.763-4.763-17.753-3.465-35.478-7.03-53.218-10.51-3.479-.684-4.306.2-3.237,3.622,3.494,11.108,7.372,22.074,12.806,32.37,1.426,2.724,3.052,6.4,6.074,7.33a165.973,165.973,0,0,0,24.356,5.376c.086-.4.171-.8.257-1.212-6.66-1.569-13.3-3.18-19.964-4.706-1.7-.4-3.023-.713-2.909-3.009.5-10.281-.67-20.52-.8-30.787-.043-2.923.528-4.178,3.936-3.437,10.3,2.253,20.634,4.221,30.987,6.132,3.066.57,4.435,2.153,5.348,5.105,3.75,11.993,7.729,23.9,13.5,35.122.656,1.269.855,2.923,3.18,2.709C1420.634,754.331,1418.224,752.491,1417.14,749.967Zm-54.857-9.34c-1.055.485-1.782-.485-2.381-1.112a9.792,9.792,0,0,1-1.768-2.652,247.454,247.454,0,0,1-11.237-28.534c-1.183-3.722-.684-4.25,3.223-3.636,11.279,1.768,11.18,1.768,12.22,13.176.385,4.164.456,8.328.556,12.492,0,2.7.014,5.39-.014,8.085C1362.867,739.215,1363.167,740.228,1362.282,740.627Z" transform="translate(47.008 93.617)" fill="#f98c90"/>
    <path id="Path_1224" data-name="Path 1224" d="M1698.973,712.51c-1.112-8.727-3.978-16.912-10.338-23.229a17,17,0,0,0-19.437-3.651c-7.629,3.294-12.72,9.4-16.613,16.513a76,76,0,0,0-9.055,46.43c1.084,9.141,3.608,17.711,10.182,24.584,3.094,3.223,6.973,5.5,11.308,5.618,7.23.171,13.219-3.08,18.067-8.456,11.936-13.233,16.071-29.261,17.012-48.4C1700.37,719.968,1699.457,716.232,1698.973,712.51Zm-.756,15.643a73.123,73.123,0,0,1-8.641,30.459,40.683,40.683,0,0,1-12.962,14.7c-11.365,7.7-21.5,1.925-26.751-8.77-3.751-7.629-4.906-15.914-5.12-24.841.7-17.055,4.521-33.5,17.026-46.744,5.533-5.832,15.173-10.01,23.6-3.993a23.878,23.878,0,0,1,7.557,9.34A59.329,59.329,0,0,1,1698.217,728.153Z" transform="translate(174.419 85.757)" fill="#f98c90"/>
    <path id="Path_1225" data-name="Path 1225" d="M1523.948,724.525a27.065,27.065,0,0,0-18.909-12.663c-14.474-2.553-28.933-5.233-43.407-7.815a53.036,53.036,0,0,0-7.2-.827,2.427,2.427,0,0,0-2.467,1.768c-.271,1.155.713,1.825,1.569,2.039,3.85.927,3.18,3.608,2.624,6.3-.456,2.253-.97,4.492-1.369,6.745-.941,5.219.043,6.845,5.333,7.886,13.632,2.652,27.307,5.191,40.954,7.743,7.23,1.369,14.816,1.754,19.108,9.383,1.226,2.2,3.208,1.868,3.579-1.012.542-4.278.884-8.585,1.255-12.221C1524.874,728.931,1525.317,726.664,1523.948,724.525Zm-1.6,7a90.556,90.556,0,0,0-1.469,9.3c-2.082-2.153-2.082-2.153-2.952-9.212-1.369,1.226-.242,3.736-2.224,4.392-1.768.6-3.394-.556-5.062-.97-11.779-2.923-23.814-4.563-35.707-6.859-4.763-.927-9.526-1.839-14.288-2.695-2.938-.528-4.292-1.825-3.223-5.034a29.889,29.889,0,0,0,1.3-6.731c.357-4.064,2.381-5.119,6.232-4.421,13.789,2.5,27.635,4.649,41.4,7.273,5.062.955,10.338,1.839,13.975,6.388C1522.436,725.609,1523.249,728.175,1522.351,731.527Z" transform="translate(93.037 93.919)" fill="#f98c90"/>
    <path id="Path_1226" data-name="Path 1226" d="M1680.578,709.426c-3.508-7.3-10.738-8.47-15.942-2.267-7.8,9.24-9.226,19.95-5.191,31.143,2.738,7.615,10.638,8.756,16.171,2.809,5.119-5.5,7.3-12.178,7.672-19.536A24.041,24.041,0,0,0,1680.578,709.426Zm-19.108,28.919c-4.491-8.342-1.882-24.156,5.02-30.644,2.367-2.225,4.107-2.7,8.855-1.9-8.185,1.355-13.247,8.2-14.331,18.01-1.07,9.6,1.868,16.442,8.256,18.909C1665.235,743.507,1663.1,741.325,1661.47,738.345Zm13.761-.071c-4.135,3.936-7.928,3.208-10.666-1.911-1.611-2.995-1.626-6.189-1.611-9.44.086-6.388,1.554-12.278,6.445-16.784,3.608-3.337,7.6-2.567,9.982,1.754C1683.359,719.065,1681.234,732.555,1675.231,738.274Z" transform="translate(180.507 93.888)" fill="#f98c90"/>
    <path id="Path_1227" data-name="Path 1227" d="M2334.228,551.913c-3.465.5-6.959,1.055-10.452,1.226-6.973.356-13.775,2.7-20.876,1.5q-27.55-4.62-55.114-9.041c-7.472-1.184-7.629-1.041-7.743-8.513-.043-3.194-1.44-4.506-4.307-5.319-10.795-3.023-21.675-5.832-32.256-9.5-9.782-3.394-19.65-3.123-29.632-2.51-19.122,1.155-38.23,2.567-57.367,3.722-16.3,1-32.627,1.569-48.911,2.838a14.283,14.283,0,0,1-10.78-2.995c-13.019-10.039-27.707-16.6-43.635-20.591a534.572,534.572,0,0,0-58.066-10.738c-15.772-2.153-31.557-4.649-47.414-5.519-21.689-1.2-43.379-3.237-65.153-2.738-.813.014-1.612-.114-2.424-.157-16.071-1.027-32.2-1.355-48.184.471-25.183,2.88-50.166,7.23-75.135,11.722-42.58,7.672-84.2,19.165-125.972,30.074-10.3,2.7-20.933,5.091-30.031,10.781a1079.964,1079.964,0,0,0-93.26,65.995c-8.912,6.987-17.24,14.745-28.976,17.14-5.248,1.07-10.253,3.322-15.358,5.119-41.781,14.716-83.649,29.19-124.132,47.314-13.96,6.246-26.01,14.745-34.181,28.064-8.328,13.575-16.984,26.851-22.63,41.981-4.349,11.65-6.46,23.572-8.713,35.564-.142,6.731,1.312,13.5,6.545,17.269,20.777,14.887,43.536,24.227,69.845,21.875a25.181,25.181,0,0,1,7.643.57c9.483,2.1,19.051,3.85,28.505,6.075,5.362,1.269,11.109,1.369,16.042,3.993A232.09,232.09,0,0,0,1398.167,843c13.49,4.449,27.507,6.8,41.3,10.053a693.564,693.564,0,0,0,96.6,15.714c23.771,2.153,47.585,4.093,70.914,9.682,13.476,3.237,27.522,4.506,39.029,13.39a8.712,8.712,0,0,0,4.207,1.326,158.039,158.039,0,0,0,41.182.77c17.269-2.025,34.78-2.838,51.478-8.2,5.347-1.711,8.7-.67,11.736,3.95,2.367,3.579,5.533,6.631,8.285,9.968a11.7,11.7,0,0,0,4.121,3.18,166.2,166.2,0,0,0,35.65,11.964,99.446,99.446,0,0,0,24.113,2.453c10.766-.314,21.161-2.438,29.461-10.267a39.48,39.48,0,0,1,3.351-2.267c11.023-8.214,19.436-18.752,25.867-30.716,5.618-10.453,10.709-21.247,12.848-33.111.3-1.683,1.013-3.494,3.138-2.738,4.477,1.569,8.256-.628,12.092-2.011q83.056-30.074,166.056-60.3,47.614-17.326,95.185-34.694c2.1-.77,3.208-.385,4.877,1.141,3.979,3.636,8.3,7.03,13.632,8.442a141.562,141.562,0,0,0,42.538,4.378c1.9-.085,3.878-.071,5.518-1.069,12.35-7.586,22.274-17.283,28.292-30.816a159.683,159.683,0,0,0,10.338-33.582c.685-3.408,1.483-6.118,5.918-4.577a3.2,3.2,0,0,0,2.267-.585c13.433-8.185,27.978-14.673,39.443-25.853,3.208-3.137,6.4-6.317,8.428-10.324,8-15.857,16.356-31.457,14.573-50.423-.87-9.44-.057-19.137.57-28.734C2351.739,560.483,2345.935,550.2,2334.228,551.913Zm-58.651.086c7.258,1.312,14.559,2.424,22.987,3.822-14.531,1.982-27.878,3.779-41.225,5.633-29.033,4.021-57.567,10.624-86.215,16.67-6.459,1.369-13.005,2.324-19.493,3.565-2.766.528-4.05-.086-3.779-3.251.5-5.576-.613-6.945-6.089-7.943-7.272-1.312-14.559-2.524-21.946-4.349,4.435-1.226,8.9-2.4,13.3-3.707,25.925-7.729,52.548-12.221,79.071-17.1a19.347,19.347,0,0,1,4.449-.157A467.293,467.293,0,0,1,2275.577,552ZM1984.961,735.936c-.713-4.777.8-9.9,1.326-14.859,1-9.34-.442-18.595-1.112-27.864-1-14-1.911-28.021-4.406-41.867-.528-2.895,1.441-3.337,3.451-3.936q24.256-7.208,48.526-14.459,62.715-18.673,125.387-37.446c3.608-1.084,4.848-.071,6.388,3.009a172.4,172.4,0,0,1,16.128,51.221c1.811,11.893,2.367,24.3-1.968,36.405a279.091,279.091,0,0,1-20.448,44.02c-1.554,2.709-3.936,3.494-6.459,4.42q-43.764,16-87.542,31.985-44.533,16.3-89.053,32.612c-.756.271-1.54.456-3.066.9,3.836-12.249,7.658-23.786,9.982-35.721C1983.92,754.973,1986.458,745.8,1984.961,735.936Zm85.73-125.858q-45.089,13.989-90.136,28.021a25.9,25.9,0,0,1-2.724.8c-1.07.214-1.412-.613-1.569-1.426-.342-1.754,1.055-1.925,2.2-2.267q14.353-4.321,28.719-8.613,54.137-16.278,108.246-32.555c1.027-.314,2.082-.513,3.536-.884a7.686,7.686,0,0,1-4.264,4.649,21.5,21.5,0,0,0-3.764,2.381c-1.269,1.055-3.479,1.668-3.066,3.85.457,2.381,2.6,2.738,5.533,2.952-14.26,4.249-27.693,8.256-41.126,12.263q-44.234,13.219-88.5,26.381c-1.4.414-2.881,1.74-4.392-.128-2.324-2.909-1.911-4.478,1.754-5.618q44.833-14.074,89.68-28.135c1.469-.471,2.88-1.127,4.848-1.9C2073.372,608.753,2072.032,609.665,2070.691,610.079Zm41.782-26.637c-.057,2.838-.3,5.718,2.88,7.943-13.261,3.979-25.768,7.757-38.3,11.522-32.313,9.7-64.654,19.294-96.924,29.161-4.093,1.255-5.59.3-7.1-3.508q-13.989-35.186-28.491-70.173c-1.4-3.38-.827-4.563,2.7-5.633,31.8-9.625,64.169-17.069,96.211-25.782a7.01,7.01,0,0,1,6.4,1.212q29.454,20.791,59.036,41.425c2.724,1.9,4.15,3.964,3.736,7.358A61.1,61.1,0,0,0,2112.473,583.441Zm29.2,6.9c.014,2.31-1.013,3.123-3.294,2.709-6.217-1.127-12.463-2.182-18.695-3.18-3.194-.513-4.706-2.053-4.349-5.476.385-3.879.442-7.8.584-11.693.086-2.2.8-3.137,3.266-2.652,6.075,1.2,12.164,2.339,18.31,3.094,3.822.471,5.205,2.3,4.164,5.918C2141.663,582.814,2141.649,586.578,2141.677,590.343Zm-172.93,41.781c.841,2.1.642,3.223-1.7,3.822-2.609.67-5.148,1.583-7.729,2.353-8.2,2.467-11.436.884-15.529-6.93-3.936-7.486-6.146-15.529-8.342-23.586-4.036-14.83-7.943-29.7-11.907-44.548-.185-.656-.356-1.3-.385-1.454-.285-2.053.571-2.667,1.939-2.995,3.394-.827,6.816-1.611,10.167-2.624,2.125-.642,2.895.328,3.593,2.053Q1953.767,595.2,1968.748,632.124Zm-4.991,7.586c1.8-.542,3.593-1.112,5.4-1.626,2.467-.727,4.221-1.854,2.738-5.005,2.852,6.032,2.653,6.5-3.337,8.171-4.007,1.126-8.028,2.239-12.021,3.422-1.74.513-3.394.927-5.376-1.084C1955.572,642.235,1959.664,640.966,1963.757,639.711Zm-5.49,7.273c4.634-1.426,9.369-2.552,13.989-4.035,3.522-1.141,3.608,1.7,4.606,3.408.171,1.526-.956,1.683-1.8,1.925-5.048,1.44-10.153,2.752-15.187,4.235-2.709.813-3.864-.87-4.535-2.809C1954.473,647.154,1956.955,647.4,1958.267,646.983Zm172.8-45.3c-.9.271-1.626.271-1.84-.827a3.112,3.112,0,0,0-2.053-2.267c-.813-.385-2.7.143-2.111-1.611.485-1.469,1.455-2.966,3.522-2.652,3.194.5,6.389.941,9.569,1.483,6.075,1.055,7.8.1,9.6-5.861.442-1.483,1.126-1.625,2.324-1.169.627.228,1.255.471,1.882.742,2.424,1.055,4.848,2.11,8.185,3.565C2149.8,596.133,2140.436,598.9,2131.068,601.68Zm102.9-61.7c-.085,1.6.641,4.078-2.281,3.622-14.231-2.182-27.85,1.6-41.653,3.907-23.714,3.95-46.915,10.039-69.988,16.67-1.326.385-2.781,1.426-4.263-.77,7.786-2.6,15.443-5.019,23.015-7.672,23.372-8.171,47.457-13.461,71.827-17.511,6.759-1.127,13.676-1.283,20.521-1.925C2234.109,536.013,2234.052,538.009,2233.967,539.977Zm-166.384-11.836c22.4-.8,44.747-2.5,67.107-3.964,16.171-1.055,32.356-1.868,48.541-2.752a10.627,10.627,0,0,1,3.622.242q20.469,6.246,40.9,12.62c-15.9,1.041-31.244,4.563-46.659,7.686-18.052,3.636-35.436,9.583-52.875,15.315-4.107,1.34-8.2,2.738-12.292,4.135-1.412.485-2.709.984-4.192-.043q-23.272-16.214-46.587-32.341C2065.672,527.585,2066.784,528.17,2067.583,528.142Zm44.063,39.172c.6.428,1.54.642,1.583,2.31-6.446-4.492-12.592-8.741-18.709-13.034-14.6-10.224-29.2-20.434-43.735-30.758a12.385,12.385,0,0,0-11.051-2.068c-31.914,8.556-64.127,16.042-95.655,26.067-7.187,2.3-14.616,3.779-21.946,5.6-.955.242-2.4,1.127-2.652-.456-.214-1.241,1.4-1.383,2.4-1.64,10.452-2.709,20.934-5.29,31.343-8.1q43.571-11.786,87.071-23.771a10.388,10.388,0,0,1,9.754,1.754C2070.506,538.024,2091.112,552.626,2111.646,567.313Zm-627.292,26.851c1.44-1.2,3.009-2.168,3.465-4.278s2.481-2.852,4.249-3.351c5.262-1.483,10.224-3.223,12.364-8.984.2-.542,1-.87,1.554-1.269,6.9-4.977,13.561-10.338,21.119-14.3,7.8-4.093,13.775-10.567,21.048-15.415a131.945,131.945,0,0,1,38.516-17.525c54.273-15.044,108.917-28.448,164.573-37.4,26.3-4.235,52.633-7.5,79.4-6.588,26.181.884,52.405,1.383,78.5,3.579,23.229,1.968,46.416,4.891,69.431,8.969,12.634,2.239,25.183,4.806,37.632,7.9,10.053,2.5,19.08,7.4,29.561,11.864-13.961,3.865-26.837,7.586-39.785,10.98-28.748,7.515-57.239,15.957-86.158,22.773-4.25,1.013-4.064,3.722-3.166,6.816q4.92,16.919,9.953,33.81c2.567,8.542,5.148,17.083,8.014,25.525,1.126,3.322.5,4.748-2.952,5.789-23.144,7-46.2,14.26-69.332,21.276-18.609,5.647-37.29,11.08-55.927,16.6-.5.143-1.027.242-2.282.528,5.732-16.2,14.231-30.644,19.835-46.33s9.54-31.828,15.529-47.371c-.47-.185-.941-.371-1.426-.556-1.654,4.164-3.807,8.214-4.877,12.52-6.944,27.821-18.866,53.717-30.445,79.755-.856,1.925-1.725,2.581-3.95,2.139-32.028-6.388-64.4-10.823-96.525-16.712-32.641-5.989-65.339-11.764-98.307-15.729q-43.592-5.241-87.3-9.711-23.358-2.353-46.6-5.618c-3.551-.5-7.258.214-11.55-1.383A249.7,249.7,0,0,0,1484.354,594.165Zm-21.347,21.689c11.393,1.226,22.744,2.866,34.138,4.15,14.345,1.626,28.7,3.037,43.051,4.592q23.144,2.5,46.259,5.091c23.857,2.724,47.585,6.3,71.285,10.21,30.488,5.005,60.861,10.709,91.32,15.871,16.613,2.823,33.368,4.863,49.852,8.527,2.724.613,5.333-.043,7.957-.8,42.309-12.135,84.29-25.383,126.314-38.445.513-.157,1.027-.3,1.54-.442.086.171.185.342.271.528-12.05,3.95-24.256,7.458-36.12,11.935-31.143,11.75-63.927,17.982-95.427,28.491a14.24,14.24,0,0,1-7.572.414c-31.472-6.374-63.243-11.123-94.843-16.741-26.837-4.763-53.674-9.5-80.64-13.433-18.267-2.667-36.648-4.663-55-6.845q-30.523-3.615-61.1-6.973c-14.2-1.569-28.377-3.537-42.651-4.421a46.568,46.568,0,0,1-7.943-1.3C1456.747,615.07,1459.955,615.526,1463.007,615.854Zm-211.631,110.5c6-10.581,12.007-21.2,19.208-31,5.5-7.486,13.176-12.834,21.347-17.126,19.394-10.2,39.9-17.839,60.305-25.682,28.619-11.009,57.752-20.634,86.557-31.129,8.613-3.137,17.041-2.224,25.554-1.34,23.344,2.438,46.658,5.176,69.973,7.871,26,3.023,52.02,5.775,77.944,9.383,34.366,4.777,68.476,10.994,102.628,16.969,19.664,3.437,39.371,6.688,59.05,10.1,7.7,1.326,15.386,2.838,23.073,4.363a9.615,9.615,0,0,0,5.162-.171c23.686-8.057,48.227-13.1,72.069-20.534,19.721-6.146,39.186-13.119,58.78-19.707,5.789-1.939,6-1.954,8.014,3.95,2.6,7.615,7.316,13.747,12.592,19.579,2.239,2.481,4.663,3.237,7.957,2.125,4.207-1.44,8.6-2.353,12.848-3.693,2.652-.827,3.693-.014,4.064,2.652,1.839,12.977,2.852,26.024,4.007,39.058.641,7.4,1.2,14.816,1.483,22.231a63.293,63.293,0,0,1-.8,10.88c-.67,4.848-1.226,9.7-.585,14.531,1.383,10.267-2.652,19.679-4.349,29.447-1.754,10.139-5.69,19.693-8.442,29.575a4.691,4.691,0,0,1-2.937,3.565c-15.928,5.932-31.857,11.907-48.712,18.21,1.184-4.036,1.939-7.3,3.08-10.438,4.905-13.419,4.306-27.422,3.978-41.268-.157-6.816-4.292-13.076-5.832-19.736-2.353-10.239-10.624-15.244-17.283-21.76-1.155-1.141-2.781-.856-4.221-1.141-15.058-2.923-28.819.342-42.609,6.945-15.543,7.444-27.137,19.294-36.263,32.726-10.067,14.83-18.623,30.987-22.174,49.182-2.5,12.748-7.8,24.727-11.479,37.161a5.166,5.166,0,0,1-3.893,3.722c-15.543,4.107-30.972,8.741-46.658,12.078-10.253,2.167-20.9,2.381-31.358,3.622-7.543.913-15.115.556-22.645.955-13.2.7-24.584-4.15-35.664-10.3-3.195-1.768-4.834-4.62-5.348-8.513-1.9-14.46-2.182-29.062-3.893-43.55-.371-3.123-1.668-3.836-4.492-3.465-8.156,1.1-8.1,1.055-6.631-6.873,2.524-13.661,4.449-27.436,7.629-40.983a86.853,86.853,0,0,1,8.827-22.1,1.373,1.373,0,0,0,.128-1.668c-2.1.071-2.51,1.939-3.308,3.365-6.217,11.023-8.456,23.3-10.752,35.493-1.911,10.21-3.351,20.506-5.034,30.744a8.968,8.968,0,0,1-.642,1.74c-1.212-.029-1.5-.927-2.053-1.483a16.231,16.231,0,0,1-4.663-7.429c-2.624,1.512-5.333.442-8.014.271-2.267-.143-2.567-1.283-2.139-3.294a321.453,321.453,0,0,1,14.545-49.724c2.367-6.1,7.258-10.5,13.333-13.59,24-12.206,48.712-22.787,73.281-33.7,20.491-9.1,41.4-17.3,61.474-27.336,1.469-.741,4.064-.884,3.836-3.009-.257-2.453-3.037-1.9-4.677-2.167q-27.742-4.749-55.514-9.2c-35.308-5.633-70.586-11.422-105.951-16.684-21.875-3.266-43.863-5.69-65.809-8.485q-31.122-3.936-62.23-7.857c-5.219-.656-10.453-1.2-15.686-1.811a12.922,12.922,0,0,0-6.289,1.2c-45.575,18.11-91.377,35.664-136.381,55.172a25.766,25.766,0,0,0-13.9,14.075,242.146,242.146,0,0,0-13.447,42.851c-.385,1.854-.257,4.492-3.494,3.536-8.613-2.6-17.454-1.155-26.181-1.426-4.834-.143-9.682-.014-14.773-.014A42.093,42.093,0,0,1,1251.376,726.354Zm649.138,3.779c-40.783-5.176-66.18,16.513-85.459,48.127,3.651-11.493,13-19.436,21.133-28.206,9.911-10.681,22.6-16.613,36.391-20.791,8.584-2.6,17.041-1.583,25.6-.67C1899.06,728.678,1900.1,728.735,1900.514,730.133Zm-558.132,16.884c-7.629.285-14.944-1.782-22.388-2.838-8.014-1.141-15.985-2.553-24.014-3.665-2.7-.385-3.208-1.326-2.6-4.007a269,269,0,0,1,13.975-44.377,22.905,22.905,0,0,1,12.235-12.378c41.425-17.9,83.663-33.8,125.3-51.122,12.078-5.034,23.315-4.535,35.365-2.966,25.283,3.323,50.608,6.3,75.891,9.583,29.432,3.807,58.865,7.643,88.169,12.477,36.206,5.961,72.469,11.665,108.7,17.5,4.221.67,8.428,1.454,12.634,2.182.057.257.1.513.157.77-4.977,2.31-9.9,4.734-14.93,6.916-33.225,14.36-66.479,28.648-99.349,43.849-7.6,3.508-15.1,7.272-22.474,11.237a27.46,27.46,0,0,0-12.848,15.13,309.482,309.482,0,0,0-14.032,49.425c-.542,2.966-1.8,3.437-4.406,2.838-16.427-3.85-32.9-7.558-49.5-10.624a12.222,12.222,0,0,1-4.107-1.611,13.884,13.884,0,0,0-9.383-1.854c-9.155,1.383-18.324,1.041-27.465.328-21.718-1.668-42.765-7.372-64.126-11.194-26.039-4.663-52.006-9.711-77.987-14.645q-8.363-1.583-16.641-3.536c-2.281-.542-4.492-1.569-3.736-4.706C1345.349,747.615,1344.051,746.945,1342.383,747.016ZM1324.315,817c-5.362-1.127-10.681-2.852-16.313-1.6,4.663-2.795,9.54-1.825,14.217-.8,11.55,2.538,23.03,5.462,34.537,8.256a2.313,2.313,0,0,1,1.6,1.341Q1341.349,820.611,1324.315,817Zm182.612,45.66c-.414-.028-1.112-.014-1.155-.185-1.554-5.233-3.094-.585-4.805-.157a13.49,13.49,0,0,1-5.6.029c-32.085-6.16-64.155-12.349-95.7-20.919-11.494-3.123-21.989-8.927-32.983-13.419a7.427,7.427,0,0,1-3.323-2.253c-3.323-4.848-8.5-5.761-13.647-6.916-11.322-2.524-22.616-5.2-33.953-7.658a28.992,28.992,0,0,0-17.7,1.925c-4.934,2.282-7.957,1.027-11.793-.642-.485-.214-1.212-.613-1.512-.414-4.15,2.624-7.5-.356-10.937-1.668-10.6-4.036-21.119-8.214-30.388-15.058-4.906-3.622-6.83-8.456-7.529-14.089-1-8.142,2.025-15.714,3.551-23.5.314-1.583.8-3.137,1.183-4.706,2.31-9.682,2.353-9.3,12.363-10.025,26.866-1.968,52.975,3.28,79.2,7.643,2.125.357,4.249.827,6.388,1.055,3.123.328,3.579,1.6,2.025,4.264-4.107,7.144-4.977,14.93-3.922,22.93a78.694,78.694,0,0,1,2.823-17.14c.856-3.28,1.726-4.478,5.989-3.522,16.727,3.75,33.625,6.659,50.466,9.868q30.438,5.818,60.861,11.636c17.24,3.308,34.452,6.759,51.72,9.839a34.466,34.466,0,0,0,12.506.128c9.283-1.825,18.2-.456,27.222,1.54,19.636,4.349,39.314,8.527,58.979,12.748,8.684,1.868,13.59,9.469,13.133,18.238-.684,13.076-2.182,26.1-2.082,39.215.014,2.909,1.026,5.59,1.9,8.242.856,2.538-.827,1.526-1.839,1.683.77,2.053,3.308,2.381,4.035,4.192-20.377-5.732-41.525-7.985-62.23-12.435-4.549-.97-8.884-.143-13.261.471C1533.522,865.487,1520.232,863.633,1506.927,862.664Zm30.815,4.007c8.028-.014,16.028-2.239,23.9-.884,18.88,3.237,37.689,6.959,56.483,10.695,2.267.442,4.278,2.153,6.4,3.28A591.528,591.528,0,0,0,1537.743,866.671Zm121.423,25.611c-5.376-.984-10.966-.727-15.843-4.107-5.291-3.679-11.251-6.246-16.1-10.766-4.877-4.535-6.2-10.167-6.816-16.271a49.834,49.834,0,0,1-.028-5.262h-.129c.77-12.378,1.483-24.755,2.381-37.118.228-3.137,7.372-6.317,10.125-4.749,1.17.656.97,1.84,1.055,2.866.813,9.811,1.455,19.636,2.438,29.432.656,6.474.171,13.661,6.759,17.739a77.476,77.476,0,0,0,14.531,7.1c2.667.955,5.333,1.911,8.028,2.795,1.982.67,2.381,1.754,1.526,3.693-1.8,4.078-3.394,8.242-5.091,12.349C1661.476,891.241,1660.948,892.61,1659.166,892.282Zm64.94-4.406c-18.581,2.98-37.347,5.661-56.341,4.834-3.18-.143-4.15-.613-2.752-3.836,1.882-4.321,2.3-9.953,5.376-12.877,3.237-3.08,8.984-.7,13.6-.613,11.807.242,23.358-2.153,35.051-2.866,20.292-1.255,39.229-8.371,58.736-13.005,1.283-.3,2.5-1.027,4.563-.456-2.966,5.447-5.775,10.752-8.741,15.971-.756,1.326-2.381,1.74-3.836,2.082C1754.564,880.8,1739.506,885.408,1724.105,887.875Zm79.042,25.012a182.146,182.146,0,0,1-34.495-11.408,16.288,16.288,0,0,1-5.789-4.877c-2.923-3.536-5.832-7.1-8.884-10.51-1.882-2.1-1.026-2.823,1.183-3.337,3.936-.913,7.829-2.068,11.807-2.795,6.474-1.184,11.109-4.478,13.632-10.681a7.385,7.385,0,0,1,2.638-3.907c2.667,9.411,5.3,18.78,10.139,26.637,5.476,8.884,11.023,18.766,22.36,22.559C1811.547,914.028,1807.255,913.842,1803.148,912.887Zm35.721.884a20.664,20.664,0,0,0-5.2.742c-8.941,2.624-16.256-1.939-23.843-5.29-2.453-1.084-3.451-3.736-5.29-5.5-10.5-10.053-14.3-23.557-18.866-36.648a9.9,9.9,0,0,1,1.084-9.3c2.98-4.278,3.608-9.54,6.4-15.258.613,5.676,1.269,10.053,1.54,14.46.67,10.923,4.962,20.919,9.739,30.259,5.932,11.579,15.13,20.72,28.7,23.557,5.02,1.055,10.068-.727,15.558-1.212C1845.6,912.231,1842.562,913.7,1838.869,913.771Zm46.173-43.207c-6.745,12.805-15.2,24.014-27.222,32.541-5.661,4.007-11.678,5.319-18.167,5.7-10.039.613-17.882-3.579-24.9-10.667-9.255-9.354-13.276-21.276-16.784-33.24-2.31-7.914-2.31-16.513-3.337-24.812a16.614,16.614,0,0,1,1.169-6.759c3.08-9.64,5.775-19.436,9.254-28.933,6.816-18.523,16.513-35.222,30.2-49.8,10.624-11.308,23.6-17.511,38-21.732,3.579-1.055,6.1-.043,8.5,2.823,11.836,14.231,16.812,30.915,19.051,48.968,1.583,12.634.87,25.083-.656,37.489A139.99,139.99,0,0,1,1885.042,870.564Zm16.456-34.509c-2.51-.856-1.169-2.709-.8-4.05,2.267-8.3,2.153-16.855,2.809-25.3,1.569-19.864-2.709-38.83-9.44-57.367-1.611-4.406-4.649-7.886-7.4-11.551-1.611-2.139-3.308-4.178-4.963-6.274,8.513,1.184,17.226-.8,24.456,6.531,12.848,13.034,15.714,28.662,15.572,45.974-.114,13.262-3.736,25.525-7.943,37.789-1.6,4.649-4.292,8.713-6.645,12.948C1905.719,837.31,1903.609,836.782,1901.5,836.055Zm11.18-2.1c1.968-6.317,4.093-10.923,10.781-12.891,9.753-2.866,19.122-6.987,28.662-10.566.057.214.114.442.171.656C1939.287,818.644,1926.282,826.13,1912.678,833.959Zm26.01-8.841c-3.765,1.369-7.515,2.766-11.265,4.164-.1-.214-.2-.414-.285-.627,8.114-4.691,16.513-8.984,24.3-14.16,18.153-12.092,38.916-18,59.022-25.4q90.692-33.389,181.485-66.494a2.1,2.1,0,0,1,1.511-.029c-4.107,4.877-5.162,11.736-12.605,14.431Q2059.7,780.812,1938.688,825.118Zm273.3-72.954c-10.1-1.283-20.435-2.21-28.748-9.212-1.012-.856-2.624-1.4-2.567-2.88.071-1.7,1.882-1.725,3.094-2.039,3.878-1.055,6.445-3.437,8.5-6.859,3.494-5.875,7.315-11.536,11.465-17.982,3.936,14.93,6.474,29.8,19.878,39.557C2219.508,753.39,2215.657,752.635,2211.993,752.164Zm14.246-.242c-8.87-4.606-12.549-13.034-15.914-21.547-1.768-4.478-2.3-9.426-3.907-13.989-1.3-3.722-.927-6.731,1.511-9.754a59.167,59.167,0,0,0,3.65-5.618,113.355,113.355,0,0,0,5.761,25.739c2.952,8.7,6.987,16.855,15.657,21.732,2.924,1.64,5.775,1.868,9.1,1.8C2239.115,753.49,2230.288,754.032,2226.238,751.922Zm52.362-66.465c-3.123,19.479-8.513,38.316-21.575,53.76-4.121,4.891-8.9,9.668-16.67,9.155a17.875,17.875,0,0,1-13.889-7.829c-8.57-12.164-11.594-26.224-12.221-40.883a6.47,6.47,0,0,1,.271-2.795c3.85-8.271,7.8-16.5,12.035-24.655-.171,6.075-.8,12.035.072,18.067.827,5.661,1.754,11.165,4.663,16.185,2.281,3.921,5.1,7.344,9.982,7.044a11.836,11.836,0,0,0,10.966-8.2c-1.825,1.383-3.594,2.823-5.476,4.121-5.533,3.779-9.526,2.852-13.219-2.852-4.222-6.517-4.763-13.932-5.476-21.333-1.512-15.729,5.29-28.919,12.805-41.839,2.239-3.836,7.814-4.577,11.408-1.911,3.879,2.866,6.046,6.9,7.272,11.394,4.435,16.214,2.139,31.828-4.506,47-.485,1.1-.913,2.239-1.369,3.351,3.708-2.98,4.805-7.486,6.075-11.636,3.893-12.72,4.777-25.654,1.3-38.673a32.291,32.291,0,0,0-4.577-9.9c-2.908-4.264-7-6.189-12.8-4.506,1.939-3.95,4.934-6.289,7.1-9.255,4.221-5.761,9.682-10.068,15.7-13.789,2.21-1.369,3.408-1.44,4.748,1.041,5.062,9.3,7.1,19.408,8.3,29.775A142.324,142.324,0,0,1,2278.6,685.456Zm9.155-3.779c-1.055,2.267-2.995,1.112-4.648.955-2.082-.2-1.74-1.683-1.626-3.009.856-10.652,1.383-21.261.214-31.942-1.226-11.066-3.28-21.875-8.128-31.956-1.312-2.7-1.026-3.608,2.025-4.292,10.709-2.41,16.57,3.822,19.108,13.718,1.44,5.59,2.425,11.379,2,15.443a128.255,128.255,0,0,1-2.039,25.183C2293.587,671.311,2290.194,676.43,2287.755,681.678Zm17.14-8.984c-4.464,2-8.585,4.777-13.2,6.816,3.038-6.46,3.836-14.046,11.85-17.24,5.476-2.2,10.481-5.561,16.228-8.684C2317.073,662.156,2313.152,669,2304.9,672.694Zm15.358-10.41c1.8-10.224,9.625-15.258,17.625-21.675C2333.786,650.149,2327.711,656.594,2320.253,662.284Zm28.847-92.261c-2.053,11.066-1.811,22.26-1.112,33.439.142,2.267-.685,4.249-1.27,6.274-2.467,8.513-3.636,17.454-9.027,24.969-4.349,6.075-10.21,10.51-16.185,14.531-7.215,4.862-15.187,8.613-23.428,13.176.527-9.126,1.825-17.4,1.312-25.725a65.146,65.146,0,0,0-3.308-17.825,24.264,24.264,0,0,0-8.029-10.995c-4.064-3.237-9.155-1.825-13.6-.727-8.484,2.111-15.144,7.5-21.333,13.433-13.39,12.834-20.705,29.561-28.649,45.76-8.156,16.627-15.928,33.411-26.095,48.94-.97,1.483-1.84,2.966-3.651,3.622-11.023,3.993-22.046,8.014-34.067,12.406,1.07-2.082,1.6-3.308,2.311-4.435,9-14.132,14.445-29.846,20.135-45.461a26.383,26.383,0,0,0,1.127-6.759c1.611-17.568-2.224-34.324-6.988-51.036-2.908-10.2-7.814-19.536-11.75-29.29-.77-1.911-2.31-2.895-4.05-3.736a24.735,24.735,0,0,1-7-4.535c10.467-2.61,20.306-5.262,30.26-7.515,26.452-5.975,52.833-12.378,79.741-16.071,18.31-2.51,36.676-4.563,55.029-6.773,5.348-.656,10.709-1.383,16.085-1.711C2344.167,553.453,2350.7,561.438,2349.1,570.023Z" transform="translate(0)" fill="#f98c90"/>
    <path id="Path_1228" data-name="Path 1228" d="M1869.219,585.482c-12.05,3.95-24.256,7.458-36.12,11.935-31.144,11.75-63.927,17.982-95.427,28.491a14.24,14.24,0,0,1-7.572.414c-31.471-6.374-63.243-11.123-94.843-16.741-26.837-4.763-53.674-9.5-80.64-13.433-18.267-2.667-36.648-4.663-55-6.845q-30.523-3.615-61.1-6.973c-14.2-1.569-28.377-3.537-42.651-4.421a46.562,46.562,0,0,1-7.943-1.3c3.052-1.2,6.26-.742,9.312-.414,11.394,1.226,22.745,2.866,34.138,4.15,14.345,1.626,28.705,3.037,43.05,4.592q23.144,2.5,46.259,5.091c23.857,2.724,47.585,6.3,71.285,10.21,30.488,5.005,60.861,10.709,91.32,15.871,16.613,2.823,33.368,4.862,49.852,8.527,2.724.613,5.333-.043,7.957-.8,42.309-12.135,84.29-25.383,126.314-38.445.513-.157,1.027-.3,1.54-.442C1869.034,585.126,1869.134,585.3,1869.219,585.482Z" transform="translate(65.775 39.655)" fill="#f98c90"/>
    <path id="Path_1229" data-name="Path 1229" d="M1908.315,558.208c-6.446-4.492-12.592-8.741-18.709-13.034-14.6-10.224-29.2-20.434-43.735-30.758a12.386,12.386,0,0,0-11.051-2.068c-31.914,8.556-64.127,16.042-95.655,26.067-7.187,2.3-14.616,3.779-21.946,5.6-.956.242-2.4,1.127-2.652-.456-.214-1.241,1.4-1.383,2.4-1.64,10.452-2.709,20.933-5.291,31.343-8.1q43.571-11.786,87.071-23.771a10.388,10.388,0,0,1,9.754,1.754c20.463,14.8,41.069,29.4,61.6,44.092C1907.331,556.325,1908.272,556.539,1908.315,558.208Z" transform="translate(204.914 11.416)" fill="#f98c90"/>
    <path id="Path_1230" data-name="Path 1230" d="M1878.249,553.019c0,3.75-.014,7.515.014,11.28.014,2.31-1.012,3.123-3.294,2.709-6.217-1.127-12.463-2.182-18.695-3.18-3.194-.513-4.706-2.053-4.349-5.476.385-3.879.442-7.8.584-11.693.086-2.2.8-3.137,3.266-2.652,6.075,1.2,12.164,2.339,18.31,3.094C1877.907,547.572,1879.29,549.4,1878.249,553.019Z" transform="translate(263.414 26.044)" fill="#f98c90"/>
    <path id="Path_1231" data-name="Path 1231" d="M1893.842,561.475c-10.339,3.052-19.707,5.818-29.076,8.6-.9.271-1.625.271-1.839-.827a3.112,3.112,0,0,0-2.053-2.267c-.813-.385-2.7.143-2.111-1.611.485-1.469,1.455-2.966,3.522-2.652,3.194.5,6.389.941,9.569,1.483,6.074,1.055,7.8.1,9.6-5.861.442-1.483,1.126-1.625,2.324-1.169.627.228,1.255.471,1.882.742C1888.081,558.965,1890.506,560.021,1893.842,561.475Z" transform="translate(266.301 31.606)" fill="#f98c90"/>
    <path id="Path_1232" data-name="Path 1232" d="M1897.094,560.17a7.686,7.686,0,0,1-4.264,4.649,21.512,21.512,0,0,0-3.764,2.381c-1.269,1.055-3.479,1.668-3.066,3.85.456,2.381,2.6,2.738,5.533,2.952-14.26,4.249-27.693,8.256-41.126,12.263q-44.234,13.219-88.5,26.381c-1.4.414-2.881,1.74-4.392-.128-2.324-2.909-1.911-4.478,1.754-5.618q44.833-14.074,89.68-28.135c1.469-.471,2.88-1.127,4.848-1.9-2.3-1.1-3.636-.185-4.977.228q-45.09,13.989-90.136,28.021a25.909,25.909,0,0,1-2.724.8c-1.07.214-1.412-.613-1.569-1.426-.342-1.754,1.055-1.925,2.2-2.267q14.353-4.321,28.719-8.613,54.137-16.278,108.246-32.555C1894.584,560.74,1895.64,560.541,1897.094,560.17Z" transform="translate(221.867 32.982)" fill="#f7ea84"/>
    <path id="Path_1233" data-name="Path 1233" d="M1754.177,596.341c-4.007,1.126-8.028,2.239-12.021,3.422-1.74.513-3.394.927-5.376-1.084,4.407-1.355,8.5-2.624,12.592-3.879,1.8-.542,3.593-1.112,5.4-1.626,2.467-.727,4.221-1.854,2.738-5.005C1760.366,594.2,1760.167,594.672,1754.177,596.341Z" transform="translate(214.385 44.91)" fill="#f7ea84"/>
    <path id="Path_1234" data-name="Path 1234" d="M1759.485,600.5c-5.048,1.44-10.153,2.752-15.187,4.235-2.709.813-3.864-.87-4.535-2.809-.87-2.553,1.611-2.31,2.923-2.724,4.634-1.426,9.369-2.552,13.989-4.036,3.522-1.141,3.608,1.7,4.606,3.408C1761.454,600.1,1760.327,600.259,1759.485,600.5Z" transform="translate(215.579 47.779)" fill="#f7ea84"/>
    <path id="Path_1235" data-name="Path 1235" d="M1761.048,614.073c-2.609.67-5.147,1.583-7.729,2.353-8.2,2.467-11.436.884-15.529-6.93-3.936-7.486-6.146-15.529-8.342-23.586-4.036-14.83-7.943-29.7-11.907-44.548-.185-.656-.356-1.3-.385-1.455-.285-2.053.571-2.667,1.939-2.994,3.394-.827,6.816-1.612,10.167-2.624,2.124-.642,2.895.328,3.594,2.053q14.908,36.983,29.889,73.909C1763.587,612.348,1763.387,613.474,1761.048,614.073Z" transform="translate(206.002 21.873)" fill="#f6f6f8"/>
    <path id="Path_1236" data-name="Path 1236" d="M1903.16,578.262c-13.262,3.979-25.768,7.757-38.3,11.522-32.313,9.7-64.654,19.294-96.924,29.161-4.093,1.255-5.59.3-7.1-3.508q-13.989-35.186-28.491-70.173c-1.4-3.38-.827-4.563,2.7-5.633,31.8-9.625,64.169-17.069,96.211-25.782a7.01,7.01,0,0,1,6.4,1.212q29.453,20.791,59.036,41.425c2.724,1.9,4.15,3.964,3.736,7.358a61.067,61.067,0,0,0-.143,6.474C1900.222,573.157,1899.98,576.038,1903.16,578.262Z" transform="translate(212.194 13.122)" fill="#f6f6f8"/>
    <path id="Path_1237" data-name="Path 1237" d="M1986.247,650.967c-4.107,4.877-5.162,11.736-12.605,14.431Q1852.49,709.2,1731.481,753.51c-3.765,1.369-7.515,2.766-11.265,4.164-.1-.214-.2-.414-.285-.627,8.114-4.692,16.513-8.984,24.3-14.16,18.153-12.092,38.915-18,59.022-25.4Q1893.943,684.1,1984.736,651A2.1,2.1,0,0,1,1986.247,650.967Z" transform="translate(207.207 71.608)" fill="#f98c90"/>
    <path id="Path_1238" data-name="Path 1238" d="M1749.4,713.246c-13.005,7.486-26.01,14.973-39.614,22.8,1.968-6.317,4.093-10.923,10.78-12.891,9.754-2.866,19.123-6.987,28.662-10.567C1749.29,712.8,1749.347,713.032,1749.4,713.246Z" transform="translate(202.888 97.911)" fill="#f98c90"/>
    <path id="Path_1239" data-name="Path 1239" d="M1726.789,656.984c-40.783-5.176-66.18,16.513-85.459,48.127,3.651-11.493,13-19.436,21.133-28.206,9.911-10.681,22.6-16.613,36.391-20.791,8.584-2.6,17.041-1.583,25.6-.67C1725.335,655.529,1726.376,655.586,1726.789,656.984Z" transform="translate(173.724 73.149)" fill="#f7ea84"/>
    <path id="Path_1240" data-name="Path 1240" d="M1728.1,709.7c-.114,13.262-3.736,25.525-7.943,37.789-1.6,4.649-4.292,8.713-6.645,12.948-1.426,2.553-3.536,2.025-5.647,1.3-2.509-.856-1.169-2.709-.8-4.05,2.267-8.3,2.153-16.855,2.809-25.3,1.569-19.864-2.709-38.83-9.44-57.367-1.611-4.406-4.649-7.886-7.4-11.551-1.611-2.139-3.308-4.178-4.963-6.274,8.513,1.184,17.226-.8,24.456,6.531C1725.374,676.765,1728.24,692.393,1728.1,709.7Z" transform="translate(193.635 74.316)" fill="#f7ea84"/>
    <path id="Path_1241" data-name="Path 1241" d="M1733.2,710.064c-2.239-18.053-7.215-34.737-19.051-48.968-2.4-2.866-4.919-3.879-8.5-2.823-14.4,4.221-27.379,10.424-38,21.732-13.689,14.574-23.386,31.272-30.2,49.8-3.479,9.5-6.175,19.294-9.255,28.933a16.615,16.615,0,0,0-1.169,6.759c1.027,8.3,1.027,16.9,3.337,24.812,3.508,11.964,7.529,23.885,16.784,33.24,7.016,7.087,14.859,11.28,24.9,10.666,6.488-.385,12.506-1.7,18.167-5.7,12.021-8.528,20.478-19.736,27.222-32.541a139.987,139.987,0,0,0,15.115-48.412C1734.073,735.147,1734.786,722.7,1733.2,710.064Zm-26.3,23.016c-.941,19.137-5.077,35.165-17.012,48.4-4.848,5.376-10.837,8.627-18.067,8.456-4.335-.114-8.214-2.4-11.308-5.618-6.574-6.873-9.1-15.443-10.182-24.584a76,76,0,0,1,9.055-46.43c3.893-7.116,8.984-13.219,16.613-16.513a17,17,0,0,1,19.437,3.65c6.36,6.317,9.226,14.5,10.338,23.229C1706.266,727.389,1707.179,731.125,1706.908,733.079Z" transform="translate(167.61 74.599)" fill="#f7ea84"/>
    <path id="Path_1242" data-name="Path 1242" d="M1692.394,697.718a23.878,23.878,0,0,0-7.558-9.34c-8.427-6.018-18.067-1.839-23.6,3.993-12.506,13.247-16.328,29.689-17.026,46.744.214,8.927,1.369,17.212,5.12,24.841,5.248,10.695,15.386,16.47,26.752,8.77a40.684,40.684,0,0,0,12.962-14.7,73.124,73.124,0,0,0,8.642-30.459A59.328,59.328,0,0,0,1692.394,697.718Zm-3.551,31.4c-.371,7.358-2.552,14.032-7.672,19.536-5.533,5.946-13.433,4.806-16.171-2.809-4.036-11.194-2.609-21.9,5.191-31.144,5.2-6.2,12.435-5.034,15.942,2.267A24.043,24.043,0,0,1,1688.844,729.118Z" transform="translate(174.951 86.345)" fill="#f7ea84"/>
    <path id="Path_1243" data-name="Path 1243" d="M1668.676,742.037c-4.036.784-6.174-1.4-7.8-4.378-4.492-8.342-1.882-24.156,5.02-30.644,2.367-2.225,4.107-2.7,8.855-1.9-8.185,1.355-13.247,8.2-14.331,18.01C1659.35,732.726,1662.288,739.57,1668.676,742.037Z" transform="translate(181.101 94.574)" fill="#ffcbcd"/>
    <path id="Path_1244" data-name="Path 1244" d="M1673.528,736.8c-4.135,3.936-7.928,3.208-10.666-1.911-1.611-2.995-1.626-6.189-1.611-9.44.086-6.388,1.554-12.278,6.445-16.784,3.608-3.337,7.6-2.567,9.982,1.754C1681.657,717.6,1679.532,731.086,1673.528,736.8Z" transform="translate(182.21 95.358)" fill="#ffcbcd"/>
    <path id="Path_1245" data-name="Path 1245" d="M1683.951,802.1c-3.095,2.652-6.132,4.121-9.825,4.192a20.657,20.657,0,0,0-5.2.742c-8.941,2.624-16.256-1.939-23.843-5.29-2.453-1.084-3.451-3.736-5.291-5.5-10.5-10.053-14.3-23.557-18.866-36.648a9.9,9.9,0,0,1,1.084-9.3c2.98-4.278,3.608-9.54,6.4-15.258.613,5.675,1.269,10.053,1.54,14.459.67,10.923,4.962,20.919,9.74,30.26,5.932,11.579,15.13,20.72,28.705,23.557C1673.413,804.372,1678.461,802.589,1683.951,802.1Z" transform="translate(164.742 107.475)" fill="#f7ea84"/>
    <path id="Path_1246" data-name="Path 1246" d="M1660.569,800.267c-4.193-.542-8.485-.727-12.592-1.683a182.155,182.155,0,0,1-34.495-11.408,16.288,16.288,0,0,1-5.789-4.877c-2.923-3.536-5.832-7.1-8.884-10.51-1.882-2.1-1.027-2.823,1.183-3.337,3.936-.913,7.829-2.068,11.807-2.8,6.474-1.184,11.108-4.478,13.632-10.681a7.383,7.383,0,0,1,2.638-3.907c2.667,9.411,5.3,18.78,10.139,26.637C1643.685,786.591,1649.232,796.473,1660.569,800.267Z" transform="translate(155.17 114.303)" fill="#f7ea84"/>
    <path id="Path_1247" data-name="Path 1247" d="M2013.235,593.45c-4.093,9.54-10.167,15.985-17.625,21.675C1997.407,604.9,2005.235,599.867,2013.235,593.45Z" transform="translate(324.643 47.159)" fill="#f98c90"/>
    <path id="Path_1248" data-name="Path 1248" d="M2003.658,602.55c-2.7,8.57-6.617,15.415-14.873,19.108-4.463,2-8.584,4.777-13.2,6.816,3.037-6.46,3.836-14.046,11.85-17.24C1992.906,609.038,1997.911,605.673,2003.658,602.55Z" transform="translate(316.111 51.036)" fill="#f98c90"/>
    <path id="Path_1249" data-name="Path 1249" d="M1986.221,602.306a128.331,128.331,0,0,1-2.039,25.183c-1.07,5.533-4.463,10.652-6.9,15.9-1.055,2.267-2.995,1.112-4.649.955-2.082-.2-1.74-1.683-1.625-3.009.855-10.652,1.383-21.261.214-31.942-1.226-11.065-3.28-21.875-8.128-31.956-1.312-2.7-1.027-3.608,2.025-4.292,10.709-2.41,16.57,3.822,19.108,13.718C1985.665,592.453,1986.649,598.242,1986.221,602.306Z" transform="translate(310.475 38.289)" fill="#f7ea84"/>
    <path id="Path_1250" data-name="Path 1250" d="M1986.545,606.928c-1.2-10.367-3.237-20.477-8.3-29.775-1.34-2.481-2.538-2.41-4.749-1.041-6.017,3.722-11.479,8.028-15.7,13.789-2.168,2.966-5.162,5.3-7.1,9.255,5.8-1.683,9.9.242,12.805,4.506a32.3,32.3,0,0,1,4.578,9.9c3.479,13.019,2.6,25.953-1.3,38.673-1.269,4.15-2.367,8.656-6.075,11.636.456-1.112.884-2.253,1.369-3.351,6.645-15.172,8.941-30.787,4.506-47-1.226-4.492-3.394-8.527-7.272-11.394-3.593-2.667-9.169-1.925-11.408,1.911-7.515,12.919-14.317,26.11-12.805,41.839.713,7.4,1.255,14.816,5.476,21.333,3.693,5.7,7.686,6.631,13.219,2.852,1.883-1.3,3.651-2.738,5.476-4.121a11.836,11.836,0,0,1-10.966,8.2c-4.877.3-7.7-3.123-9.982-7.044-2.909-5.02-3.836-10.524-4.663-16.185-.87-6.032-.242-11.993-.071-18.067-4.235,8.157-8.185,16.385-12.036,24.655a6.462,6.462,0,0,0-.271,2.795c.627,14.659,3.65,28.719,12.221,40.883A17.876,17.876,0,0,0,1947.387,709c7.771.513,12.549-4.264,16.67-9.155,13.062-15.443,18.452-34.281,21.575-53.76A142.334,142.334,0,0,0,1986.545,606.928Zm-37.789,42c-1.312-3.037-1.255-6.3-1.455-8.7.143-6.388,1-11.807,4.321-16.513,3.607-5.119,8-4.677,10.666.941,4.378,9.24,2.881,17.839-3.009,25.782C1955.758,655.184,1951.123,654.4,1948.756,648.924Z" transform="translate(292.968 39.37)" fill="#f7ea84"/>
    <path id="Path_1251" data-name="Path 1251" d="M1951.678,685.078c-2.98,3.209-11.807,3.75-15.857,1.64-8.87-4.606-12.549-13.034-15.914-21.547-1.768-4.478-2.3-9.426-3.907-13.989-1.3-3.722-.927-6.731,1.511-9.754a59.22,59.22,0,0,0,3.651-5.618,113.3,113.3,0,0,0,5.761,25.739c2.952,8.7,6.987,16.855,15.657,21.732C1945.5,684.921,1948.355,685.149,1951.678,685.078Z" transform="translate(290.417 65.204)" fill="#f7ea84"/>
    <path id="Path_1252" data-name="Path 1252" d="M1940.667,683.907c-4.107.642-7.957-.114-11.622-.585-10.1-1.283-20.434-2.21-28.748-9.212-1.012-.856-2.624-1.4-2.567-2.88.071-1.7,1.882-1.725,3.095-2.039,3.878-1.055,6.445-3.437,8.5-6.859,3.494-5.875,7.315-11.536,11.465-17.982C1924.724,659.28,1927.263,674.153,1940.667,683.907Z" transform="translate(282.947 68.842)" fill="#f7ea84"/>
    <path id="Path_1253" data-name="Path 1253" d="M1336.1,725.376q-17.005-3.593-34.038-7.2c-5.362-1.127-10.681-2.852-16.313-1.6,4.663-2.795,9.54-1.825,14.217-.8,11.55,2.538,23.03,5.462,34.537,8.256A2.313,2.313,0,0,1,1336.1,725.376Z" transform="translate(22.252 98.829)" fill="#ff7bac"/>
    <path id="Path_1254" data-name="Path 1254" d="M1533.646,765.465a591.524,591.524,0,0,0-86.786-13.091c8.028-.014,16.028-2.239,23.9-.884,18.88,3.237,37.689,6.959,56.483,10.695C1529.51,762.628,1531.521,764.339,1533.646,765.465Z" transform="translate(90.883 114.296)" fill="#ffcbcd"/>
    <path id="Path_1255" data-name="Path 1255" d="M1926.583,610.755a68.262,68.262,0,0,0-7.8,3.094,3.215,3.215,0,0,0-1.4,3.85c.271,1.027,1.3,1.241,2.638,1.155a26.9,26.9,0,0,0,7.458-2.995,3.6,3.6,0,0,0,1.326-3.95A1.608,1.608,0,0,0,1926.583,610.755Z" transform="translate(291.255 54.481)" fill="#f98c90"/>
    <path id="Path_1256" data-name="Path 1256" d="M1954.507,611.219c-2.666-5.618-7.059-6.06-10.666-.941-3.323,4.706-4.178,10.125-4.321,16.513.2,2.4.143,5.661,1.455,8.7,2.367,5.476,7,6.26,10.524,1.512C1957.388,629.058,1958.885,620.459,1954.507,611.219Zm-6.431,24.9c-2.182-.2-2.5-2.125-3.137-3.736-.856-2.2-.6-4.492-.67-6.759a20.031,20.031,0,0,1,3.437-12.591c2.253-3.223,4.706-2.852,6.16.827,2.681,6.731,1.312,13.19-1.74,19.408C1951.37,634.79,1950.144,636.3,1948.076,636.116Z" transform="translate(300.75 52.805)" fill="#f98c90"/>
    <path id="Path_1257" data-name="Path 1257" d="M1950.713,632.03c-.756,1.526-1.982,3.037-4.05,2.852-2.182-.2-2.5-2.125-3.137-3.736-.855-2.2-.6-4.492-.67-6.759a20.031,20.031,0,0,1,3.437-12.591c2.253-3.223,4.706-2.852,6.16.827C1955.133,619.353,1953.764,625.813,1950.713,632.03Z" transform="translate(302.163 54.039)" fill="#ffcbcd"/>
    <path id="Path_1258" data-name="Path 1258" d="M1431.087,737.052c.014-8.2-.2-8.456-7.743-9.982-6.987-1.412-13.974-2.881-20.976-4.221-3.707-.727-4.948.556-3.793,4.021a125.487,125.487,0,0,0,6.987,16.755,5.729,5.729,0,0,0,3.85,3.308c4.991,1.1,9.982,2.21,14.987,3.237,2.695.556,4.378-.585,5.119-3.266C1430.46,743.526,1431.4,740.16,1431.087,737.052Zm-13.319,9.084c-7.1-.97-11.18-4.278-13.19-10.866-.8-2.581-1.939-5.048-2.937-7.558-.742-1.882-.129-2.524,1.839-2.11,7.386,1.554,14.8,3.009,22.174,4.649,3.95.884,2.253,4.292,2.7,6.4C1428.278,747.5,1427.765,747.49,1417.768,746.135Z" transform="translate(70.136 102.198)" fill="#f98c90"/>
    <path id="Path_1259" data-name="Path 1259" d="M1340.439,651.213c11.579-9.782,25.368-14.745,39.229-19.622,9.5-3.337,18.552-8.214,28.947-8.684,4.578-.214,9.126-.913,13.69-1.383,16.256-1.668,32.142-6.574,48.826-4.991,6.074.57,12.377-.656,18.523-1.483,2.481-.328,5.276.214,7.415-2.039-46.516-.085-92.589,2.581-136.353,21.461,1.1,1.583,2.068.057,3.052.87-6.4,2.738-12.691,5.462-19.009,8.114a12.374,12.374,0,0,0-4.378,2.781,242.142,242.142,0,0,0-19.222,22.445,47.235,47.235,0,0,0-6.759,14.146,43.481,43.481,0,0,0,5.291-7.6C1325.052,665.872,1332.182,658.186,1340.439,651.213Z" transform="translate(34.457 55.491)" fill="#f98c90"/>
    <path id="Path_1260" data-name="Path 1260" d="M1323.994,676.084q-18.01-3.786-36.063-7.372c-12.463-2.453-25.026-.5-37.546-.642a4,4,0,0,0-2.21.813c-.7.513-2,.656-1.854,1.882.128,1.112,1.155,1.512,2.082,1.583,2.681.185,2.61,1.6,1.9,3.593-1.654,4.634-1.654,10.324-7.629,12.477,5.2-1.369,9.8,1.526,14.673,1.255,11.308-.642,22.63-.471,33.81,2.239,10.353,2.51,20.862,4.364,31.272,6.645,3.152.684,5.062-.371,5.761-3.365a89.36,89.36,0,0,0,1.982-10.738C1330.782,678.694,1329.684,677.282,1323.994,676.084Zm3.679,8.67c-.8,2.995-1.355,6.06-1.954,9.1-.314,1.583-1.027,2.481-1.982,2.225-7.686-1.583-14.616-2.766-21.418-4.449-15.158-3.765-30.459-5.9-46.131-5.034-4.734.271-4.863-.014-3.636-4.335,3.465-12.064.8-9.354,12.92-10.068,20.477-1.226,39.871,4.477,59.549,8.527C1327.174,681.161,1328.343,682.245,1327.673,684.754Z" transform="translate(3.901 78.689)" fill="#f98c90"/>
    <path id="Path_1261" data-name="Path 1261" d="M1356.41,730.643l-6.759-15.615c-.67-1.526-1.54-3.08-3.223-3.451-8.285-1.854-16.613-3.565-24.057-5.148-3.679.014-4.777,1.569-3.265,3.864,7.814,11.836,15.757,23.572,32.028,24.285a11.811,11.811,0,0,1,1.982.356c1.212.285,2.467.613,3.408-.5C1357.551,733.2,1356.966,731.9,1356.41,730.643Zm-34.423-21.532c7.986,1.668,15.443,3.18,22.9,4.791a3.4,3.4,0,0,1,2.239,2.21c2.21,5.191,4.421,10.381,6.788,15.914C1335.862,731.385,1329.16,720.576,1321.987,709.111Z" transform="translate(36.181 95.287)" fill="#f98c90"/>
    <path id="Path_1262" data-name="Path 1262" d="M1322.9,727.153c-4.207-12.021-12.149-22.274-16.1-34.423C1307.656,706.348,1315.955,716.43,1322.9,727.153Z" transform="translate(31.219 89.451)" fill="#f98c90"/>
    <path id="Path_1263" data-name="Path 1263" d="M1617.713,793.755c1.012-.157,2.695.856,1.839-1.683-.87-2.652-1.882-5.333-1.9-8.242-.1-13.119,1.4-26.138,2.082-39.215.456-8.77-4.449-16.37-13.133-18.238-19.664-4.221-39.343-8.4-58.979-12.748-9.026-2-17.939-3.365-27.222-1.54a34.466,34.466,0,0,1-12.506-.128c-17.269-3.08-34.481-6.531-51.721-9.839q-30.416-5.818-60.861-11.636c-16.841-3.208-33.739-6.117-50.466-9.868-4.264-.955-5.134.242-5.989,3.522a78.695,78.695,0,0,0-2.823,17.14c-1.055-8-.185-15.786,3.922-22.93,1.554-2.667,1.1-3.936-2.025-4.264-2.139-.228-4.264-.7-6.389-1.055-26.224-4.363-52.334-9.611-79.2-7.643-10.01.727-10.053.342-12.363,10.025-.385,1.569-.87,3.123-1.183,4.706-1.526,7.786-4.549,15.358-3.551,23.5.7,5.633,2.624,10.467,7.529,14.089,9.269,6.845,19.793,11.023,30.388,15.058,3.437,1.312,6.788,4.292,10.937,1.668.3-.2,1.027.2,1.512.414,3.836,1.668,6.859,2.923,11.793.642a28.991,28.991,0,0,1,17.7-1.925c11.337,2.453,22.63,5.133,33.953,7.658,5.148,1.155,10.324,2.068,13.647,6.916a7.426,7.426,0,0,0,3.323,2.253c10.994,4.492,21.49,10.3,32.983,13.419,31.543,8.57,63.613,14.759,95.7,20.919a13.49,13.49,0,0,0,5.6-.029c1.711-.428,3.251-5.076,4.806.157.043.171.742.157,1.155.185,13.3.97,26.595,2.823,39.985.941,4.378-.613,8.713-1.44,13.262-.471,20.705,4.449,41.853,6.7,62.23,12.435C1621.021,796.136,1618.483,795.808,1617.713,793.755Zm-284.3-108.233a89.39,89.39,0,0,1-1.982,10.738c-.7,2.995-2.609,4.05-5.761,3.365-10.41-2.282-20.919-4.135-31.272-6.645-11.18-2.709-22.5-2.88-33.81-2.239-4.877.271-9.469-2.624-14.673-1.255,5.975-2.153,5.975-7.843,7.629-12.477.713-2,.784-3.408-1.9-3.593-.927-.071-1.954-.471-2.082-1.583-.142-1.226,1.155-1.369,1.854-1.882a4,4,0,0,1,2.21-.813c12.52.143,25.083-1.811,37.546.642q18.053,3.551,36.063,7.372C1332.929,678.349,1334.027,679.761,1333.414,685.522Zm3.95,19.037c3.95,12.149,11.893,22.4,16.1,34.423C1346.519,728.259,1338.22,718.177,1337.364,704.559Zm54.687,47.542c-.941,1.112-2.2.784-3.408.5a11.8,11.8,0,0,0-1.982-.357c-16.271-.713-24.213-12.449-32.028-24.284-1.512-2.3-.414-3.85,3.265-3.865,7.444,1.583,15.771,3.294,24.056,5.148,1.683.371,2.553,1.925,3.223,3.451l6.759,15.615C1392.493,749.563,1393.077,750.861,1392.051,752.1Zm72.2,18.524c-5.775-11.223-9.754-23.129-13.5-35.122-.913-2.952-2.282-4.535-5.347-5.105-10.353-1.911-20.691-3.879-30.987-6.132-3.408-.741-3.979.513-3.936,3.437.128,10.267,1.3,20.506.8,30.787-.114,2.3,1.212,2.61,2.909,3.009,6.659,1.526,13.3,3.137,19.964,4.706-.086.414-.171.813-.257,1.212a165.974,165.974,0,0,1-24.356-5.376c-3.023-.927-4.649-4.606-6.075-7.33-5.433-10.3-9.312-21.261-12.805-32.37-1.069-3.422-.242-4.307,3.237-3.622,17.739,3.479,35.464,7.044,53.218,10.51,2.795.542,4.007,2.182,4.763,4.763a274.308,274.308,0,0,0,11.622,31.971c1.084,2.524,3.494,4.364,3.936,7.372C1465.1,773.548,1464.9,771.894,1464.248,770.625Zm34.751.856c-.742,2.681-2.424,3.822-5.119,3.266-5.005-1.027-10-2.139-14.987-3.237a5.73,5.73,0,0,1-3.85-3.308,125.5,125.5,0,0,1-6.987-16.755c-1.155-3.465.086-4.748,3.793-4.021,7,1.34,13.989,2.809,20.976,4.221,7.544,1.526,7.757,1.783,7.743,9.982C1500.882,764.736,1499.941,768.1,1499,771.481Zm117.145-11.108c-.371,2.88-2.353,3.208-3.579,1.012-4.292-7.629-11.879-8.014-19.108-9.383-13.647-2.552-27.322-5.091-40.954-7.743-5.291-1.041-6.274-2.667-5.333-7.886.4-2.253.912-4.492,1.369-6.745.556-2.7,1.226-5.376-2.624-6.3-.856-.214-1.839-.884-1.569-2.039a2.427,2.427,0,0,1,2.467-1.768,53.026,53.026,0,0,1,7.2.827c14.474,2.581,28.933,5.262,43.407,7.814a27.066,27.066,0,0,1,18.909,12.663c1.369,2.139.927,4.406,1.069,7.33C1617.029,751.788,1616.687,756.094,1616.145,760.372Z" transform="translate(0.655 77.622)" fill="#f7ea84"/>
    <path id="Path_1264" data-name="Path 1264" d="M1324.917,683.394c-.8,2.995-1.355,6.06-1.954,9.1-.314,1.583-1.027,2.481-1.982,2.225-7.686-1.583-14.616-2.766-21.418-4.449-15.158-3.764-30.459-5.9-46.131-5.034-4.734.271-4.863-.014-3.636-4.335,3.465-12.064.8-9.354,12.919-10.068,20.477-1.226,39.871,4.477,59.549,8.527C1324.418,679.8,1325.587,680.884,1324.917,683.394Z" transform="translate(6.657 80.05)" fill="#ffcbcd"/>
    <path id="Path_1265" data-name="Path 1265" d="M1361.545,740.04c-1.055.485-1.782-.485-2.382-1.112a9.794,9.794,0,0,1-1.768-2.652,247.373,247.373,0,0,1-11.237-28.534c-1.183-3.722-.684-4.25,3.223-3.636,11.279,1.768,11.18,1.768,12.221,13.176.385,4.164.456,8.328.556,12.492,0,2.7.014,5.39-.014,8.085C1362.13,738.628,1362.429,739.641,1361.545,740.04Z" transform="translate(47.745 94.204)" fill="#ffcbcd"/>
    <path id="Path_1266" data-name="Path 1266" d="M1352.858,731.226c-18.053-.642-24.755-11.451-31.928-22.916,7.985,1.668,15.443,3.18,22.9,4.791a3.4,3.4,0,0,1,2.239,2.21C1348.28,720.5,1350.491,725.693,1352.858,731.226Z" transform="translate(37.238 96.088)" fill="#ffcbcd"/>
    <path id="Path_1267" data-name="Path 1267" d="M1427.4,735.807c-.071,10.852-.584,10.838-10.581,9.483-7.1-.97-11.18-4.278-13.19-10.866-.8-2.581-1.939-5.048-2.937-7.558-.742-1.882-.128-2.524,1.839-2.111,7.386,1.554,14.8,3.009,22.174,4.649C1428.654,730.289,1426.958,733.7,1427.4,735.807Z" transform="translate(71.086 103.043)" fill="#ffcbcd"/>
    <path id="Path_1268" data-name="Path 1268" d="M1520.814,729.771a90.558,90.558,0,0,0-1.469,9.3c-2.082-2.153-2.082-2.153-2.952-9.212-1.369,1.226-.242,3.736-2.224,4.392-1.769.6-3.394-.556-5.062-.97-11.779-2.923-23.814-4.563-35.707-6.859-4.763-.927-9.526-1.84-14.289-2.7-2.937-.528-4.292-1.825-3.222-5.034a29.9,29.9,0,0,0,1.3-6.731c.356-4.064,2.381-5.119,6.232-4.421,13.789,2.5,27.635,4.649,41.4,7.273,5.062.955,10.338,1.839,13.975,6.388C1520.9,723.853,1521.712,726.42,1520.814,729.771Z" transform="translate(94.574 95.675)" fill="#ffcbcd"/>
    <path id="Path_1269" data-name="Path 1269" d="M1550.038,775.108c-2.695-.884-5.362-1.84-8.028-2.795a77.469,77.469,0,0,1-14.531-7.1c-6.588-4.078-6.1-11.265-6.759-17.739-.984-9.8-1.625-19.622-2.438-29.432-.086-1.027.114-2.21-1.055-2.866-2.752-1.569-9.9,1.611-10.125,4.749-.9,12.363-1.611,24.741-2.381,37.118h.129a49.769,49.769,0,0,0,.028,5.262c.613,6.1,1.939,11.736,6.816,16.27,4.848,4.521,10.809,7.087,16.1,10.766,4.877,3.38,10.467,3.123,15.843,4.107,1.783.328,2.31-1.041,2.838-2.3,1.7-4.107,3.294-8.271,5.091-12.349C1552.419,776.862,1552.02,775.778,1550.038,775.108Z" transform="translate(115.53 98.836)" fill="#f7ea84"/>
    <path id="Path_1270" data-name="Path 1270" d="M1644.885,762.674c2.966-5.219,5.775-10.524,8.741-15.971-2.068-.57-3.28.157-4.563.456-19.507,4.635-38.444,11.75-58.736,13.005-11.693.713-23.244,3.109-35.051,2.866-4.62-.086-10.367-2.467-13.6.613-3.08,2.923-3.494,8.556-5.376,12.877-1.4,3.223-.428,3.693,2.752,3.836,18.994.827,37.76-1.854,56.341-4.834,15.4-2.467,30.459-7.073,45.66-10.766C1642.5,764.414,1644.129,764,1644.885,762.674Z" transform="translate(128.716 112.353)" fill="#f7ea84"/>
    <path id="Path_1271" data-name="Path 1271" d="M1330.755,712.06q8.278,1.968,16.641,3.536c25.981,4.934,51.949,9.982,77.987,14.645,21.361,3.822,42.409,9.526,64.126,11.194,9.141.713,18.31,1.055,27.465-.328a13.884,13.884,0,0,1,9.383,1.854,12.225,12.225,0,0,0,4.107,1.611c16.6,3.066,33.068,6.773,49.5,10.624,2.61.6,3.865.128,4.406-2.838a309.484,309.484,0,0,1,14.032-49.425,27.461,27.461,0,0,1,12.848-15.13c7.372-3.964,14.873-7.729,22.474-11.237,32.869-15.2,66.123-29.489,99.348-43.849,5.034-2.182,9.953-4.606,14.93-6.916-.057-.257-.1-.513-.157-.77-4.207-.727-8.413-1.511-12.634-2.182-36.234-5.832-72.5-11.536-108.7-17.5-29.3-4.834-58.736-8.67-88.169-12.477-25.283-3.28-50.608-6.26-75.891-9.583-12.05-1.569-23.286-2.068-35.365,2.966-41.639,17.326-83.876,33.225-125.3,51.122a22.9,22.9,0,0,0-12.235,12.378,268.994,268.994,0,0,0-13.975,44.377c-.613,2.681-.1,3.622,2.6,4.007,8.028,1.112,16,2.524,24.014,3.665,7.444,1.055,14.759,3.123,22.388,2.838,1.669-.071,2.966.6,2.453,2.709C1326.263,710.492,1328.473,711.518,1330.755,712.06ZM1337.8,681.8a242.137,242.137,0,0,1,19.222-22.445,12.375,12.375,0,0,1,4.378-2.781c6.317-2.652,12.606-5.376,19.008-8.114-.984-.813-1.954.713-3.052-.87,43.763-18.88,89.837-21.547,136.353-21.461-2.139,2.253-4.934,1.711-7.415,2.039-6.146.827-12.449,2.053-18.524,1.483-16.684-1.583-32.57,3.323-48.826,4.991-4.563.471-9.112,1.169-13.689,1.383-10.4.471-19.45,5.347-28.948,8.684-13.861,4.877-27.65,9.839-39.229,19.622-8.256,6.973-15.386,14.659-20.748,24.014a43.49,43.49,0,0,1-5.29,7.6A47.227,47.227,0,0,1,1337.8,681.8Z" transform="translate(17.816 42.371)" fill="#f7ea84"/>
    <path id="Path_1272" data-name="Path 1272" d="M1979.993,673.474c-.285-7.415-.841-14.83-1.483-22.231-1.155-13.034-2.168-26.081-4.007-39.058-.371-2.667-1.412-3.479-4.064-2.652-4.25,1.34-8.641,2.253-12.848,3.693-3.294,1.112-5.718.356-7.957-2.125-5.276-5.832-10-11.964-12.592-19.579-2.01-5.9-2.224-5.889-8.014-3.95-19.593,6.588-39.058,13.561-58.78,19.707-23.843,7.429-48.384,12.477-72.069,20.534a9.617,9.617,0,0,1-5.162.171c-7.686-1.526-15.372-3.037-23.073-4.364-19.679-3.408-39.386-6.659-59.05-10.1-34.152-5.975-68.262-12.192-102.628-16.969-25.924-3.608-51.949-6.36-77.944-9.383-23.315-2.7-46.63-5.433-69.973-7.871-8.513-.884-16.941-1.8-25.554,1.34-28.805,10.5-57.938,20.121-86.557,31.129-20.406,7.843-40.911,15.486-60.305,25.682-8.171,4.292-15.843,9.64-21.347,17.126-7.2,9.8-13.2,20.42-19.208,31a42.092,42.092,0,0,0-4.478,9.939c5.091,0,9.939-.128,14.773.014,8.727.271,17.568-1.169,26.181,1.426,3.237.955,3.109-1.683,3.493-3.536a242.167,242.167,0,0,1,13.447-42.851,25.767,25.767,0,0,1,13.9-14.075c45-19.508,90.807-37.061,136.381-55.171a12.921,12.921,0,0,1,6.289-1.2c5.233.613,10.467,1.155,15.686,1.811q31.122,3.914,62.23,7.857c21.946,2.795,43.935,5.219,65.809,8.485,35.365,5.262,70.643,11.051,105.951,16.684q27.785,4.449,55.513,9.2c1.64.271,4.421-.285,4.677,2.167.228,2.125-2.367,2.267-3.836,3.009-20.078,10.039-40.983,18.238-61.474,27.336-24.57,10.909-49.282,21.49-73.281,33.7-6.075,3.094-10.966,7.486-13.333,13.59a321.453,321.453,0,0,0-14.545,49.724c-.428,2.011-.128,3.151,2.139,3.294,2.681.171,5.39,1.241,8.014-.271a16.233,16.233,0,0,0,4.663,7.429c.556.556.841,1.454,2.053,1.483a8.965,8.965,0,0,0,.642-1.74c1.682-10.239,3.123-20.534,5.034-30.744,2.3-12.192,4.535-24.47,10.752-35.493.8-1.426,1.212-3.294,3.308-3.365a1.373,1.373,0,0,1-.128,1.668,86.857,86.857,0,0,0-8.827,22.1c-3.18,13.547-5.1,27.322-7.629,40.983-1.469,7.928-1.526,7.971,6.631,6.873,2.823-.371,4.121.342,4.492,3.465,1.711,14.488,2,29.09,3.893,43.55.513,3.893,2.153,6.745,5.348,8.513,11.08,6.146,22.459,10.994,35.664,10.3,7.529-.4,15.1-.043,22.645-.955,10.453-1.241,21.1-1.455,31.358-3.622,15.686-3.337,31.115-7.971,46.659-12.078a5.166,5.166,0,0,0,3.893-3.722c3.679-12.435,8.984-24.413,11.479-37.161,3.551-18.2,12.107-34.352,22.174-49.182,9.126-13.433,20.72-25.283,36.263-32.726,13.789-6.6,27.55-9.868,42.609-6.945,1.44.285,3.066,0,4.221,1.141,6.659,6.517,14.93,11.522,17.283,21.76,1.54,6.659,5.675,12.919,5.832,19.736.328,13.846.927,27.85-3.978,41.268-1.141,3.137-1.9,6.4-3.08,10.438,16.855-6.3,32.784-12.278,48.712-18.21a4.691,4.691,0,0,0,2.937-3.565c2.752-9.882,6.688-19.436,8.442-29.575,1.7-9.768,5.733-19.18,4.349-29.447-.642-4.834-.086-9.682.585-14.531A63.281,63.281,0,0,0,1979.993,673.474Zm-311.421,7.23c-8.884,6.831-18.966,11.565-28.919,16.527C1647.781,689.088,1658.59,685.637,1668.572,680.7Zm16.313,122.564c-13.376,4.178-26.78,8.228-40.2,12.292-4.05,1.227-5.02.656-5.034-3.479-.057-15.529-2.339-11.921,11.208-16.128,11.579-3.594,23.286-6.8,34.937-10.153,5.961-1.725,6.089-1.611,6.132,4.677V793.3C1692,802.611,1692.471,800.914,1684.885,803.267Z" transform="translate(3.998 40.773)" fill="#f7ea84"/>
    <path id="Path_1273" data-name="Path 1273" d="M1563.173,738.709c-11.365,3.422-22.73,6.773-34.052,10.281-6.5,2.011-6.032,2.638-6.06-4.235-.014-6.274-.014-6.232,6.246-8.043,12.036-3.479,24.071-7.016,36.092-10.51,4.364-1.283,4.449-1.212,4.535,3.451C1570.047,736.627,1570.061,736.627,1563.173,738.709Z" transform="translate(123.343 103.407)" fill="#ffcbcd"/>
    <path id="Path_1274" data-name="Path 1274" d="M1751.47,766.518c1.526-.442,2.31-.627,3.066-.9q44.533-16.3,89.053-32.612,43.763-16,87.541-31.985c2.524-.927,4.906-1.711,6.46-4.421a279.131,279.131,0,0,0,20.448-44.02c4.335-12.107,3.779-24.513,1.968-36.406a172.41,172.41,0,0,0-16.128-51.221c-1.54-3.08-2.781-4.092-6.388-3.009q-62.63,18.887-125.387,37.446-24.256,7.23-48.527,14.459c-2.01.6-3.979,1.041-3.451,3.936,2.5,13.846,3.408,27.864,4.406,41.867.67,9.269,2.111,18.523,1.112,27.864-.528,4.962-2.039,10.082-1.327,14.859,1.5,9.868-1.041,19.037-2.866,28.42C1759.128,742.732,1755.306,754.269,1751.47,766.518Z" transform="translate(220.643 33.559)" fill="#f7ea84"/>
    <path id="Path_1275" data-name="Path 1275" d="M1875.235,539.744c-7.572,2.652-15.229,5.076-23.015,7.672,1.483,2.2,2.937,1.155,4.263.77,23.073-6.631,46.273-12.72,69.988-16.67,13.8-2.31,27.422-6.089,41.653-3.907,2.923.456,2.2-2.025,2.281-3.622.086-1.968.143-3.964-2.823-3.679-6.845.642-13.761.8-20.52,1.925C1922.693,526.283,1898.607,531.574,1875.235,539.744Z" transform="translate(263.561 15.99)" fill="#f7ea84"/>
    <path id="Path_1276" data-name="Path 1276" d="M1867.489,549.882c4.093-1.4,8.186-2.795,12.292-4.135,17.44-5.733,34.823-11.679,52.876-15.315,15.415-3.123,30.758-6.645,46.658-7.686q-20.448-6.331-40.9-12.62a10.627,10.627,0,0,0-3.622-.242c-16.185.884-32.37,1.7-48.541,2.752-22.359,1.469-44.7,3.166-67.107,3.964-.8.029-1.911-.556-2.439.9q23.315,16.171,46.587,32.341C1864.78,550.866,1866.078,550.367,1867.489,549.882Z" transform="translate(248.434 11.542)" fill="#f7ea84"/>
    <path id="Path_1277" data-name="Path 1277" d="M1947.425,526.7c-26.524,4.877-53.146,9.369-79.071,17.1-4.406,1.312-8.87,2.481-13.3,3.707,7.387,1.825,14.673,3.037,21.946,4.349,5.476,1,6.588,2.367,6.089,7.943-.271,3.166,1.013,3.779,3.779,3.251,6.488-1.241,13.034-2.2,19.493-3.565,28.648-6.046,57.182-12.649,86.215-16.67,13.347-1.854,26.694-3.65,41.225-5.633-8.428-1.4-15.729-2.51-22.987-3.822a467.3,467.3,0,0,0-58.936-6.816A19.342,19.342,0,0,0,1947.425,526.7Z" transform="translate(264.767 18.636)" fill="#f7ea84"/>
    <path id="Path_1278" data-name="Path 1278" d="M2060.445,532.707c-5.376.328-10.737,1.055-16.085,1.711-18.353,2.21-36.719,4.264-55.029,6.773-26.908,3.693-53.289,10.1-79.741,16.071-9.953,2.253-19.793,4.906-30.26,7.515a24.734,24.734,0,0,0,7,4.535c1.74.841,3.28,1.825,4.05,3.736,3.935,9.754,8.841,19.094,11.75,29.29,4.763,16.712,8.6,33.468,6.987,51.036a26.4,26.4,0,0,1-1.126,6.759c-5.69,15.615-11.137,31.329-20.135,45.461-.713,1.126-1.241,2.353-2.31,4.435,12.021-4.392,23.044-8.413,34.067-12.406,1.811-.656,2.681-2.139,3.651-3.622,10.167-15.529,17.939-32.313,26.1-48.94,7.943-16.2,15.258-32.926,28.648-45.76,6.189-5.932,12.848-11.322,21.333-13.433,4.449-1.1,9.54-2.51,13.6.727a24.261,24.261,0,0,1,8.028,10.994,65.151,65.151,0,0,1,3.308,17.825c.514,8.328-.784,16.6-1.312,25.725,8.242-4.563,16.213-8.313,23.429-13.176,5.975-4.021,11.836-8.456,16.185-14.531,5.391-7.515,6.56-16.456,9.027-24.969.585-2.025,1.412-4.007,1.269-6.274-.7-11.18-.941-22.374,1.112-33.439C2075.589,540.165,2069.058,532.18,2060.445,532.707Zm-116.817,116.36a26.889,26.889,0,0,1-7.458,2.995c-1.341.086-2.367-.128-2.638-1.155a3.216,3.216,0,0,1,1.4-3.85,68.288,68.288,0,0,1,7.8-3.094,1.608,1.608,0,0,1,2.224,1.155A3.6,3.6,0,0,1,1943.628,649.068Zm117.416-45.033c-4.264,1.982-8.357,4.292-12.52,6.488-2.41,1.269-3.75.627-4.25-2.1-1.283-7.044-.456-8.813,5.961-11.978,3.493-1.726,7.016-3.394,10.552-5.034,4.121-1.911,4.834-1.426,4.934,3.237.014.528,0,1.069,0,2.21C2066.691,600.371,2064.48,602.438,2061.044,604.035Z" transform="translate(275.109 21.273)" fill="#f7ea84"/>
    <path id="Path_1279" data-name="Path 1279" d="M2011.745,582.072a94.307,94.307,0,0,1-13.19,7.016c-2.524,1.027-1.084-1.911-1.6-2.567-.5-2.709.528-4.164,2.652-5.133,3.066-1.4,6.032-3.037,9.126-4.392,1.183-.513,2.795-2.4,3.779-.485C2013.356,578.165,2013.8,580.817,2011.745,582.072Z" transform="translate(325.164 39.586)" fill="#ffcbcd"/>
    <path id="Path_1280" data-name="Path 1280" d="M1852.607,550.472c28.919-6.816,57.41-15.258,86.158-22.773,12.948-3.394,25.824-7.116,39.785-10.98-10.481-4.463-19.508-9.369-29.561-11.864-12.449-3.094-25-5.661-37.632-7.9-23.016-4.078-46.2-7-69.431-8.969-26.1-2.2-52.319-2.7-78.5-3.579-26.766-.913-53.1,2.353-79.4,6.588-55.656,8.955-110.3,22.359-164.573,37.4a131.945,131.945,0,0,0-38.516,17.525c-7.273,4.848-13.248,11.322-21.048,15.415-7.558,3.964-14.217,9.326-21.119,14.3-.556.4-1.355.727-1.554,1.269-2.139,5.761-7.1,7.5-12.363,8.984-1.768.5-3.779,1.255-4.249,3.351s-2.025,3.08-3.465,4.278a249.693,249.693,0,0,1-25.839,18.3c4.292,1.6,8,.884,11.551,1.383q23.251,3.23,46.6,5.618,43.7,4.428,87.3,9.711c32.969,3.964,65.667,9.74,98.307,15.729,32.128,5.889,64.5,10.324,96.525,16.713,2.224.442,3.094-.214,3.95-2.139,11.579-26.039,23.5-51.934,30.445-79.755,1.07-4.307,3.223-8.356,4.877-12.52.485.185.955.371,1.426.556-5.989,15.543-9.925,31.7-15.529,47.371s-14.1,30.131-19.835,46.33c1.255-.285,1.782-.385,2.281-.528,18.637-5.519,37.318-10.952,55.927-16.6,23.13-7.016,46.188-14.274,69.332-21.276,3.451-1.041,4.078-2.467,2.952-5.79-2.866-8.442-5.447-16.984-8.014-25.525q-5.069-16.877-9.953-33.81C1848.543,554.194,1848.357,551.484,1852.607,550.472Zm-102.8,27.964c-4.064,13.176-8.556,26.2-13.732,38.972-4.52,11.151-9.312,22.174-13.832,33.311-1.183,2.923-2.88,3.765-5.918,3.266-25.155-4.207-50.337-8.185-75.492-12.449-29-4.92-57.966-10.167-87.114-14.075-24.342-3.251-48.8-5.59-73.2-8.4-22.245-2.567-44.491-5.233-66.722-7.857a15.05,15.05,0,0,1-1.611-.171c-2.139-.414-5.362.927-6.089-1.754-.685-2.51,2.581-3.465,4.249-4.806,25.925-20.848,53.517-39.429,80.369-59.036,2.881-2.1,3.579-2.239,5.932-2.139q29.839,2.674,59.692,5.319,25.411,2.2,50.836,4.292c15.087,1.255,30,3.75,44.947,5.932,28.448,4.15,56.868,8.47,85.288,12.72,2.937.442,5.861,1.112,8.813,1.326C1750.107,573.174,1750.948,574.7,1749.807,578.436Zm96.625,31a18.694,18.694,0,0,1-10.153,8.257c-6.7,2.5-13.618,4.363-20.605,3.864-10.823.67-18.638-3.394-23.258-13.048-2.438-5.105-1.383-11.408,3.251-14.559,12.948-8.8,26.78-12.52,41.967-5.961C1845.848,591.526,1850.368,602.278,1846.432,609.437Z" transform="translate(67.215 0.642)" fill="#f7ea84"/>
    <path id="Path_1281" data-name="Path 1281" d="M1740.939,561.2a503.559,503.559,0,0,1-18.167,49.41c-2.6,6.089-5.148,12.207-7.558,18.367-1.169,3.009-2.567,4.306-6.246,3.679-25.4-4.364-50.851-8.442-76.276-12.62-30.473-5.019-60.875-10.452-91.534-14.4-27.165-3.508-54.416-6.132-81.609-9.412-17.411-2.1-34.851-3.936-52.263-5.9a20.354,20.354,0,0,1-2.567-.67c.628-1.169,1.269-1.626,1.925-1.426,10.153,3.08,20.762,2.923,31.158,4.221,18.994,2.381,38.074,4.192,57.1,6.374,18.623,2.139,37.261,4.278,55.856,6.731,15.1,2,30.174,4.335,45.218,6.773,30.359,4.934,60.69,10.039,91.035,15.073,7.058,1.183,14.131,2.239,21.147,3.622,2.738.542,4.378,0,5.462-2.609,8.955-21.575,18.01-43.122,24.641-65.581.955-3.223-.2-4.364-3.266-4.92-27.222-4.92-54.687-8.2-82.051-12.092-20.834-2.966-41.739-5.547-62.644-7.886-17.967-2.011-36.006-3.308-53.988-5.19-16.028-1.7-32.07-3.223-48.17-4.449,2.281-1,4.663-.642,7-.456,15.472,1.283,30.944,2.524,46.4,3.907,19.208,1.711,38.4,3.722,57.638,5.3,29.09,2.381,57.738,7.829,86.614,11.75,17.768,2.424,35.479,5.39,53.218,8.028C1742.337,557.31,1741.567,559.135,1740.939,561.2Z" transform="translate(72.932 19.116)" fill="#ffcbcd"/>
    <path id="Path_1282" data-name="Path 1282" d="M1720.353,577.52c-2.524,4.036-6.474,6.631-12.15,8.242,2.7-1.74,4.592-2.781,6.288-4.078,8.513-6.6,7.173-16.784-2.624-21.561-8.941-4.364-17.8-2.952-26.751-.328-1.141.342-2.281.713-3.437,1.069,10.167-4.534,20.534-6.3,31.144-1.383C1719.9,562.747,1723.932,571.8,1720.353,577.52Z" transform="translate(190.913 31.432)" fill="#f6f6f8"/>
    <path id="Path_1283" data-name="Path 1283" d="M1713.63,561.454c-12.777-5.248-24.57-2.167-35.493,5.2-3.936,2.667-4.278,6.688-1.626,10.652,4.15,6.217,10.324,7.757,17.34,7.273,7.686-.371,15.358-.97,21.86-5.818C1723.113,573.247,1722.2,564.99,1713.63,561.454Zm-9.74,18.909a2.06,2.06,0,0,1-2.866-.642,81.55,81.55,0,0,1-7.885-13.575,1.774,1.774,0,0,1,.856-2.41,2.012,2.012,0,0,1,2.6.357c3.636,4.221,5.946,9.226,8.228,13.846C1704.946,579.193,1704.675,579.92,1703.891,580.362Z" transform="translate(187.982 32.412)" fill="#f6f6f8"/>
    <path id="Path_1284" data-name="Path 1284" d="M1494.27,595.126c32.427,3.807,64.84,7.615,97.052,13.005q56.683,9.5,113.38,18.994c2.724.456,4.307-.1,5.3-2.809,1.854-5.062,3.765-10.139,6-15.044,6.745-14.787,11.665-30.231,16.755-45.6.756-2.267,1.312-4.15-2.068-4.663-6.545-.984-13.019-2.339-19.564-3.266-24.042-3.394-48.113-6.574-72.155-10.025s-48.2-6.018-72.34-8.556q-33.625-3.551-67.307-6.26c-6.36-.5-12.834-2-19.037,2.609-17.682,13.1-35.821,25.611-53.674,38.5-5.775,4.15-11.237,8.727-16.841,13.119.142.3.285.613.428.927C1438.228,589.051,1466.278,591.832,1494.27,595.126Z" transform="translate(75.087 20.243)" fill="#f6f6f8"/>
  </g>
</svg>
