<svg xmlns="http://www.w3.org/2000/svg" width="449.217" height="444.661" viewBox="0 0 449.217 444.661">
  <path id="bg" d="M485.774,93.3h.152c17.619.075,34.75,2.96,51.738,7.483,13.124,3.495,25.986,7.893,38.775,12.441,25.7,9.141,52.654,22.057,67.331,46.252a173.84,173.84,0,0,1,8.805,17.309,160.637,160.637,0,0,0,9.784,18.893,138.884,138.884,0,0,0,10.585,13.911c5.561,6.707,11.172,13.507,14.645,21.583,3.1,7.211,4.546,15,5.962,22.676a138.221,138.221,0,0,0,4.042,17.609c1.211,3.739,2.564,7.432,3.915,11.12,4.051,11.068,8.325,22.68,8.305,34.607a222.216,222.216,0,0,1-4.623,45.072,75.753,75.753,0,0,1-7.173,19.893,192.284,192.284,0,0,1-11.181,17.966c-6.282,9.344-10.021,19.424-13.871,29.905-1.286,3.5-2.578,7-3.958,10.465a85.456,85.456,0,0,1-11.285,19.753,145.505,145.505,0,0,1-13.506,15.246C634.5,485.208,624.3,494.267,611.177,499c-10.293,3.708-21.062,5.958-31.751,8.19q-2.659.555-5.319,1.116c-2.693.572-5.4,1.109-8.094,1.648-10.809,2.159-21.94,4.353-32.141,8.614a113.925,113.925,0,0,0-13.494,7.135c-8.546,5.011-17.53,10.289-27.747,10.312-4.987.01-9.975.133-14.96.251-26.77.636-53.9,1.19-77.076-14.515-5.609-3.8-10.586-8.448-15.523-13.064-5.457-5.1-10.951-10.222-17.29-14.232a142.4,142.4,0,0,0-18.6-9.373c-7.045-3.127-14.167-6.29-20.545-10.668-11.552-7.928-20.021-19.837-27.814-31.268a111.031,111.031,0,0,1-10.287-17.674,52.9,52.9,0,0,1-4.733-21.206,126.079,126.079,0,0,1,1.042-14.537c1.148-10.429,2.29-21.186-2.193-31.062-2.473-5.447-6.326-10.366-9.979-15.077-6-7.742-12.572-16.131-12.616-26.41-.039-9.254.276-18.538,1.157-27.752a174.074,174.074,0,0,1,3.753-23.49c2.927-12.367,7.637-24.675,15.481-34.795a113.555,113.555,0,0,1,11.746-12.377c5.4-5.143,10.763-10.289,14.744-16.659,3.426-5.481,5.837-11.589,8.21-17.58,3.255-8.216,6.632-16.765,12.613-23.428,6.421-7.155,15.377-11.478,23.894-15.608a135.943,135.943,0,0,0,14.127-7.537c4.056-2.6,7.837-5.583,11.612-8.568,7.285-5.763,14.243-11.245,23.251-14.075,6.552-2.059,13.394-2.989,20.179-3.906,7.771-1.051,15.586-2.122,22.982-4.854,3.9-1.44,7.693-3.167,11.475-4.886,9.021-4.1,18.382-8.36,28.492-8.36m1.361,5.267a146.872,146.872,0,0,1,28.021,2.848c15.839,3.075,31.219,8.236,46.5,13.332,3.742,1.248,7.486,2.5,11.239,3.717,26.235,8.532,53.443,19.108,66.884,45.086,2.546,4.922,4.646,10.062,6.741,15.185,3.014,7.37,6.055,14.77,10.37,21.5a120.227,120.227,0,0,0,11.351,14.281c5.216,5.918,10.478,11.9,14.029,19.011,3.742,7.49,5.491,15.762,7.2,23.9a149.285,149.285,0,0,0,3.993,16.056c1.056,3.211,2.2,6.393,3.344,9.574,3.947,10.971,8.18,22.63,8.222,34.408a199.474,199.474,0,0,1-5.284,45.225,88.936,88.936,0,0,1-4.075,13.052,106.665,106.665,0,0,1-5.445,11.474c-2.031,3.731-4.231,7.366-6.465,10.978-5.156,8.337-8.851,17.363-12.522,26.415-1.905,4.7-3.811,9.4-5.93,14-5.822,12.656-14.9,23.3-24.667,33.077-9.461,9.461-19.663,18.615-32.041,24.062-11.084,4.877-22.775,6.892-34.615,9l-.378.067c-1.708.3-3.42.591-5.131.883-11.947,2.039-24.2,4.11-35.51,8.586a130.427,130.427,0,0,0-13.286,6.47c-8.579,4.578-17.854,9.583-27.812,9.672-4.9.044-9.805.214-14.706.382-25.737.885-52.221,1.755-73.927-14.536a118.518,118.518,0,0,1-13.415-12.419c-5.217-5.355-10.469-10.721-16.8-14.776-6.421-4.111-13.511-7-20.549-9.858-6.745-2.74-13.555-5.51-19.753-9.371-11.948-7.442-20.263-19.039-28.021-30.506-8.378-12.384-14.107-23.874-14.317-39.135-.058-4.215.231-8.426.522-12.627.718-10.391,1.351-20.54-3.054-30.313-2.263-5.022-5.524-9.67-8.658-14.182-5.345-7.694-11.359-16.218-11.5-25.95-.2-14.28.362-28.959,2.956-43.029,2.557-13.862,7.433-28.569,16.785-39.4a106.346,106.346,0,0,1,11.617-11.013c6.018-5.152,11.888-10.242,16.042-17.105,3.3-5.448,5.546-11.458,7.771-17.4,3.042-8.127,6.157-16.409,11.917-23.065,6.39-7.385,15.339-11.647,23.992-15.768a125.122,125.122,0,0,0,14.627-7.764,117.122,117.122,0,0,0,11.486-8.9c6.063-5.117,11.93-10.057,19.414-12.986,7.014-2.744,14.5-3.986,21.893-5.207,6.952-1.146,13.95-2.307,20.6-4.7,3.579-1.287,7.084-2.777,10.583-4.262,9.089-3.857,18.522-7.863,28.561-7.955Q486.533,98.566,487.135,98.566ZM273.718,317.085c-.233-13.882-.049-28.058,2.315-41.774,2.358-13.693,6.98-27.648,16.813-37.853a94.569,94.569,0,0,1,11.16-9.424c6.134-4.66,12.159-9.285,16.241-15.969,3.435-5.623,5.664-11.854,7.868-18.031,2.9-8.141,5.858-16.344,11.533-23.034,6.3-7.434,14.683-11.352,23.315-15.388a120.671,120.671,0,0,0,13.819-7.2,101.038,101.038,0,0,0,12.8-10.224c5.822-5.2,11.441-10.2,18.7-13.31,6.749-2.891,14.033-4.283,21.209-5.649a131.839,131.839,0,0,0,16.757-3.956c3.628-1.2,7.193-2.583,10.754-3.964,9.258-3.59,18.863-7.317,28.928-7.461,22.3-.32,43.732,6.936,64.584,14.007,7.565,2.565,15.136,5.135,22.805,7.367,25.225,7.343,50.883,16.683,62.484,42.377,2.042,4.522,3.722,9.195,5.4,13.861,2.873,8.011,5.772,16.025,10.436,23.209,3.423,5.277,7.75,9.874,12.051,14.435,4.913,5.21,9.863,10.474,13.44,16.731,4.256,7.446,6.251,15.788,8.216,24.055,1.1,4.614,2.193,9.239,3.688,13.741,1.077,3.241,2.243,6.457,3.408,9.668,4.017,11.076,8.386,22.948,8.456,34.84.165,28.193-8.187,56.041-21.847,80.556a204.614,204.614,0,0,0-9.265,19.835c-2.4,5.651-4.8,11.313-7.624,16.768-6.3,12.163-15.266,22.955-24.91,32.6-9.148,9.156-19.341,18.075-30.838,24.168a67.3,67.3,0,0,1-10.548,4.462c-7.606,2.5-15.6,3.776-23.5,4.956l-1.743.261c-12.47,1.864-25.13,3.742-37.087,7.886-4.793,1.661-9.438,3.806-14.045,5.921-9.15,4.2-19.146,8.86-29.373,8.976-5.1.057-10.2.294-15.294.528-3.063.142-6.126.283-9.19.389-12.184.421-24.744.326-36.6-2.819a60.219,60.219,0,0,1-22.55-11.187,108.53,108.53,0,0,1-12.557-12.529c-5.207-5.8-10.457-11.616-17.123-15.783-6.573-4.11-13.868-6.847-21.1-9.551-6.548-2.449-13.159-4.924-19.228-8.435-10.656-6.165-19.925-15.984-26.786-26.116-7.691-11.356-14.167-25.857-15.015-39.691-.271-4.429-.2-8.869-.122-13.3.175-10.131.27-19.969-3.581-29.555a101.359,101.359,0,0,0-7.378-13.924C278.984,334.81,273.874,326.355,273.718,317.085ZM486.944,109.1c19.153,0,37.619,6.609,55.437,12.971,9.3,3.321,18.643,6.668,28.21,9.135,6.37,1.642,12.744,3.339,18.987,5.416a101.967,101.967,0,0,1,17.23,7.321c11.616,6.426,20.064,15.313,25.072,27.635,1.715,4.223,3.072,8.586,4.428,12.932,2.4,7.706,4.852,15.491,9.186,22.372,3.733,5.928,8.689,10.927,13.6,15.871,4.95,4.982,9.953,10.038,13.688,16.03,4.483,7.193,6.647,15.369,8.767,23.485,1.059,4.053,2.118,8.113,3.475,12.076,1.1,3.213,2.286,6.4,3.472,9.579,4.16,11.162,8.7,23.161,8.778,35.19a130.124,130.124,0,0,1-3.649,29.821,206.213,206.213,0,0,1-17.961,47.589c-2.612,5.064-4.918,10.282-7.22,15.49a211.893,211.893,0,0,1-9.833,20.293,155.486,155.486,0,0,1-24.5,31.817c-13.413,13.463-28.406,24.716-46.743,30.424a93.9,93.9,0,0,1-15.318,3.368c-13.7,1.854-27.377,3.955-40.623,8.041-4.38,1.352-8.68,2.983-12.967,4.606-9.768,3.7-20.266,7.733-30.815,7.837-5.353.053-10.707.355-16.052.654-22.853,1.276-45.859,2.436-64.079-14.047a109.158,109.158,0,0,1-10.268-11.2c-4.733-5.668-9.529-11.39-15.756-15.49-6.981-4.6-14.971-7.395-22.805-10.139-6.415-2.247-12.926-4.523-18.9-7.8-11.869-6.513-22.012-18-28.962-29.475-6.045-9.978-10.8-21.733-12.13-33.38-.535-4.684-.7-9.4-.853-14.107-.3-8.9-.631-17.723-3.419-26.266a117.348,117.348,0,0,0-6.161-14.36c-3.872-8.037-8.063-16.663-8.2-25.752l-.034-2.313c-.157-10.54-.268-21.074.757-31.579,1.509-15.469,5.6-32.141,17.294-43.188a93.287,93.287,0,0,1,10.843-8.4c6.586-4.6,13-9.145,17.128-16.252,3.11-5.36,5.138-11.224,7.145-17.059,2.762-8.033,5.551-16.017,11.089-22.634,6.17-7.371,14.119-11.084,22.638-15.027a104.679,104.679,0,0,0,14.547-7.7,89,89,0,0,0,12.069-10.371c4.7-4.554,9.442-9.132,15.248-12.269,7.573-4.092,16.1-5.94,24.442-7.743,4.768-1.031,9.556-2.064,14.216-3.522,3.038-.951,6.045-2,9.05-3.042,9.486-3.3,19.3-6.716,29.445-6.841C486.269,109.107,486.606,109.1,486.944,109.1ZM286.6,317c-.023-2.59-.078-5.181-.131-7.771-.158-7.681-.3-15.363.118-23.039.865-15.793,4.157-32.963,16.563-43.943a89.524,89.524,0,0,1,10.3-7.495c6.41-4.214,12.8-8.449,16.83-15.189,3.249-5.432,5.317-11.411,7.365-17.367,2.725-7.926,5.468-15.768,10.91-22.315,6.1-7.341,13.912-11.047,22.351-14.992a100.658,100.658,0,0,0,14.686-7.9c4.443-3.058,8.217-6.921,11.963-10.767,4.467-4.585,8.977-9.189,14.586-12.392,7.658-4.372,16.425-6.348,24.949-8.27,3.86-.87,7.728-1.74,11.529-2.84,2.43-.7,4.847-1.447,7.265-2.192,9.738-3,19.76-6.094,30.041-6.15,17.768-.1,34.819,6.47,51.169,12.75,10.346,3.974,20.843,8.023,31.674,10.469,25.093,5.668,49.025,11.066,59.258,37.851,1.548,4.054,2.766,8.235,3.979,12.4,2.307,7.922,4.659,15.98,9.189,22.968,3.749,5.785,8.763,10.6,13.715,15.334,4.339,4.151,8.734,8.357,12.271,13.235,5.625,7.755,8.208,16.552,10.865,25.621,1.147,3.911,2.3,7.827,3.7,11.659.986,2.7,2.022,5.39,3.06,8.076,4.352,11.249,9.112,23.373,9.192,35.566.086,13.091-3.817,26.08-8.24,38.279-.828,2.279-1.639,4.564-2.455,6.847-3.577,10.022-7.14,20-11.72,29.622q-1.987,4.174-3.928,8.368c-3.977,8.556-7.962,17.135-12.65,25.33a150.358,150.358,0,0,1-23.823,31.607c-16.588,16.628-36.465,30.622-60.253,33.864a357.85,357.85,0,0,0-39.069,7.2c-4.565,1.148-9.076,2.513-13.58,3.874-10.839,3.275-22.23,6.753-33.626,6.827-5.667.037-11.335.44-16.986.839-20.635,1.457-40.871,2.689-57.279-12.416a102.627,102.627,0,0,1-10.125-11.377c-4.721-5.858-9.5-11.773-15.9-15.893-7.038-4.53-15.073-7.3-22.937-10.009-6.4-2.209-12.909-4.444-18.9-7.651-9.6-5.141-17.667-13.474-23.883-22.316a102.731,102.731,0,0,1-10.274-18.43,84.141,84.141,0,0,1-5.623-18.106c-1.012-5.623-1.524-11.324-2.034-17.009-.7-7.8-1.411-15.625-3.383-23.224-1.2-4.642-2.853-9.167-4.488-13.67C289.834,334.567,286.68,325.924,286.6,317Zm6.655-.04c.011-4.072-.123-8.148-.25-12.218-.15-4.79-.3-9.582-.276-14.376.075-16.786,2.132-35.267,15.916-46.707a102.147,102.147,0,0,1,9.137-6.518c6.561-4.323,12.785-8.511,16.858-15.465,3-5.129,5-10.735,6.985-16.314,2.731-7.686,5.483-15.316,10.777-21.679,6.012-7.228,13.719-10.985,22-14.979a110.511,110.511,0,0,0,13.479-7.3c4.761-3.175,8.71-7.331,12.623-11.461,3.888-4.1,7.829-8.256,12.563-11.4,7.938-5.278,17.233-7.41,26.389-9.491,2.679-.609,5.359-1.218,8.017-1.908,2.256-.586,4.506-1.2,6.756-1.815,10.258-2.8,20.77-5.674,31.483-5.674h.214c16.492.059,32.11,6.579,47.089,12.817,10.938,4.556,22.129,9.227,33.8,11.509l.885.173c5.969,1.166,11.963,2.32,17.848,3.854a81.835,81.835,0,0,1,16.022,5.754c11.16,5.588,18.292,13.773,22.69,25.439,1.456,3.859,2.627,7.823,3.795,11.777,2.394,8.107,4.83,16.291,9.588,23.384,3.805,5.672,8.782,10.4,13.714,15.071,4.441,4.207,8.938,8.464,12.556,13.424,5.385,7.379,8.136,16.164,10.827,24.777,1.2,3.843,2.4,7.7,3.843,11.456.926,2.417,1.9,4.814,2.868,7.213,4.5,11.159,9.381,23.119,9.456,35.305.079,12.911-4.784,25.044-9.831,36.7-2.4,5.546-4.506,11.214-6.609,16.878-2.384,6.422-4.773,12.852-7.592,19.1-9.88,21.9-21.259,45.1-38.417,62.307-9.841,9.866-21.026,18.723-33.476,25.073a86,86,0,0,1-25.923,8.638q-20.05,3.049-39.918,7.222c-3.777.791-7.535,1.662-11.292,2.534-11.926,2.769-24.139,5.62-36.441,5.7-5.788.039-11.565.54-17.327,1.044-19.123,1.671-36.585,3.059-51.681-11.139a109.633,109.633,0,0,1-9.631-10.8c-4.833-5.928-9.642-11.769-16.181-15.917-7.119-4.516-15.118-7.417-23-10.275a142.788,142.788,0,0,1-18.8-7.836c-18.96-10.125-33.168-35.464-38.142-55.793a200.646,200.646,0,0,1-3.727-22.556c-.682-5.392-1.366-10.792-2.358-16.138-.815-4.392-1.9-8.733-2.981-13.066C295.437,334.689,293.234,325.881,293.258,316.962ZM486.106,151.326c13.368,0,25.888,6.933,37.326,13.178,9.267,5.061,19.072,10.468,29.511,12.519q2.236.44,4.472.865c18.491,3.545,33.063,6.375,45.375,22a134.087,134.087,0,0,1,10.7,16.757c1.916,3.355,3.831,6.715,5.913,9.97,2.6,4.063,5.463,7.95,8.323,11.828a170.011,170.011,0,0,1,10.323,15.1,178.778,178.778,0,0,1,9.558,20.116c1.764,4.149,3.527,8.3,5.482,12.366q1.09,2.266,2.2,4.522c5.272,10.766,11.556,23.437,11.791,35.587.188,9.687-6.167,17.784-11.773,25.083l-1,1.307q-3.282,4.275-6.146,8.84a119.222,119.222,0,0,0-9.764,19.735c-1.7,4.328-3.2,8.734-4.706,13.133-4.716,13.777-9.884,29.3-20.286,39.853-13.7,13.908-34.19,20.146-52.4,25.693q-2.688.819-5.371,1.644c-26.52,8.211-54.633,8.43-82.132,8.64l-3.761.029a56.712,56.712,0,0,0-12.864,2.092,60.736,60.736,0,0,1-11.813,2.053,34.741,34.741,0,0,1-12.154-1.845,57.69,57.69,0,0,1-13.056-6.382c-4.86-3.114-9.554-6.482-14.241-9.846a238.675,238.675,0,0,0-19.914-13.3c-3.378-1.944-6.87-3.7-10.35-5.451-7.457-3.755-15.237-7.648-21.505-13.248-5.787-5.172-7.718-10.609-9.364-18.026a124.289,124.289,0,0,0-8.895-25.731c-4.36-9.363-7.589-17.925-7.97-28.343a126.228,126.228,0,0,1,1.184-18.7,135.5,135.5,0,0,0,1.2-16.754c-.06-5.094-.442-10.183-.822-15.26-1.359-18.148-2.522-34.868,9.355-50.112,1.577-2.025,3.215-4,4.852-5.978,4.62-5.576,9.2-11.145,12.4-17.694,1.426-2.919,2.611-5.949,3.793-8.974,2.571-6.581,5.077-13,10.034-18.207,5.294-5.559,12.32-9.471,18.965-13.2,3.278-1.841,6.572-3.685,9.715-5.752,3.375-2.219,6.62-4.633,9.861-7.044a139.332,139.332,0,0,1,14.883-10.111c18.279-10.226,42.3-12.85,62.9-12.943Zm.25,5.738a43.537,43.537,0,0,1,5.106.242,40.326,40.326,0,0,1,6.878,1.483,88.761,88.761,0,0,1,10.124,3.84c5.059,2.224,10.023,4.728,14.906,7.311,8.909,4.713,18.285,9.728,28.175,11.924q1.369.3,2.74.606c17.747,3.907,32.009,7.044,44.857,20.966,5.146,5.574,9.108,12.138,13,18.607,1.3,2.154,2.6,4.305,3.943,6.43,2.086,3.292,4.3,6.5,6.516,9.706a175.442,175.442,0,0,1,10.461,16.4c3.522,6.546,6.437,13.42,9.339,20.258,1.746,4.113,3.489,8.229,5.371,12.282q.832,1.793,1.675,3.581c.791,1.682,1.581,3.366,2.358,5.055,4.113,8.947,8.325,19,8.529,28.98.19,9.211-5.782,17.6-10.816,24.858q-.694,1-1.386,2.006a135.037,135.037,0,0,0-14.623,27.4c-1.775,4.543-3.277,9.2-4.786,13.833-4.221,12.964-8.86,27.615-18.669,37.471-12.775,12.836-31.709,18.5-48.626,23.694-3.443,1.057-6.886,2.113-10.306,3.239-22.762,7.491-47.207,7.77-70.933,8.047-3.186.037-6.372.074-9.56.13a72.783,72.783,0,0,0-11.544,1.459,66.88,66.88,0,0,1-12.79,1.475c-10.048-.152-19.72-4.478-28.142-9.653-4.363-2.68-8.636-5.506-12.906-8.33-5.913-3.911-11.835-7.826-17.989-11.355-2.871-1.646-5.826-3.148-8.772-4.652-7.523-3.842-15.782-7.993-21.717-14.12-6.1-6.3-7.922-15.666-9.606-23.977-1.121-5.534-2.264-11.345-4.613-16.5l-.4-.869c-4.074-8.94-7.908-17.434-8.933-27.342-.714-6.892-.129-13.911.438-20.794a145.991,145.991,0,0,0,.727-14.725c-.048-2.445-.12-4.889-.192-7.333-.593-20.065-.971-39.417,11.023-56.79,1.341-1.942,2.724-3.853,4.107-5.765,4.316-5.962,8.587-11.913,11.542-18.7.97-2.225,1.815-4.5,2.659-6.777,2.307-6.218,4.555-12.292,9.266-17.145,5.139-5.3,11.739-9.19,18.048-12.938,2.25-1.336,4.5-2.673,6.706-4.083,3.133-2,6.188-4.123,9.242-6.241a170.53,170.53,0,0,1,16.344-10.444c18.6-9.984,41.981-12.721,62.794-12.743ZM338.138,315.052a152.894,152.894,0,0,1,2.029-30.538A89.34,89.34,0,0,1,352.3,252.669c.885-1.406,1.784-2.8,2.682-4.2,4-6.226,8-12.47,10.768-19.366.707-1.759,1.355-3.542,2-5.326,2.222-6.126,4.319-11.826,8.868-16.681,5.715-6.1,12.925-10.652,19.943-15.091q1.908-1.2,3.807-2.421c1.953-1.258,3.889-2.541,5.825-3.824,6.594-4.37,13.273-8.8,20.477-12.115,18.124-8.328,39.526-10.458,59.253-10.458h.01c13.253,0,26.082,6.575,37.677,12.42,7.955,4.009,16.2,8.216,24.82,10.561,1.953.531,3.908,1.047,5.865,1.563,15.822,4.174,28.932,7.752,41.09,19.518,6.444,6.236,11.267,13.881,16.01,21.423.7,1.111,1.4,2.223,2.1,3.329,1.269,2,2.561,3.977,3.857,5.955,4.1,6.256,8.239,12.568,11.458,19.333,1.546,3.245,3.141,6.468,4.733,9.691,2.623,5.313,5.245,10.626,7.7,16.02a167.548,167.548,0,0,1,7.823,19.961,71.042,71.042,0,0,1,3.489,19.383c.17,8.915-4.937,17.483-9.288,24.966-.343.59-.689,1.179-1.03,1.77a205.788,205.788,0,0,0-13.3,26.943c-1.867,4.69-3.389,9.53-4.917,14.339-3.973,12.51-8.382,26.842-18.135,36.092-12.685,12.029-30.807,17.579-47.168,22.708-4.41,1.382-8.825,2.762-13.189,4.286-20.4,7.126-42.625,7.354-64,7.6-3.129.037-6.26.072-9.39.131-3.3.062-6.6.433-9.88.8a79.936,79.936,0,0,1-14.029.73c-9.25-.618-18.385-4.243-26.531-8.485-6.242-3.252-12.227-6.983-18.2-10.7-4.133-2.577-8.27-5.154-12.5-7.579-2.519-1.444-5.1-2.793-7.666-4.145-7.9-4.149-16.431-8.575-22.426-15.322-4.779-5.377-5.426-10.806-6.216-17.655l-.07-.608a68.362,68.362,0,0,0-6.258-21.955c-4.339-9.148-8.462-18.042-9.941-28.175-1.043-7.147-.772-14.464-.511-21.658C338.064,322.635,338.207,318.841,338.138,315.052Zm3.271-1.259a98.24,98.24,0,0,1,.488-11.117c1.82-17.849,8.792-33.813,17.728-49.185l1.068-1.836c3.876-6.667,7.767-13.369,10.442-20.628.456-1.239.9-2.485,1.334-3.732,2.184-6.212,4.119-11.626,8.5-16.711a84.243,84.243,0,0,1,10.845-10.354,144.434,144.434,0,0,1,19.669-13.188c5-2.828,10.149-5.45,15.383-7.811a95.586,95.586,0,0,1,20.6-6.5A149.936,149.936,0,0,1,464,170.4c7.283-.643,14.615-.863,21.924-.814,13.642.09,27.058,6.456,39.224,12.129,7.16,3.339,14.454,6.772,22.011,9.115,2.07.641,4.145,1.264,6.221,1.886,14.459,4.335,26.82,8.108,38.279,18.535a99.443,99.443,0,0,1,11.3,12.337,153.015,153.015,0,0,1,11.446,17.028c3.057,5.226,5.867,10.605,8.453,16.08q1.009,2.132,2.023,4.26c3.679,7.726,7.343,15.458,10.544,23.4a147.606,147.606,0,0,1,6,17.676,73.358,73.358,0,0,1,2.61,17.2,51.92,51.92,0,0,1-3.181,17.436,156.164,156.164,0,0,1-7.6,17.7q-1.12,2.3-2.255,4.6c-2.692,5.467-5.444,10.984-7.66,16.665-1.584,4.062-2.918,8.227-4.254,12.376-3.931,12.2-8.228,25.884-18.192,34.561-12.751,11.1-29.567,16.582-45.376,21.786-5.071,1.669-10.151,3.337-15.152,5.208-19.2,7.191-40.251,7.415-60.494,7.65q-2.886.033-5.772.072c-9.641.144-19.468.294-28.982-1.5a91.527,91.527,0,0,1-24.006-8.58c-6.888-3.449-13.551-7.335-20.2-11.214-3.4-1.98-6.792-3.961-10.22-5.885-1.453-.816-2.918-1.606-4.383-2.4-7.337-3.964-15.325-8.233-20.584-14.888-4.235-5.361-4.631-10.5-5.112-17.041l-.077-1.049a58.14,58.14,0,0,0-6.2-21.908,123.225,123.225,0,0,1-6.877-16.845C343.039,342.2,341.582,328.2,341.409,313.793Zm2.974-1.44c-.019-19.548,8.9-34.672,18.554-50.915,1.178-1.981,2.357-3.963,3.519-5.954,3.357-5.75,5.656-12.131,7.92-18.371,2.889-7.966,5.92-16.416,11.184-23.144a77.662,77.662,0,0,1,13.564-13.088,129.8,129.8,0,0,1,30.678-17.2c17.58-7.113,37.4-7.589,56.125-7.5,14.327.07,28.637,6.35,41.622,11.944,5.784,2.491,11.6,5.012,17.555,7.066,1.977.682,3.958,1.347,5.94,2.012,13.4,4.495,26.072,8.779,36.949,18.225,13.063,11.342,23.022,27.5,30.035,43.2,4.612,10.325,9.118,20.663,12.445,31.491,2.509,8.165,4.484,16.977,4.565,25.55.1,10.321-2.9,21.086-6.259,30.771-1.921,5.537-4.072,10.989-6.227,16.44-1.284,3.248-2.574,6.5-3.8,9.767-1.215,3.244-2.314,6.532-3.416,9.817-4.319,12.871-9.048,27.32-19.85,36.262-12.524,10.367-28.627,15.85-43.816,21.072-5.729,1.971-11.474,3.94-17.1,6.2-18.312,7.349-38.565,7.471-58.006,7.592h-.23c-19.835.124-36.771-4.074-54.576-12.85-9.846-4.855-19.461-10.148-29.025-15.534-.832-.469-1.665-.931-2.5-1.394-6.91-3.832-14.435-7.958-19.094-14.532-3.577-5.05-3.9-10.152-4.241-16.107-.027-.465-.052-.93-.081-1.394a51.629,51.629,0,0,0-6.2-21.49c-7.411-14.051-13.317-28.409-15.38-44.264A106.536,106.536,0,0,1,344.382,312.352Zm121.1-88.993c4.022,0,8.043.122,12.063.244,2.793.085,5.587.17,8.379.211,4.988.075,9.988.378,14.953.88a166.864,166.864,0,0,1,20.148,3.25c15.232,3.457,30.584,9.432,42.792,19.374,8.206,6.684,14.979,17.16,16.063,27.846.5,4.908-.471,9.882-1.4,14.686a68.789,68.789,0,0,0-1.536,11.093,121.233,121.233,0,0,0,.36,12.14c.316,4.366.769,8.725,1.216,13.081.307,2.982.613,5.965.883,8.952.83,9.185,1.375,18.71.19,27.882-1.56,12.087-6.156,22.523-15.814,30.186-10.252,8.134-23.467,12.028-35.837,15.725-1.842.551-3.684,1.1-5.521,1.666l-.1.031c-11.452,3.526-23.225,7.153-35.323,7.153h-.016c-15.218,0-30.976-7.792-44.427-14.364l-1.523-.745q-1.063-.519-2.128-1.033c-8.656-4.187-17.933-8.641-23.394-16.926a173.153,173.153,0,0,1-9.805-17.77c-2.59-5.154-5.187-10.329-8.2-15.253-1.558-2.547-3.2-5.046-4.835-7.546-2.036-3.11-4.07-6.221-5.994-9.4a85.227,85.227,0,0,1-7-13.867,35.812,35.812,0,0,1-2.6-14.19,20.139,20.139,0,0,1,.473-3.491c1.857-8.256,8.774-15.44,14.567-21.26q1-1,1.995-1.993a109.009,109.009,0,0,0,9.174-9.871c3.39-4.35,5.476-9.291,7.57-14.337A65.743,65.743,0,0,1,417.19,243.1C428.9,226.275,446.313,223.36,465.48,223.36ZM414.864,314.3c-.189-16.423,10.284-36.324,21.69-47.732,13.53-13.53,30.482-18.585,49.376-18.652l.38,0a94.975,94.975,0,0,1,35.265,6.551c7.978,3.2,16.187,7.93,22.287,14.057,11.077,11.126,10.777,24.146,10.261,38.736-.072,2.018-.144,4.039-.184,6.059-.1,4.93.236,9.894.547,14.814.091,1.455.184,2.91.267,4.365.582,10.128.9,21.383-3.011,30.935a32.054,32.054,0,0,1-5.5,8.982C534.93,385.382,513.676,385.091,497.846,385q-1.75-.01-3.5-.015c-19.089-.024-38.925-8.409-53.451-20.595C425.864,351.777,415.1,334.33,414.864,314.3Zm71.36-62.091A85.683,85.683,0,0,1,514.45,257.1c9.065,3.2,17.947,8.134,24.8,14.942,11.209,11.136,10.876,25.026,10.507,39.662q-.04,1.545-.073,3.088c-.085,3.962.071,7.935.217,11.894q.083,2.246.155,4.493c.278,9.254.244,19.314-3.274,28.023a32.031,32.031,0,0,1-5.068,8.544c-10.091,12.13-28.858,11.923-43.279,11.827q-1.646-.011-3.294-.015c-34.5-.052-73.669-27.493-74.251-64.354-.253-16.066,6.471-31.044,17.658-42.45,12.229-12.47,29.824-20.476,47.379-20.541Zm-.183,4.638a72.726,72.726,0,0,1,12.156,1.045c13,2.208,26.9,8.119,36.285,17.583a34.806,34.806,0,0,1,9.26,17.591c1.621,7.393,1.445,15.059,1.257,22.577-.077,3.02-.034,6.043,0,9.062.156,12.693.41,27.754-7.935,38.182-9.169,11.46-26.071,11.351-39.418,11.283l-2.095-.009c-16.266-.043-33.523-6.327-46.338-16.323-13.269-10.351-22.41-24.994-22.566-42.119-.142-15.431,6.206-29.811,17.021-40.743,11.1-11.216,26.4-18.129,42.258-18.129Zm1.5,30.437c.117,0,.234,0,.351,0a28.651,28.651,0,0,1,20.049,8.591,26.014,26.014,0,0,1,7.432,18.611c-.106,6.551-1.61,13.5-5.643,18.8-4.247,5.588-10.243,7.993-17.182,8.028-8.679.044-18.149-4.082-24.288-10.188-4.52-4.5-7.474-10.184-7.481-16.641a27.487,27.487,0,0,1,8.335-19.37A26.22,26.22,0,0,1,487.544,287.287Zm1.371,4.975a21.329,21.329,0,0,1,14.97,6.26,22.128,22.128,0,0,1,6.745,15.64c0,6.053-2.067,12.64-6.48,16.94a16.709,16.709,0,0,1-12.342,4.689,28.217,28.217,0,0,1-11.775-3.076c-7.062-3.552-13.32-10.245-13.357-18.554-.054-11.623,10.322-21.661,21.819-21.895C488.635,292.263,488.775,292.262,488.915,292.262Zm.107,5h.019a17.034,17.034,0,0,1,16.8,16.593A17.321,17.321,0,0,1,501.1,326.2a13.708,13.708,0,0,1-9.941,4.075h-.034c-8.936,0-18.506-6.927-18.6-16.43a16.227,16.227,0,0,1,4.8-11.635A16.615,16.615,0,0,1,489.022,297.259Zm.884,5.021a10.516,10.516,0,0,1,7.162,3.018,12.1,12.1,0,0,1,3.9,8.289,11.948,11.948,0,0,1-3.574,8.49,9.084,9.084,0,0,1-6.794,2.72,13.41,13.41,0,0,1-8.806-3.806,10.992,10.992,0,0,1-3.51-7.411c-.086-6,5.4-11.056,11.254-11.292C489.659,302.283,489.782,302.279,489.906,302.279Zm-.01,5.1a6.169,6.169,0,0,1,6.08,6.011,5.825,5.825,0,0,1-1.615,4.235,5.75,5.75,0,0,1-4.131,1.738,6.294,6.294,0,0,1-6.315-5.986,5.822,5.822,0,0,1,1.676-4.2,5.975,5.975,0,0,1,4.3-1.8Zm.3,12.711h.038a6.416,6.416,0,0,0,4.647-1.959,6.541,6.541,0,0,0,1.82-4.761,6.907,6.907,0,0,0-6.807-6.718h-.011a6.689,6.689,0,0,0-4.815,2.014,6.545,6.545,0,0,0-1.882,4.726A7.043,7.043,0,0,0,490.2,320.086Zm.8,5.447A9.758,9.758,0,0,0,497.9,322.6a12.014,12.014,0,0,0-.336-17.828,11.218,11.218,0,0,0-8.058-3.208c-6.211.248-12.042,5.675-11.952,12.029.094,6.583,6.82,11.664,13.011,11.935C490.709,325.53,490.851,325.532,490.994,325.532Zm.164,5.473a14.407,14.407,0,0,0,10.458-4.289,18.064,18.064,0,0,0,4.949-12.872,17.786,17.786,0,0,0-17.523-17.313h-.021A17.361,17.361,0,0,0,476.8,301.7a16.951,16.951,0,0,0-5.01,12.156c.1,9.865,10.027,17.15,19.326,17.15Zm1.161,5.519a17.281,17.281,0,0,0,12.338-4.9c4.616-4.5,6.7-11.127,6.7-17.46A22.862,22.862,0,0,0,504.394,298a22.044,22.044,0,0,0-15.914-6.464c-11.857.242-22.589,10.642-22.533,22.623a17.241,17.241,0,0,0,.916,5.446c3.318,9.837,14.844,16.649,24.925,16.91C491.966,336.522,492.142,336.525,492.319,336.525Zm.115,5.524h.12c6.671-.027,12.632-2.223,16.992-7.4,4.609-5.47,6.443-13.113,6.558-20.146a26.734,26.734,0,0,0-7.638-19.131,29.386,29.386,0,0,0-20.56-8.811,26.921,26.921,0,0,0-19.3,8.045,28.227,28.227,0,0,0-8.55,19.888c.008,6.657,3.03,12.515,7.7,17.154A36.357,36.357,0,0,0,492.435,342.048Zm8.446,32.862c12.808,0,28.058-.7,36.754-11.566,8.495-10.618,8.251-25.733,8.093-38.647-.036-3.01-.077-6.025,0-9.034.177-7.063.345-14.22-.946-21.2-1.387-7.5-4.363-14.037-9.78-19.5-9.4-9.484-23.313-15.448-36.331-17.725a73.28,73.28,0,0,0-12.628-1.118h-.114c-16.044,0-31.543,6.992-42.772,18.344-10.953,11.072-17.373,25.633-17.23,41.261a49.415,49.415,0,0,0,5.26,21.688c11.406,22.93,39.252,37.409,64.369,37.475q1.047,0,2.093.01Q499.262,374.909,500.881,374.91Zm1.7,5.406c13.647,0,30.26-.764,39.7-12.108,9.51-11.431,8.868-27.577,8.354-41.551-.146-3.945-.3-7.9-.218-11.853q.034-1.54.074-3.082c.377-14.971.7-28.853-10.723-40.2-6.93-6.884-15.906-11.881-25.071-15.113a86.358,86.358,0,0,0-28.766-4.926c-17.74.063-35.536,8.156-47.894,20.759-11.326,11.547-18.122,26.706-17.866,42.969.3,18.758,10.339,34.948,24.657,46.538,13.8,11.172,32.514,18.5,50.32,18.53q1.645,0,3.29.016C499.815,380.307,501.2,380.317,502.579,380.317Zm-.473,5.424c14.839,0,34.178-.8,44.678-12.846,10.584-12.135,9.374-29.811,8.427-44.806-.309-4.9-.644-9.843-.546-14.754.042-2.016.113-4.032.184-6.048.528-14.88.83-27.923-10.471-39.276-7.43-7.461-17.343-12.658-27.276-15.918a101.014,101.014,0,0,0-31.176-4.9c-19.112.066-36.206,5.186-49.886,18.867-11.511,11.512-22.095,31.678-21.9,48.253.234,20.256,11.1,37.89,26.291,50.634,14.649,12.288,34.671,20.738,53.917,20.763,1.166,0,2.332.009,3.5.016Q499.974,385.737,502.106,385.741ZM486.99,418.49c12.191,0,24-3.658,35.537-7.186l.1-.031q2.755-.842,5.514-1.664c12.481-3.729,25.73-7.641,36.079-15.852,9.825-7.795,14.5-18.366,16.085-30.664,1.166-9.027.668-18.371-.132-27.413-.283-3.2-.612-6.394-.939-9.59-.445-4.335-.894-8.674-1.212-13.02a120.823,120.823,0,0,1-.362-12.106,68.247,68.247,0,0,1,1.525-10.975c.948-4.886,1.918-9.9,1.412-14.9-1.1-10.862-7.984-21.539-16.328-28.335-12.271-9.995-27.7-16.011-43.005-19.5a167.64,167.64,0,0,0-20.285-3.284c-5-.506-10.028-.812-15.05-.888-2.79-.042-5.579-.127-8.368-.211-23.067-.7-46.267-1.312-60.971,19.808a66.2,66.2,0,0,0-6.416,12.75c-2.063,4.973-4.131,9.883-7.472,14.169a108.359,108.359,0,0,1-9.115,9.8q-1.086,1.083-2.169,2.169c-6.679,6.72-14.614,15.028-15.078,25.057-.617,13.3,8.658,27.119,15.71,37.891,1.631,2.493,3.267,4.987,4.823,7.527,3,4.906,5.59,10.064,8.172,15.2a174.522,174.522,0,0,0,9.846,17.845c5.565,8.441,14.875,12.917,23.685,17.181q1.064.514,2.127,1.033l1.522.743c13.572,6.63,29.376,14.439,44.745,14.439ZM346.5,311.3c-.138,21,9.238,38.065,19.07,55.969l.937,1.706a47.231,47.231,0,0,1,6.126,21.084l.063,1.087c.321,5.438.633,10.322,3.641,15.08,5.4,8.553,15.543,14.434,24.4,18.821,3.644,1.805,7.351,3.482,11.056,5.158,3.181,1.437,6.375,2.871,9.5,4.43a179.788,179.788,0,0,0,26.564,11.116,103.547,103.547,0,0,0,30.814,4.929h1.169c17.4,0,34.963-1.2,51.112-8.286,6.233-2.734,12.658-5.049,19.055-7.364,13.956-5.047,28.508-10.28,40.32-19.507,12.555-9.806,18.265-27.38,23.114-42.005.428-1.29.853-2.579,1.287-3.866a272.818,272.818,0,0,0,8.9-32.067,129.207,129.207,0,0,0,2.931-25.686c0-15.281-3.754-31.144-9.364-45.3-6.847-17.28-17.9-35.463-32.29-47.476-10.825-9.034-24.052-13.891-37.12-18.655-1.792-.653-3.584-1.307-5.372-1.973-3.689-1.372-7.344-2.837-11-4.3-14.356-5.743-29.833-12.029-45.487-12.071q-1.876,0-3.754-.014c-17.579-.083-35.866-.182-52.423,6.543a129.39,129.39,0,0,0-14.645,7.061,93.852,93.852,0,0,0-17.971,12.82,56.676,56.676,0,0,0-7.454,8.358c-4.337,6.039-6.634,13.324-8.858,20.339-1.847,5.827-3.733,11.8-6.783,17.129-2.981,5.2-6.428,10.126-9.866,15.034-8.983,12.818-17.287,24.728-17.662,40.953Zm.74-.942c.373-16.008,8.663-27.894,17.53-40.545,3.453-4.926,6.91-9.865,9.9-15.09,3.081-5.378,4.982-11.389,6.845-17.27,2.2-6.927,4.478-14.178,8.756-20.136a56.748,56.748,0,0,1,7.854-8.711,94.217,94.217,0,0,1,17.618-12.417,128.934,128.934,0,0,1,14.282-6.861c14.629-5.941,30.7-6.508,46.291-6.508q2.929,0,5.855.018,1.877.01,3.755.015c15.527.042,31,6.331,45.218,12.019,3.661,1.464,7.321,2.932,11.016,4.305,1.79.666,3.583,1.319,5.377,1.974,12.968,4.729,26.162,9.563,36.9,18.529,12.942,10.8,23.081,26.591,29.829,41.9,6.806,15.437,11.565,33.366,11.56,50.315a128.473,128.473,0,0,1-2.929,25.606,272.525,272.525,0,0,1-8.866,31.915q-.65,1.935-1.286,3.872c-4.79,14.456-10.484,31.979-22.874,41.66-11.73,9.162-26.249,14.38-40.118,19.4-6.412,2.32-12.852,4.641-19.1,7.381-16.413,7.2-34.312,8.273-51.987,8.223a102.852,102.852,0,0,1-30.662-4.917,179.257,179.257,0,0,1-26.395-11.051c-3.131-1.564-6.333-3-9.522-4.443-3.52-1.591-7.037-3.183-10.505-4.886-8.88-4.363-19.225-10.251-24.638-18.817-2.941-4.654-3.213-9.4-3.53-14.735l-.065-1.09a47.891,47.891,0,0,0-6.211-21.39l-.937-1.706c-9.726-17.716-19.115-34.792-18.981-55.607ZM475.433,454.308l.912,0h.23c19.556-.082,39.842-.25,58.27-7.644,5.613-2.253,11.346-4.217,17.064-6.183,15.292-5.257,31.431-10.757,44.045-21.2,10.947-9.062,15.7-23.548,20.072-36.59,1.1-3.277,2.2-6.556,3.408-9.793,1.224-3.267,2.508-6.512,3.79-9.755,2.242-5.67,4.482-11.342,6.462-17.108,3.293-9.584,6.179-20.176,6.082-30.376-.08-8.43-1.972-17.076-4.4-25.117-3.351-11.086-7.956-21.658-12.671-32.214-7.055-15.792-17.079-32.038-30.218-43.448-10.982-9.536-23.678-13.831-37.2-18.366-1.979-.663-3.96-1.328-5.933-2.009-5.943-2.05-11.734-4.562-17.505-7.047-13.1-5.643-27.445-11.932-41.905-12-18.832-.091-38.713.394-56.4,7.552a130.388,130.388,0,0,0-30.908,17.351,78.3,78.3,0,0,0-13.633,13.164c-5.326,6.807-8.375,15.292-11.3,23.345-2.247,6.192-4.536,12.549-7.865,18.253q-1.743,2.983-3.515,5.949c-9.745,16.4-18.676,31.544-18.657,51.286a107.316,107.316,0,0,0,.893,13.934c2.091,15.874,8.014,30.26,15.437,44.331a50.947,50.947,0,0,1,6.112,21.195q.041.7.081,1.391c.355,6.136.679,11.273,4.374,16.484,4.689,6.62,12.385,10.894,19.333,14.749q1.25.693,2.5,1.392c9.576,5.392,19.2,10.69,29.062,15.552C439.04,450.054,455.826,454.308,475.433,454.308Zm-9.249,3.775c2.645,0,5.289-.039,7.935-.078q2.885-.043,5.769-.073c20.352-.236,41.435-.467,60.742-7.695,4.991-1.868,10.062-3.534,15.124-5.2,15.925-5.243,32.777-10.74,45.628-21.929,10.11-8.8,14.415-22.521,18.4-34.886,1.334-4.135,2.66-8.285,4.238-12.335,2.2-5.661,4.954-11.16,7.636-16.608q1.2-2.432,2.386-4.869c5.13-10.571,10.928-23.224,10.724-35.19a73.57,73.57,0,0,0-2.54-17.014,145.142,145.142,0,0,0-5.886-17.531c-3.26-8.159-7.021-16.1-10.795-24.026q-1.015-2.127-2.025-4.259c-2.633-5.565-5.492-11.033-8.609-16.342a153.028,153.028,0,0,0-11.673-17.274,99.52,99.52,0,0,0-11.094-12.054,69.408,69.408,0,0,0-22.4-13.4c-5.289-2.044-10.731-3.671-16.159-5.3-2.074-.621-4.146-1.242-6.214-1.883-7.522-2.333-14.791-5.756-21.919-9.08-12.289-5.729-25.738-12.1-39.526-12.2-7.355-.05-14.734.173-22.062.822a150.124,150.124,0,0,0-16.621,2.349,96.217,96.217,0,0,0-20.68,6.534c-5.31,2.393-10.538,5.058-15.6,7.934a144.134,144.134,0,0,0-19.914,13.413,84.164,84.164,0,0,0-10.633,10.193c-4.419,5.126-6.442,10.7-8.638,16.944-.436,1.243-.873,2.486-1.329,3.722-2.67,7.245-6.522,13.86-10.387,20.514L359,253.127c-8.942,15.391-15.936,31.378-17.8,49.243a98.5,98.5,0,0,0-.514,11.43c.173,14.442,1.63,28.473,6.05,42.28a123.924,123.924,0,0,0,6.956,17.06,57.413,57.413,0,0,1,6.128,21.641l.077,1.046c.492,6.74.9,11.906,5.267,17.439,5.343,6.763,13.347,11.046,20.809,15.078,1.461.79,2.922,1.578,4.371,2.391,3.423,1.922,6.817,3.9,10.209,5.879,6.666,3.885,13.343,7.779,20.244,11.238a92.222,92.222,0,0,0,24.2,8.644A114.471,114.471,0,0,0,466.184,458.083Zm-15.058,5.443a102.161,102.161,0,0,0,11.222-.828c3.26-.361,6.532-.731,9.814-.793,3.128-.059,6.256-.094,9.384-.13,21.473-.249,43.739-.483,64.234-7.641,4.357-1.522,8.763-2.9,13.166-4.281,16.5-5.173,34.653-10.736,47.452-22.874,9.882-9.372,14.308-23.733,18.329-36.4,1.522-4.793,3.036-9.619,4.9-14.293a204.282,204.282,0,0,1,13.252-26.847c.341-.59.685-1.178,1.027-1.767,4.447-7.635,9.567-16.236,9.393-25.347a71.394,71.394,0,0,0-3.419-19.245,165.383,165.383,0,0,0-7.727-19.87c-2.528-5.576-5.236-11.067-7.944-16.558-1.59-3.22-3.186-6.438-4.73-9.681a167.124,167.124,0,0,0-11.5-19.418c-1.294-1.976-2.591-3.952-3.86-5.946q-1.056-1.66-2.1-3.327c-4.782-7.6-9.62-15.273-16.114-21.559-12.293-11.9-25.421-15.48-41.409-19.7-1.955-.516-3.909-1.033-5.859-1.562-8.562-2.331-16.785-6.528-24.685-10.509-11.728-5.91-24.589-12.5-38-12.5h-.01c-19.837,0-41.334,2.153-59.555,10.525-7.245,3.328-13.949,7.776-20.577,12.169-1.934,1.28-3.865,2.563-5.815,3.818-1.264.814-2.534,1.617-3.8,2.42-7.082,4.478-14.314,9.05-20.083,15.206-4.646,4.958-6.755,10.685-9.021,16.931-.644,1.775-1.289,3.55-1.994,5.3-2.764,6.878-6.714,13.037-10.7,19.244q-1.35,2.1-2.685,4.208A89.95,89.95,0,0,0,339.464,284.3a153.382,153.382,0,0,0-2.053,30.764c.07,3.776-.074,7.556-.211,11.33-.264,7.244-.533,14.592.518,21.79,1.493,10.223,5.627,19.152,10,28.382a67.5,67.5,0,0,1,6.193,21.728l.07.606c.811,7.068,1.461,12.5,6.394,18.055,6.074,6.835,14.631,11.283,22.632,15.483,2.563,1.346,5.129,2.691,7.641,4.131,4.22,2.418,8.349,4.992,12.475,7.564,5.985,3.731,11.985,7.472,18.245,10.732,8.237,4.291,17.464,7.941,26.818,8.565C449.169,463.5,450.147,463.526,451.126,463.526Zm-4.34,5.547a70.423,70.423,0,0,0,12.431-1.491,72.1,72.1,0,0,1,11.427-1.447q4.778-.083,9.556-.13c23.815-.278,48.3-.563,71.152-8.083,3.415-1.124,6.854-2.178,10.292-3.234,16.869-5.179,36.174-11.065,48.925-23.875,9.927-9.974,14.578-24.65,18.845-37.76,1.505-4.624,3.008-9.263,4.778-13.794a134.106,134.106,0,0,1,14.542-27.25q.689-1,1.384-2c5.1-7.349,11.139-15.968,10.949-25.288-.206-9.955-4.307-19.9-8.4-28.834-.842-1.837-1.7-3.667-2.561-5.5q-.84-1.787-1.673-3.579c-1.875-4.047-3.621-8.155-5.365-12.26-2.914-6.857-5.834-13.751-9.365-20.318a175.816,175.816,0,0,0-10.5-16.466c-2.209-3.2-4.419-6.4-6.5-9.684-1.342-2.118-2.64-4.265-3.936-6.413-3.929-6.519-7.908-13.108-13.091-18.726-12.856-13.932-27.524-17.282-45.235-21.183q-1.37-.3-2.74-.606c-9.813-2.177-19.148-7.177-27.991-11.855-11.6-6.138-24.3-12.96-37.744-12.96h-.041c-20.949,0-44.416,2.78-63.136,12.828a171.629,171.629,0,0,0-16.415,10.488c-3.047,2.114-6.1,4.228-9.22,6.227-2.2,1.406-4.443,2.739-6.687,4.071-6.371,3.786-13,7.705-18.2,13.056-4.758,4.9-7.1,11.125-9.426,17.4-.837,2.262-1.677,4.526-2.641,6.74-2.95,6.776-7.158,12.611-11.466,18.564-1.386,1.916-2.772,3.832-4.115,5.777-12.129,17.569-11.751,36.965-11.152,57.224.072,2.441.144,4.886.191,7.327a144.762,144.762,0,0,1-.724,14.651c-.57,6.932-1.156,13.985-.437,20.929,1.037,10.016,4.885,18.537,9,27.569l.4.868c2.318,5.1,3.456,10.879,4.564,16.343,1.72,8.494,3.551,17.891,9.8,24.34,6.008,6.2,14.277,10.362,21.909,14.259,2.935,1.5,5.879,3,8.739,4.637,6.139,3.519,12.049,7.427,17.948,11.329,4.277,2.829,8.557,5.658,12.927,8.343,8.539,5.247,18.327,9.61,28.514,9.761Q446.537,469.073,446.787,469.072Zm-2.893,5.91c.4,0,.792-.007,1.188-.023a61.212,61.212,0,0,0,11.955-2.073,56.145,56.145,0,0,1,12.7-2.07l3.759-.029c27.589-.212,55.733-.434,82.344-8.673q2.682-.83,5.368-1.644c18.358-5.59,38.886-11.848,52.709-25.878,10.512-10.667,15.7-26.212,20.463-40.127,1.5-4.386,2.994-8.785,4.687-13.1a118.713,118.713,0,0,1,9.756-19.7q2.81-4.5,6.056-8.7l1-1.3C661.631,344.19,668,336.047,667.8,326.12c-.241-12.3-6.541-25.01-11.869-35.893q-1.106-2.256-2.2-4.517c-1.947-4.054-3.706-8.2-5.467-12.335a179.214,179.214,0,0,0-9.6-20.2,171.3,171.3,0,0,0-10.368-15.167c-2.849-3.867-5.708-7.738-8.294-11.788-2.074-3.246-3.985-6.594-5.893-9.939a134.272,134.272,0,0,0-10.754-16.846c-12.354-15.673-27.3-18.712-45.815-22.261q-2.233-.429-4.467-.864c-10.348-2.034-20.113-7.427-29.3-12.445C512.2,157.544,499.648,150.6,486.107,150.6h-.18c-20.724.094-44.865,2.747-63.255,13.036A140.021,140.021,0,0,0,407.709,173.8c-3.228,2.4-6.462,4.808-9.825,7.019-3.128,2.057-6.409,3.893-9.671,5.726-6.716,3.773-13.777,7.713-19.136,13.338-4.994,5.243-7.6,11.816-10.185,18.443-1.174,3-2.352,6.018-3.768,8.918-3.193,6.535-7.7,11.988-12.308,17.549-1.642,1.981-3.284,3.965-4.866,6a48.152,48.152,0,0,0-9.8,24.766c-1.011,8.568-.35,17.274.292,25.848.379,5.063.76,10.137.821,15.216a135,135,0,0,1-1.2,16.664,126.522,126.522,0,0,0-1.188,18.8c.385,10.538,3.627,19.152,8.037,28.623a123.636,123.636,0,0,1,8.843,25.579c1.668,7.518,3.721,13.167,9.589,18.411,6.325,5.651,14.136,9.564,21.663,13.354,3.469,1.747,6.948,3.495,10.315,5.432a238.479,238.479,0,0,1,19.853,13.265c4.7,3.374,9.4,6.749,14.274,9.869C426.676,471.249,435.17,474.984,443.894,474.983Zm2.684,33.585c5.862,0,11.732-.525,17.568-1.035,5.743-.5,11.5-1,17.27-1.043,12.358-.083,24.62-2.939,36.6-5.719,3.752-.872,7.506-1.746,11.277-2.535q19.833-4.148,39.879-7.211a86.676,86.676,0,0,0,26.074-8.677c12.546-6.388,23.816-15.3,33.73-25.244,17.232-17.281,28.646-40.529,38.567-62.52,2.825-6.262,5.218-12.708,7.609-19.145,2.1-5.65,4.2-11.308,6.591-16.843,5.1-11.775,9.973-23.957,9.895-37-.074-12.307-4.969-24.308-9.51-35.573-.966-2.4-1.937-4.789-2.861-7.2-1.435-3.747-2.633-7.584-3.829-11.412-2.722-8.711-5.491-17.526-10.936-24.99-3.648-5-8.166-9.28-12.643-13.524-4.885-4.627-9.844-9.328-13.611-14.947-4.7-7.016-7.121-15.169-9.492-23.186-1.173-3.97-2.348-7.951-3.809-11.828-9.875-26.2-32.451-30.707-57.106-35.5l-.884-.172C555.338,141,544.182,136.33,533.3,131.8c-15.09-6.285-30.746-12.822-47.365-12.875-10.861-.035-21.5,2.861-31.893,5.7-2.247.613-4.492,1.227-6.747,1.812-2.651.689-5.325,1.3-7.995,1.9-9.266,2.106-18.6,4.254-26.632,9.595-4.788,3.184-8.755,7.356-12.688,11.507-3.868,4.085-7.794,8.218-12.5,11.357a109.709,109.709,0,0,1-13.393,7.253c-8.308,4.01-16.208,7.918-22.241,15.17-5.366,6.451-8.135,14.112-10.9,21.9-1.964,5.53-3.952,11.107-6.929,16.189-4.043,6.9-10.118,10.934-16.629,15.225a102.779,102.779,0,0,0-9.2,6.566,38.347,38.347,0,0,0-9.392,11.59c-5.616,10.539-6.7,23.382-6.784,35.126-.034,4.986.119,9.968.275,14.95.126,4.062.259,8.13.249,12.194-.025,8.991,2.184,17.837,4.347,26.5,1.077,4.318,2.16,8.645,2.973,13.022.989,5.332,1.67,10.718,2.35,16.1a201.452,201.452,0,0,0,3.743,22.639c5.013,20.49,19.394,46.054,38.506,56.261a143.386,143.386,0,0,0,18.89,7.878c7.825,2.836,15.8,5.726,22.861,10.205,6.517,4.133,11.191,9.852,16.007,15.76a110.193,110.193,0,0,0,9.7,10.872C421.96,505.651,433.167,508.568,446.578,508.568Zm3.408,5.955c5.92,0,11.833-.422,17.736-.838,5.635-.4,11.287-.8,16.94-.837,11.482-.073,22.917-3.56,33.832-6.858,4.493-1.357,8.994-2.721,13.548-3.864a357.1,357.1,0,0,1,38.988-7.178c23.959-3.262,43.958-17.328,60.666-34.075a150.994,150.994,0,0,0,23.942-31.758c4.7-8.215,8.692-16.811,12.682-25.386,1.3-2.791,2.6-5.582,3.922-8.362,4.581-9.625,8.172-19.662,11.752-29.689.814-2.282,1.625-4.566,2.452-6.845,4.456-12.288,8.367-25.344,8.284-38.531-.079-12.311-4.849-24.472-9.243-35.825-1.037-2.68-2.074-5.362-3.058-8.061-1.393-3.816-2.536-7.718-3.677-11.615-2.661-9.08-5.349-18.075-10.981-25.843-3.565-4.918-7.978-9.148-12.35-13.334-4.9-4.691-9.9-9.477-13.61-15.2-4.477-6.914-6.823-14.938-9.1-22.776-1.217-4.184-2.442-8.38-4-12.454a49.346,49.346,0,0,0-24.245-27.112c-8.231-4.307-17.459-6.919-26.455-9.091-3.018-.73-6.048-1.414-9.076-2.1-10.794-2.438-21.262-6.478-31.573-10.438-16.455-6.321-33.537-12.908-51.434-12.8-10.373.062-20.433,3.156-30.251,6.183-2.414.743-4.827,1.487-7.253,2.189-3.787,1.094-7.641,1.961-11.486,2.828-8.61,1.941-17.41,3.929-25.15,8.35-5.683,3.243-10.22,7.87-14.745,12.515a81.758,81.758,0,0,1-11.854,10.675,100.026,100.026,0,0,1-14.584,7.84c-8.486,3.966-16.468,7.807-22.6,15.185-5.517,6.636-8.276,14.51-11.038,22.543-2.029,5.9-4.084,11.848-7.3,17.229-4,6.682-10.246,10.775-16.606,14.957a90.132,90.132,0,0,0-10.385,7.558,40.9,40.9,0,0,0-7.75,9.281c-10.11,16.458-9.561,39.559-9.176,58.258.053,2.587.108,5.174.13,7.762.08,9.03,3.242,17.713,6.287,26.1,1.629,4.481,3.269,8.986,4.468,13.6,1.961,7.556,2.668,15.354,3.363,23.107.512,5.708,1.026,11.428,2.042,17.073a84.7,84.7,0,0,0,5.713,18.339,103.746,103.746,0,0,0,10.478,18.7c6.249,8.838,14.347,17.174,23.96,22.323,6.027,3.227,12.559,5.475,19,7.7,7.8,2.689,15.8,5.442,22.78,9.933,6.314,4.064,11.073,9.956,15.729,15.738a103.33,103.33,0,0,0,10.2,11.455C421.407,511.672,434.854,514.523,449.986,514.523Zm3.48,5.933c6.059,0,12.113-.339,18.161-.675,5.333-.3,10.676-.6,16.019-.652,10.662-.108,21.2-4.147,31.066-7.88,4.273-1.616,8.558-3.244,12.925-4.591,13.2-4.073,26.845-6.171,40.506-8.02a94.687,94.687,0,0,0,15.681-3.468c18.351-5.763,33.364-17.044,46.8-30.529a156.249,156.249,0,0,0,24.621-31.968,213.368,213.368,0,0,0,9.869-20.361c2.3-5.194,4.589-10.4,7.193-15.45a206.983,206.983,0,0,0,18.037-47.822A130.736,130.736,0,0,0,698,319.112c-.079-12.141-4.625-24.181-8.822-35.439-1.184-3.176-2.364-6.353-3.462-9.56-1.352-3.946-2.411-7.989-3.464-12.024-2.139-8.2-4.322-16.414-8.851-23.686-3.767-6.049-8.8-11.129-13.793-16.158-4.866-4.9-9.8-9.874-13.5-15.746-4.3-6.813-6.722-14.569-9.1-22.2-1.362-4.368-2.73-8.749-4.456-12.991-5.079-12.487-13.613-21.482-25.388-28a102.611,102.611,0,0,0-17.291-7.354c-6.278-2.092-12.69-3.8-19.1-5.451-9.545-2.461-18.87-5.8-28.146-9.116-18.232-6.511-37.08-13.244-56.7-13.006-10.252.124-20.1,3.551-29.674,6.881-3,1.043-6,2.087-9.029,3.035-4.638,1.453-9.405,2.48-14.152,3.506-8.424,1.821-16.984,3.681-24.634,7.814-5.879,3.177-10.652,7.776-15.408,12.387A88.429,88.429,0,0,1,381.058,152.3a103.9,103.9,0,0,1-14.448,7.64c-8.55,3.958-16.7,7.824-22.889,15.221-5.615,6.709-8.42,14.721-11.221,22.864-1.989,5.783-4,11.617-7.086,16.928-4.1,7.059-10.37,11.448-16.915,16.022a94.009,94.009,0,0,0-10.926,8.463,44.587,44.587,0,0,0-5.948,6.928c-13,18.654-12.656,46.532-12.33,68.379l.034,2.312c.137,9.231,4.342,17.9,8.272,26.057a116.782,116.782,0,0,1,6.125,14.271c2.785,8.538,3.086,17.175,3.382,26.064.157,4.729.318,9.462.856,14.167,1.346,11.766,6.172,23.656,12.289,33.729,7,11.538,17.23,23.124,29.177,29.68,6.015,3.3,12.551,5.589,19.01,7.851,7.769,2.72,15.726,5.506,22.644,10.059,6.152,4.048,10.923,9.749,15.6,15.347a109.633,109.633,0,0,0,10.34,11.273C420.326,517.587,436.138,520.456,453.467,520.456Zm2.894,5.9c6.171,0,12.338-.286,18.5-.571,5.087-.236,10.176-.472,15.268-.53,10.366-.117,20.417-4.8,29.669-9.044,4.585-2.1,9.21-4.238,13.979-5.891,11.907-4.128,24.537-6,36.956-7.853l1.742-.26c7.753-1.157,15.6-2.411,23.076-4.81a68.47,68.47,0,0,0,11.2-4.689c11.563-6.128,21.809-15.084,31.011-24.293,9.694-9.7,18.712-20.553,25.044-32.782,2.832-5.472,5.244-11.15,7.647-16.82a203.143,203.143,0,0,1,9.233-19.765c13.72-24.625,22.1-52.6,21.937-80.914-.07-12-4.446-23.912-8.5-35.083-1.162-3.206-2.332-6.412-3.406-9.65-1.489-4.483-2.578-9.088-3.666-13.678-1.981-8.353-3.995-16.725-8.3-24.25-3.61-6.314-8.58-11.608-13.54-16.867-4.266-4.525-8.574-9.1-11.973-14.333-4.628-7.127-7.514-15.109-10.365-23.06-1.678-4.684-3.36-9.376-5.408-13.914-11.719-25.963-37.454-35.357-62.945-42.776-7.661-2.23-15.221-4.794-22.776-7.356-20.939-7.1-42.435-14.37-64.829-14.048-10.181.147-19.82,3.882-29.182,7.512-3.548,1.377-7.1,2.757-10.719,3.952a131.107,131.107,0,0,1-16.664,3.933c-7.237,1.378-14.551,2.779-21.358,5.7-7.285,3.121-13.065,8.223-18.9,13.434a100.231,100.231,0,0,1-12.7,10.153,119.886,119.886,0,0,1-13.735,7.158c-8.677,4.057-17.228,8.11-23.562,15.577-5.75,6.78-8.721,15.014-11.664,23.26-2.183,6.122-4.4,12.326-7.8,17.9-4.063,6.651-9.954,11.132-16.06,15.769a95.352,95.352,0,0,0-11.245,9.5c-9.941,10.319-14.621,24.388-17.005,38.235-2.372,13.764-2.559,27.979-2.326,41.909.159,9.449,5.283,17.94,9.986,25.822a100.96,100.96,0,0,1,7.328,13.822c3.844,9.576,3.7,19.155,3.528,29.272-.076,4.455-.15,8.912.123,13.361.81,13.214,6.541,26.779,13.623,37.815,7.133,11.12,17.024,21.916,28.54,28.578,6.108,3.534,12.746,6.021,19.336,8.485,7.175,2.684,14.441,5.407,20.966,9.486,6.593,4.123,11.815,9.918,16.967,15.653a109.235,109.235,0,0,0,12.645,12.615C420.747,523.788,438.072,526.353,456.361,526.353Zm3.165,5.581c5.888,0,11.774-.2,17.659-.407,4.893-.169,9.789-.336,14.687-.378,10.124-.089,19.442-5.111,28.148-9.758a129.874,129.874,0,0,1,13.211-6.435c11.26-4.457,23.472-6.519,35.364-8.547,1.712-.291,3.423-.579,5.133-.882l.378-.067c11.912-2.109,23.627-4.143,34.781-9.05,12.475-5.488,22.732-14.676,32.263-24.212,9.836-9.841,18.955-20.543,24.814-33.286,2.122-4.618,4.035-9.326,5.946-14.034,3.657-9.011,7.334-18.008,12.467-26.307,2.2-3.559,4.369-7.139,6.377-10.811a108.073,108.073,0,0,0,5.552-11.647,89.623,89.623,0,0,0,4.146-13.266,200.455,200.455,0,0,0,5.3-45.392c-.041-11.887-4.288-23.582-8.261-34.651-1.139-3.175-2.279-6.351-3.334-9.554a148.146,148.146,0,0,1-3.976-15.979c-1.724-8.213-3.488-16.514-7.265-24.075-3.585-7.175-8.861-13.2-14.124-19.167A119.507,119.507,0,0,1,657.5,199.837c-4.287-6.682-7.31-14.056-10.3-21.378-2.1-5.145-4.213-10.3-6.77-15.243-13.558-26.211-40.837-36.836-67.3-45.444-3.75-1.219-7.493-2.467-11.234-3.714-14.85-4.952-29.79-9.963-45.157-13.072a148.565,148.565,0,0,0-30.8-3.142c-10.169.09-19.637,4.107-28.837,8.014-3.486,1.48-6.979,2.965-10.545,4.248-6.606,2.375-13.575,3.528-20.476,4.666-7.455,1.23-14.969,2.48-22.04,5.247-7.506,2.937-13.538,7.976-19.619,13.107a116.382,116.382,0,0,1-11.414,8.849,124.222,124.222,0,0,1-14.541,7.717c-8.773,4.176-17.746,8.457-24.229,15.949-5.834,6.743-8.968,15.056-12.048,23.285-2.206,5.892-4.444,11.876-7.712,17.279-4.143,6.849-9.888,11.789-15.892,16.93a106.725,106.725,0,0,0-11.694,11.09c-9.44,10.931-14.371,25.75-16.95,39.743-2.6,14.118-3.172,28.842-2.968,43.17.142,9.943,6.171,18.5,11.628,26.355,3.105,4.469,6.35,9.091,8.592,14.066,4.384,9.728,3.708,19.612,2.992,29.964-.291,4.223-.583,8.452-.524,12.687.212,15.438,5.967,27.006,14.442,39.532,7.749,11.452,16.316,23.29,28.239,30.716,6.239,3.885,13.076,6.669,19.865,9.427,6.991,2.84,14.053,5.714,20.43,9.8,6.278,4.018,11.5,9.361,16.673,14.67a119.045,119.045,0,0,0,13.5,12.491C419.6,529.452,439.134,531.933,459.526,531.933ZM299.2,317.391l.006-.954c.016-4.708-.24-9.434-.477-14.135-.232-4.575-.462-9.153-.52-13.734-.133-10.721.63-22.42,5.5-32.165a35.5,35.5,0,0,1,9.147-11.591c2.629-2.183,5.408-4.162,8.193-6.139,6.7-4.756,12.753-9.119,17.024-16.376a94.4,94.4,0,0,0,6.631-15c2.751-7.358,5.5-14.569,10.609-20.679,5.8-6.931,13.33-10.8,21.241-14.776a115.838,115.838,0,0,0,12.232-6.779c5-3.322,9.181-7.644,13.324-11.948a90.576,90.576,0,0,1,12-11.039c8.322-5.994,18.251-8.188,28.08-10.335,2.14-.468,4.282-.935,6.413-1.444l2.869-.689c11.283-2.717,22.789-5.482,34.469-5.414a55.119,55.119,0,0,1,6.724.457c12.13,1.56,23.85,6.957,34.8,12.166a189.121,189.121,0,0,0,17.629,7.471,118.466,118.466,0,0,0,20.741,5.407c5.83.953,11.688,1.9,17.446,3.222a76.507,76.507,0,0,1,15.562,5.138c11.022,5.213,17.987,13.16,22.435,24.484,1.455,3.71,2.643,7.519,3.83,11.321,2.306,7.377,4.651,14.838,8.895,21.376,3.913,6.029,9.081,11.06,14.211,16.036a122.519,122.519,0,0,1,11.539,12.267c5.852,7.49,8.889,16.446,11.883,25.335,1.226,3.641,2.453,7.284,3.884,10.849.986,2.455,2.018,4.893,3.048,7.331,4.792,11.333,9.927,23.367,10.006,35.861.081,12.745-5.714,24.2-11.384,35.25l-.1.2a188.05,188.05,0,0,0-8.376,20.022c-1.692,4.517-3.384,9.038-5.3,13.465-2.118,4.9-4.287,9.782-6.561,14.613a239.086,239.086,0,0,1-13.561,25.277,123.256,123.256,0,0,1-16.8,21.616,133.831,133.831,0,0,1-28.051,21.658,97.274,97.274,0,0,1-29.661,11.442c-6.015,1.152-12.016,2.382-18.018,3.609-7.224,1.476-14.449,2.952-21.7,4.305-16.722,3.124-33.857,5.7-50.9,5.75a162.833,162.833,0,0,0-17.343,1.292,155.629,155.629,0,0,1-17.045,1.275c-11.345,0-20.737-2.726-29.344-10.519a120.333,120.333,0,0,1-10.167-10.842c-4.682-5.43-9.366-10.816-15.323-14.906-7.423-5.1-15.9-8.391-24.246-11.63a157.73,157.73,0,0,1-18.4-8.05,54.742,54.742,0,0,1-15.357-12.921,102.558,102.558,0,0,1-14.484-23.477,139.491,139.491,0,0,1-6.782-17.845c-3.349-11.107-4.733-22.643-6.1-34.123l-.322-2.7c-.426-3.567-.933-7.126-1.437-10.684C300.5,335.877,299.173,326.615,299.2,317.391Zm.732-.947,0,.953c-.023,9.186,1.3,18.415,2.589,27.494.5,3.562,1.013,7.126,1.439,10.7l.322,2.7c1.364,11.434,2.743,22.939,6.078,34q1.167,3.872,2.567,7.669a126.743,126.743,0,0,0,10.951,22.781c5.665,9.149,13.167,18.159,22.755,23.365a157.272,157.272,0,0,0,18.317,8.011c8.41,3.261,16.914,6.57,24.394,11.707,6.021,4.134,10.731,9.543,15.462,15.029a120.115,120.115,0,0,0,10.1,10.779,38,38,0,0,0,19.8,9.618c8.54,1.436,17.479.392,26.022-.553a163.283,163.283,0,0,1,17.421-1.3c17.245-.054,34.591-2.7,51.507-5.877,7-1.314,13.973-2.739,20.948-4.165,6-1.226,12.008-2.455,18.026-3.605a96.5,96.5,0,0,0,29.484-11.386,133.143,133.143,0,0,0,27.845-21.518,123.079,123.079,0,0,0,16.886-21.785,241.359,241.359,0,0,0,13.591-25.449c2.177-4.646,4.262-9.335,6.3-14.044,1.91-4.419,3.6-8.928,5.288-13.433a190.731,190.731,0,0,1,8.411-20.093l.1-.206c5.591-10.923,11.378-22.339,11.3-34.918-.076-12.363-5.21-24.361-9.953-35.583-1.032-2.44-2.062-4.884-3.047-7.344-1.434-3.578-2.669-7.233-3.9-10.886-2.957-8.795-5.985-17.71-11.774-25.119A121.944,121.944,0,0,0,647.7,231.791c-5.18-5.022-10.373-10.077-14.323-16.163-4.287-6.606-6.646-14.1-8.977-21.554-1.184-3.785-2.371-7.578-3.822-11.271-9.863-25.114-31.028-28.5-54.877-32.392a119.188,119.188,0,0,1-20.835-5.428,189.381,189.381,0,0,1-17.729-7.511c-11.167-5.312-23.18-10.845-35.591-12.221a53.879,53.879,0,0,0-5.626-.332c-11.609-.069-23.074,2.694-34.293,5.394l-2.871.689c-2.136.511-4.283.979-6.428,1.448-9.7,2.117-19.6,4.3-27.809,10.215a89.935,89.935,0,0,0-11.9,10.952c-4.185,4.349-8.389,8.695-13.446,12.051a116.641,116.641,0,0,1-12.308,6.822c-7.882,3.958-15.231,7.683-21.011,14.592-5.043,6.028-7.771,13.208-10.485,20.469a94.953,94.953,0,0,1-6.685,15.117c-4.344,7.381-10.422,11.768-17.229,16.6-2.77,1.966-5.534,3.935-8.15,6.1a34.6,34.6,0,0,0-8.505,10.5c-5.284,9.956-6.035,22.16-5.868,33.222.066,4.393.287,8.781.509,13.169C299.689,306.981,299.945,311.722,299.928,316.444Zm5.85.9.009-.953c.026-5.241-.38-10.524-.753-15.747-.978-13.7-2.251-29.886,3.563-42.7a34.158,34.158,0,0,1,8.663-11.737c2.45-2.148,5.029-4.131,7.614-6.112,6.13-4.7,11.725-9.047,15.889-15.725a93.463,93.463,0,0,0,7.019-14.91c2.817-7.032,5.645-14,10.6-19.856,5.678-6.707,13.142-10.658,20.795-14.647a118.059,118.059,0,0,0,12.178-6.976c4.826-3.3,8.959-7.444,13.063-11.574A107.427,107.427,0,0,1,415.5,146.26c8.621-6.535,19.2-8.732,29.564-10.871,1.656-.341,3.314-.685,4.966-1.045,11.781-2.571,23.786-5.064,35.9-4.884,14.008.21,27.34,6.89,39.588,13.059a154.587,154.587,0,0,0,23.373,9.886,91.75,91.75,0,0,0,14.636,3.3l.085.012c23.424,3.275,43.689,6.077,54.026,30.3,1.534,3.595,2.847,7.278,4.157,10.958,2.617,7.354,5.262,14.72,9.634,21.254,3.843,5.744,8.719,10.678,13.564,15.569a143.8,143.8,0,0,1,10.6,11.512c5.666,7.122,8.747,15.71,11.768,24.177,1.266,3.547,2.537,7.1,4,10.57,1.049,2.481,2.148,4.941,3.246,7.4,5.091,11.4,10.812,23.991,10.73,36.679-.076,11.9-6.124,22.481-12.02,32.407-4.352,7.328-7.417,15.07-10.517,22.975-1.239,3.16-2.481,6.321-3.8,9.449-4.963,11.755-9.972,23.49-16.178,34.659-5.163,9.295-11.259,18.411-18.781,25.971-15.3,15.372-36.277,26.9-57.33,32.091a440.266,440.266,0,0,1-47.7,9.056,329.743,329.743,0,0,1-43.933,3.071,130.624,130.624,0,0,0-17.4,1.5,123.54,123.54,0,0,1-16.082,1.429c-10.241,0-18.509-2.8-26.233-9.755-3.362-3.028-6.469-6.317-9.569-9.607-5.208-5.527-10.419-11.006-16.792-15.224-7.091-4.691-14.956-8.019-22.761-11.311a171.332,171.332,0,0,1-18.615-8.752c-8.064-4.614-14.322-12.212-19.174-20-5.961-9.573-10.176-19.955-14.239-30.428C310.086,381,308,369.435,306.893,358.086,305.574,344.537,305.642,330.942,305.778,317.346Zm.736-.945-.009.952c-.132,13.252-.2,26.5,1.022,39.712,1.073,11.593,3.148,23.448,7.373,34.339,3.933,10.139,8,20.179,13.681,29.5,4.864,7.984,11.194,15.861,19.416,20.564a170.374,170.374,0,0,0,18.535,8.714c7.852,3.312,15.746,6.654,22.881,11.375,6.43,4.254,11.665,9.758,16.919,15.331,3.087,3.276,6.181,6.552,9.527,9.567a35.259,35.259,0,0,0,20.489,9.272c7.048.775,14.255-.209,21.243-1.129a131.156,131.156,0,0,1,17.5-1.5,328.628,328.628,0,0,0,43.85-3.065,439.972,439.972,0,0,0,47.6-9.04c20.931-5.163,41.784-16.614,56.993-31.9,7.7-7.735,13.893-17.126,19.124-26.66,5.976-10.894,10.845-22.305,15.675-33.738,1.319-3.122,2.557-6.277,3.8-9.431,3.12-7.943,6.2-15.715,10.57-23.082,4.547-7.659,9.374-15.962,11.158-24.781a37.626,37.626,0,0,0,.761-7.259c.082-12.542-5.638-25.1-10.671-36.379-1.1-2.463-2.205-4.927-3.258-7.412-1.474-3.482-2.746-7.05-4.015-10.61-2.985-8.372-6.051-16.93-11.649-23.97a144.22,144.22,0,0,0-10.555-11.452c-4.881-4.93-9.777-9.888-13.65-15.677-4.414-6.594-7.076-13.993-9.718-21.414-1.3-3.666-2.609-7.335-4.137-10.916-10.172-23.834-30.427-26.665-53.461-29.869l-.085-.011a92.225,92.225,0,0,1-15.062-3.42,156.529,156.529,0,0,1-23.171-9.84c-12.11-6.1-25.422-12.773-39.272-12.981-.417-.007-.836-.009-1.253-.009-11.626,0-23.176,2.407-34.486,4.874-1.656.362-3.315.7-4.974,1.048-10.218,2.108-20.772,4.295-29.271,10.739a106.8,106.8,0,0,0-11,10.082c-4.141,4.166-8.3,8.336-13.17,11.663a118.865,118.865,0,0,1-12.251,7.02c-7.628,3.976-14.918,7.789-20.576,14.472-4.891,5.775-7.7,12.715-10.482,19.657a94.065,94.065,0,0,1-7.076,15.025c-4.227,6.776-9.85,11.155-16.064,15.918-2.572,1.971-5.139,3.943-7.578,6.08-11.908,10.434-13.224,26.437-12.72,41.238.143,4.206.442,8.4.741,12.6C306.133,305.839,306.54,311.14,306.514,316.4Zm5.667.9.008-.953c.02-5.562-.545-11.2-1.059-16.736-.386-4.159-.772-8.32-.992-12.493-.5-9.388-.229-19.577,3.55-28.337a32.427,32.427,0,0,1,8.044-11.322c2-1.818,4.071-3.561,6.141-5.3,6.391-5.38,12.337-10.433,16.553-17.809a115.581,115.581,0,0,0,5.864-12.461c2.934-6.935,5.888-13.848,10.863-19.614,5.534-6.415,12.78-10.317,20.139-14.23,3.675-1.954,7.358-3.915,10.834-6.21,5.194-3.431,9.733-7.7,14.245-11.965,3.41-3.22,6.831-6.446,10.545-9.32,8.586-6.641,19.371-8.818,29.763-10.918.989-.2,1.978-.4,2.966-.6,11.936-2.464,24.063-4.451,36.288-4.3,13.146.167,25.7,6.811,37.042,12.825q1.247.663,2.5,1.322a133.067,133.067,0,0,0,20.052,8.9,80.172,80.172,0,0,0,15.607,3.528c5.57.679,11.179,1.384,16.684,2.475a70.993,70.993,0,0,1,14.134,4.163c10.337,4.408,17.251,11.357,22.118,21.469,1.749,3.632,3.281,7.364,4.806,11.1,2.677,6.546,5.382,13.11,9.247,19.066,3.833,5.9,8.634,11.077,13.414,16.212,3.4,3.651,6.8,7.312,9.876,11.248,5.6,7.176,8.884,15.934,12.067,24.37,1.417,3.756,2.833,7.525,4.471,11.191.847,1.891,1.713,3.775,2.577,5.658,5.247,11.43,11.226,24.17,11.315,36.933.081,11.62-6.754,21.7-13.052,30.925l-.137.2c-5.28,7.735-8.652,16.017-12.157,24.626-.921,2.262-1.845,4.525-2.8,6.776q-1.537,3.633-3.042,7.28c-7.252,17.47-15.425,37.277-28.922,50.873-15.349,15.46-35.362,24.558-56.088,30.384a295.818,295.818,0,0,1-44,8.6,392.972,392.972,0,0,1-49.153,2.814,104.963,104.963,0,0,0-17,1.77,98.766,98.766,0,0,1-15.547,1.682,33.183,33.183,0,0,1-22.287-7.925c-3.859-3.175-7.455-6.644-11.048-10.112-5.677-5.482-11.368-10.941-18.045-15.216-6.528-4.179-13.6-7.427-20.633-10.653a181.747,181.747,0,0,1-19.066-9.669c-13.715-8.365-20.624-25.575-26.456-39.846-1.231-3.011-2.459-6.026-3.771-9-8.155-18.514-7.5-38.621-6.814-58.358C311.979,325.993,312.13,321.648,312.18,317.3Zm.734-.946-.008.953c-.05,4.351-.2,8.7-.351,13.05-.676,19.6-1.338,39.67,6.752,58.04,1.315,2.983,2.545,6,3.779,9.021,5.741,14.046,12.626,31.243,26.161,39.5a181.427,181.427,0,0,0,18.991,9.63c7.064,3.241,14.163,6.5,20.723,10.7,6.723,4.3,12.439,9.784,18.155,15.3,3.579,3.455,7.164,6.912,11.006,10.074a32.325,32.325,0,0,0,19.43,7.672c5.959.346,11.962-.641,17.828-1.585a105.531,105.531,0,0,1,17.116-1.778,394.275,394.275,0,0,0,49.041-2.81,294.861,294.861,0,0,0,43.91-8.579c20.6-5.789,40.514-14.83,55.77-30.2,7.976-8.032,13.973-18.171,18.926-28.279,3.583-7.317,6.714-14.838,9.838-22.358,1.009-2.432,2.017-4.864,3.044-7.287.953-2.247,1.873-4.507,2.793-6.768,1.412-3.472,2.817-6.95,4.352-10.371a91.833,91.833,0,0,1,7.873-14.383l.138-.2c6.191-9.057,13.011-19.111,12.93-30.516-.089-12.623-6.057-25.329-11.25-36.635-.866-1.886-1.731-3.772-2.577-5.667-1.644-3.679-3.066-7.459-4.486-11.229-3.147-8.351-6.422-17.079-11.96-24.181-3.057-3.92-6.452-7.564-9.837-11.2-4.814-5.167-9.63-10.368-13.488-16.311-3.895-6-6.613-12.593-9.312-19.188-1.52-3.717-3.045-7.435-4.788-11.055-4.206-8.738-10.223-15.369-18.892-19.8-10.143-5.177-22.31-6.544-33.478-7.9A80.972,80.972,0,0,1,545,158.369a135.054,135.054,0,0,1-19.864-8.848q-1.252-.66-2.5-1.323c-11.341-6.016-23.574-12.573-36.71-12.74q-.657-.007-1.315-.008c-11.735,0-23.358,1.924-34.818,4.29q-1.483.306-2.968.6c-10.25,2.072-21,4.235-29.463,10.781-3.695,2.858-7.1,6.069-10.491,9.272-4.545,4.293-9.109,8.586-14.343,12.044-3.5,2.309-7.2,4.282-10.894,6.247-7.333,3.9-14.416,7.671-19.931,14.062-4.91,5.692-7.846,12.574-10.743,19.422a116.055,116.055,0,0,1-5.9,12.539c-4.274,7.478-10.242,12.556-16.716,18.006-2.062,1.736-4.123,3.473-6.12,5.285a31.52,31.52,0,0,0-7.45,10.182c-4.181,9.007-4.419,19.7-3.875,29.45.222,3.978.589,7.948.957,11.914C312.369,305.106,312.936,310.77,312.915,316.358Zm5.39.9.007-.953a168.153,168.153,0,0,0-1.251-17.613c-.167-1.6-.334-3.2-.492-4.8a138.176,138.176,0,0,1-.833-15.346,54.788,54.788,0,0,1,1.961-14.577,35.837,35.837,0,0,1,9.063-15.485c1.882-1.9,3.832-3.733,5.783-5.562,5.618-5.274,10.985-10.335,14.8-17.133a118.059,118.059,0,0,0,5.476-11.65c2.937-6.89,5.885-13.718,10.909-19.4,5.448-6.154,12.61-10.039,19.744-13.881,3.7-1.995,7.42-4,10.915-6.34a135.082,135.082,0,0,0,12.979-10.342c3.635-3.148,7.28-6.3,11.193-9.105,9.3-6.663,21.288-10.307,32.426-12.368a162.722,162.722,0,0,1,19.126-2.3c5.262-.338,10.544-.469,15.818-.406,14.033.165,26.715,6.954,38.793,13.393,10.392,5.54,21.251,11.364,33.051,13.047l2.515.358c21.119,3.014,38.9,5.593,50.227,25.948,2.207,3.967,4.143,8.079,6.076,12.185a141.611,141.611,0,0,0,9.028,17.086,143.594,143.594,0,0,0,11.886,15.122c3.475,4.036,6.956,8.084,10.049,12.425,4.848,6.806,8.042,14.838,11.134,22.561,1.516,3.783,3.034,7.577,4.761,11.268q1.213,2.589,2.453,5.166c5.514,11.511,11.835,24.425,11.962,37.392.107,11.092-6.9,20.48-13.233,28.938a89.227,89.227,0,0,0-8.326,13.612c-2.672,5.326-4.935,10.852-7.217,16.35l-.307.739c-1.43,3.442-2.773,6.92-4.125,10.392-1.24,3.18-2.479,6.362-3.762,9.524-5.277,13.012-11.547,26.514-21.551,36.609-15.331,15.472-35.738,23.281-56.273,29.124a260.873,260.873,0,0,1-42.084,8.113,421.213,421.213,0,0,1-50.394,2.365c-5.142-.036-10.049,1.182-15,2.412a92.391,92.391,0,0,1-10.181,2.124,30.763,30.763,0,0,1-3.994.264c-8.657,0-16.529-3.695-23.305-8.854-4.007-3.053-7.809-6.363-11.606-9.671-5.948-5.186-11.919-10.367-18.648-14.535a187.714,187.714,0,0,0-17.316-9.119c-7.025-3.393-14.108-6.814-20.565-11.224-10.172-6.947-15.395-19.078-19.647-30.186-.619-1.62-1.226-3.243-1.834-4.867-1.574-4.212-3.141-8.449-4.989-12.549-3.412-7.572-6.056-15.238-7.04-23.519a68.69,68.69,0,0,1-.435-9.757c.136-5.668.638-11.326,1.137-16.971C317.695,329.285,318.237,323.269,318.305,317.261Zm.734-.947-.007.953c-.07,6.029-.612,12.064-1.143,18.066-.5,5.629-1,11.272-1.134,16.924a67.961,67.961,0,0,0,.416,9.522c.966,8.255,3.594,15.891,6.993,23.436,1.855,4.116,3.429,8.367,5.009,12.592,4.052,10.843,8.6,23.393,17.211,31.488a33.109,33.109,0,0,0,4,3.221c6.423,4.387,13.485,7.8,20.472,11.17a188.116,188.116,0,0,1,17.382,9.156c6.768,4.19,12.763,9.391,18.744,14.6,3.784,3.3,7.573,6.6,11.568,9.64a45.694,45.694,0,0,0,11.886,6.688,31.673,31.673,0,0,0,11.92,2c.99-.031,1.977-.111,2.958-.241a92.505,92.505,0,0,0,10.1-2.105c4.991-1.239,10.005-2.471,15.185-2.435a421.289,421.289,0,0,0,50.27-2.358,260.219,260.219,0,0,0,42.006-8.093c20.4-5.8,40.724-13.57,55.951-28.936,10.061-10.154,16.341-23.852,21.627-36.943,1.2-2.972,2.363-5.958,3.527-8.943,1.355-3.478,2.721-6.952,4.137-10.405l.3-.738c2.206-5.384,4.415-10.782,7.011-15.991a91.246,91.246,0,0,1,8.624-14.132c6.209-8.289,13.2-17.634,13.088-28.494-.127-12.82-6.441-25.7-11.894-37.086-.824-1.722-1.651-3.442-2.458-5.171-1.731-3.7-3.251-7.512-4.771-11.306-3.07-7.663-6.249-15.658-11.055-22.408-3.078-4.324-6.549-8.356-10.007-12.373a144.475,144.475,0,0,1-11.942-15.2,142.088,142.088,0,0,1-9.078-17.174c-1.927-4.091-3.857-8.188-6.055-12.142-11.143-20.029-28.917-22.617-49.691-25.579l-2.517-.36c-11.909-1.7-22.806-7.537-33.288-13.125-11.937-6.364-24.588-13.142-38.461-13.308q-1.253-.014-2.506-.014c-20.247,0-47.516,2.845-64.431,14.957-3.894,2.788-7.523,5.93-11.139,9.063a135.729,135.729,0,0,1-13.052,10.4c-3.515,2.358-7.253,4.371-10.976,6.376-7.037,3.791-14.168,7.65-19.543,13.723-5,5.65-7.864,12.347-10.785,19.2a119.041,119.041,0,0,1-5.51,11.72c-3.869,6.886-9.254,11.972-14.94,17.306-1.944,1.825-3.888,3.65-5.763,5.545-12.219,12.346-11.543,29.019-9.961,45.07.15,1.518.309,3.035.467,4.551A168.919,168.919,0,0,1,319.04,316.314Zm5.021.906v-.953c-.031-5.851-.649-11.713-1.252-17.529-.978-9.425-2.029-19.22-.411-28.62a40.333,40.333,0,0,1,9.351-20.11c1.9-2.2,3.886-4.313,5.874-6.43,5.192-5.53,10.188-10.877,13.7-17.688,1.616-3.141,2.974-6.407,4.325-9.668,2.825-6.811,5.636-13.467,10.683-18.989,5.315-5.815,12.314-9.644,19.142-13.377,3.382-1.849,6.781-3.7,10-5.823,4.171-2.742,8.082-5.867,11.981-8.979a145.467,145.467,0,0,1,13.519-9.968c18.223-11.379,43.964-13.862,64.956-13.814,13.755.03,26.354,6.944,38.128,13.342,9.822,5.336,20.214,11.031,31.356,12.851q1.6.261,3.194.516c19.906,3.2,36.438,5.969,48.358,24.081,3.063,4.654,5.674,9.587,8.275,14.507,2.558,4.84,5.127,9.693,8.13,14.276,2.955,4.513,6.331,8.741,9.7,12.951a163.41,163.41,0,0,1,10.1,13.552c4.4,6.843,7.58,14.518,10.705,22.006,1.745,4.18,3.49,8.372,5.462,12.45.667,1.382,1.344,2.759,2.02,4.138,5.443,11.1,11.742,23.819,11.924,36.4.154,10.657-6.418,18.949-12.681,26.882q-.619.783-1.232,1.569a82.8,82.8,0,0,0-5.833,8.465,139.161,139.161,0,0,0-9.61,20.221c-1.6,3.993-3.064,8.037-4.535,12.076-5.416,14.881-11.283,31.356-22.6,42.8a72.758,72.758,0,0,1-9.437,8.014,103.827,103.827,0,0,1-21.993,11.642c-8.335,3.333-16.969,5.985-25.571,8.527-29.279,8.651-59.849,9.658-90.157,9.518-4.844-.022-9.337,1.175-13.973,2.422a72.037,72.037,0,0,1-10.323,2.238,27.16,27.16,0,0,1-3.184.182c-9.317,0-17.745-4.593-25.082-9.928-3.537-2.573-6.968-5.289-10.395-8.005a188,188,0,0,0-17.8-13c-4.937-3.044-10.146-5.648-15.33-8.24-7.622-3.815-15.37-7.688-22.155-12.9-9.109-7-12.868-19.086-16.264-29.6a130.043,130.043,0,0,0-5.164-14.173c-4.978-10.876-8.8-20.519-8.687-32.753a166.225,166.225,0,0,1,1.406-17.56A162.032,162.032,0,0,0,324.06,317.22Zm.727-.953v.953a162.841,162.841,0,0,1-1.4,17.606,165.26,165.26,0,0,0-1.4,17.483c-.109,12.093,3.7,21.686,8.621,32.443A130.418,130.418,0,0,1,335.8,399c3.337,10.326,7.079,22.375,16.018,29.248,6.739,5.182,14.459,9.039,22.036,12.83,5.2,2.6,10.43,5.216,15.386,8.273A188.38,188.38,0,0,1,407.119,462.4c3.419,2.709,6.842,5.419,10.37,7.984,8.053,5.856,17.487,10.813,27.755,9.613a71.292,71.292,0,0,0,10.218-2.217c4.68-1.26,9.276-2.469,14.165-2.447,30.229.132,60.745-.86,89.947-9.489,8.712-2.574,17.46-5.26,25.89-8.659A101.433,101.433,0,0,0,607.7,445.218a71.363,71.363,0,0,0,8.565-7.369c11.216-11.343,17.068-27.787,22.441-42.539,1.473-4.047,2.942-8.1,4.543-12.1a141.122,141.122,0,0,1,9.531-20.11,83.621,83.621,0,0,1,6.009-8.756q.617-.786,1.236-1.57c6.109-7.745,12.681-16.011,12.528-26.422-.185-12.575-6.407-24.991-11.855-36.093q-1.016-2.069-2.024-4.144c-1.976-4.09-3.721-8.295-5.471-12.486-3.109-7.446-6.272-15.09-10.645-21.893a163.1,163.1,0,0,0-10.06-13.491c-3.383-4.227-6.77-8.473-9.738-13.007-3.014-4.6-5.593-9.475-8.162-14.335-2.588-4.9-5.19-9.814-8.238-14.446-11.74-17.841-28.262-20.608-47.868-23.764q-1.6-.257-3.194-.517c-11.249-1.837-21.677-7.543-31.587-12.93-11.635-6.321-24.2-13.221-37.783-13.253h-.61c-20.685,0-46.007,2.5-63.958,13.706a144.671,144.671,0,0,0-13.452,9.92c-3.916,3.128-7.844,6.263-12.035,9.019-3.24,2.129-6.654,3.994-10.054,5.852-6.742,3.686-13.712,7.493-18.954,13.23-5.026,5.5-7.734,12-10.547,18.777-1.361,3.28-2.725,6.561-4.352,9.722-3.514,6.823-8.608,12.311-13.812,17.853-1.98,2.109-3.961,4.22-5.854,6.409a39.28,39.28,0,0,0-8.879,17.91c-2.095,9.826-.916,20.371.111,30.267C324.137,304.5,324.757,310.388,324.787,316.267Zm24.607-6.462.028-.953c.641-15.214,10.769-27.387,20.009-38.631,3.376-4.109,6.784-8.238,9.817-12.609,4-5.763,5.9-12.4,7.778-19.064,1.784-6.333,3.6-12.718,7.287-18.255,4.4-6.611,11.016-12.259,17.593-16.619A98.214,98.214,0,0,1,433.682,192.9c13.729-4.741,28.635-4.467,42.972-4.218,3.091.053,6.183.108,9.274.11,10.366.007,20.838,2.444,30.685,5.535,7.637,2.4,15.107,5.268,22.574,8.146l1.188.458,3.011,1.156c13.185,5.052,27.036,10.318,38.118,19.271,12.3,9.942,21.234,24.012,27.055,38.587a123.81,123.81,0,0,1,8.878,46.282c-.081,7.334-.449,14.684-1.112,21.989a208.992,208.992,0,0,1-4.275,27.808c-.864,3.762-1.863,7.5-3.037,11.176-4.766,14.932-11.165,32.994-24.064,42.732-10.87,8.205-23.968,13.023-36.632,17.7-7.193,2.655-14.437,5.318-21.353,8.64-13.907,6.68-28.8,8.751-44.1,8.751q-.966,0-1.933-.01c-21.229-.24-40.828-9.415-59.427-18.76-2.751-1.382-5.57-2.642-8.377-3.908-3.226-1.455-6.451-2.911-9.622-4.485-7.866-3.9-16.753-9.141-21.3-16.937-2.395-4.109-2.688-8.388-2.992-13.008-.061-.917-.121-1.836-.2-2.752a44.457,44.457,0,0,0-6.31-19.8c-1.418-2.418-2.868-4.818-4.318-7.218-7.081-11.723-14.65-24.126-17.663-37.61A53.572,53.572,0,0,1,349.394,309.805Zm.755-.932-.029.952a52.08,52.08,0,0,0,1,11.026c2.237,11.4,7.882,22.029,13.723,31.954,1.372,2.33,2.77,4.646,4.168,6.96,1.451,2.4,2.9,4.8,4.323,7.225a45.663,45.663,0,0,1,6.406,20.106c.079.92.14,1.843.2,2.765.294,4.47.583,8.724,2.895,12.691,4.549,7.8,13.649,13.042,21.532,16.916,2.989,1.469,6.023,2.839,9.059,4.208,2.816,1.269,5.645,2.534,8.405,3.921,18.683,9.386,37.78,18.44,59.108,18.682,15.8.181,31.338-1.764,45.712-8.667,6.939-3.333,14.2-6.006,21.416-8.669,12.584-4.646,25.652-9.448,36.446-17.6,12.766-9.637,19.113-27.659,23.808-42.371,1.194-3.745,2.208-7.551,3.08-11.384a208.751,208.751,0,0,0,4.213-27.582c.652-7.239,1.014-14.526,1.094-21.8a123.071,123.071,0,0,0-8.823-46c-5.776-14.46-14.628-28.428-26.838-38.292-11.005-8.891-24.822-14.138-37.921-19.157q-1.507-.577-3.013-1.157l-1.189-.458c-7.168-2.762-14.339-5.519-21.661-7.855-10.032-3.2-20.753-5.77-31.335-5.776-3.1,0-6.19-.056-9.286-.11-14.235-.249-29.1-.528-42.722,4.178a92.457,92.457,0,0,0-24.97,13.074c-5.1,3.8-10.489,8.718-14.033,14.038-3.665,5.5-5.419,11.754-7.193,18.048-1.905,6.763-3.822,13.433-7.88,19.282-3.043,4.387-6.463,8.532-9.851,12.654C360.892,281.756,350.784,293.89,350.149,308.873Zm2.361-.432.042-.952c.826-14.014,11.316-24.858,20.455-34.527,4.67-4.939,9.541-10.033,13.334-15.687,3.506-5.227,5-11.162,6.471-17.186,1.39-5.675,2.8-11.325,5.944-16.331,3.989-6.345,10.224-11.73,16.422-15.839a84.489,84.489,0,0,1,20.588-9.944c12.194-3.889,25.336-3.395,37.969-2.936,4.063.149,8.127.294,12.192.294h.083a105.258,105.258,0,0,1,23.385,2.914,201.363,201.363,0,0,1,27.942,8.849l1.915.747c6.273,2.444,12.547,4.9,18.668,7.7a99.286,99.286,0,0,1,20.369,11.96c11.54,9.159,19.323,21.47,24.152,35.286,4.662,13.335,6.507,28,6.22,42.085-.066,3.322-.1,6.646-.137,9.968-.09,8.726-.191,17.455-.792,26.165a142.721,142.721,0,0,1-3.585,24.688c-3.767,15.1-11.248,33.329-24.106,42.818-10.119,7.468-22.139,11.859-33.847,16.137-7.807,2.853-15.705,5.729-23.1,9.553a81.774,81.774,0,0,1-38.347,8.963c-.6,0-1.2-.007-1.795-.016q-2.487-.043-4.968-.269A96.467,96.467,0,0,1,452,436.38a269.2,269.2,0,0,1-25.835-12c-2.87-1.474-5.838-2.789-8.782-4.107-10.174-4.559-23.67-10.395-29.2-20.548-2.145-3.939-2.554-8.2-2.944-12.576-.084-.949-.169-1.9-.272-2.843-.834-7.634-3.543-13.869-7.637-20.341-1.583-2.5-3.21-4.978-4.836-7.453-8.661-13.19-19.292-29.133-19.969-45.289Q352.469,309.834,352.51,308.441Zm.768-.92-.042.953c-.5,16.944,10.883,33.954,19.869,47.639,1.628,2.478,3.257,4.957,4.842,7.463,4.163,6.58,6.9,12.891,7.745,20.65.1.952.19,1.906.274,2.859.382,4.286.756,8.434,2.858,12.292,4.158,7.632,12.887,12.656,20.451,16.351,2.776,1.355,5.592,2.619,8.41,3.882,2.956,1.325,5.934,2.644,8.816,4.123A264.178,264.178,0,0,0,452.779,435.9a93.609,93.609,0,0,0,26.513,6.368q1.835.131,3.675.165a84.839,84.839,0,0,0,30.367-4.745,78.075,78.075,0,0,0,9.427-4.121c7.424-3.84,15.345-6.726,23.184-9.59,11.633-4.25,23.619-8.623,33.667-16.039,12.75-9.409,20.12-27.533,23.829-42.409a143.795,143.795,0,0,0,3.617-25.329c.553-8.442.651-16.9.74-25.357.034-3.324.07-6.651.138-9.975.285-14-1.545-28.575-6.178-41.83-4.784-13.681-12.49-25.887-23.918-34.957-6.3-5-13.642-8.887-20.947-12.2-5.88-2.667-11.891-5.015-17.9-7.357l-1.916-.747a200.311,200.311,0,0,0-27.824-8.807,104.941,104.941,0,0,0-23.319-2.905c-4.074,0-8.15-.148-12.221-.3-12.531-.454-25.632-.953-37.721,2.9-13.056,4.163-29.189,13.666-36.615,25.476-3.122,4.966-4.473,10.485-5.851,16.118-1.5,6.131-3.005,12.1-6.576,17.417-3.82,5.692-8.709,10.81-13.409,15.782C364.575,282.941,354.1,293.76,353.278,307.521Zm2.744-.2.052-.952c.874-12.225,10.3-21.831,18.656-29.882q1.39-1.34,2.79-2.669c4.572-4.359,9.356-8.84,13.18-13.879,3.947-5.2,5.437-11.209,6.917-17.429,1.256-5.274,2.524-10.487,5.353-15.186a48.831,48.831,0,0,1,24.5-20.506c8.613-3.435,17.818-4.806,27.025-5.357,6.806-.406,13.622-.209,20.431-.006,3.663.11,7.33.222,10.995.215a116.661,116.661,0,0,1,20.228,1.856,148.144,148.144,0,0,1,21.184,5.367q4.495,1.495,8.887,3.275,2.013.819,4.032,1.626c5.877,2.362,11.753,4.732,17.477,7.45A94.039,94.039,0,0,1,575.22,231.62c11.181,8.7,20.154,23.024,24.3,36.547,2.56,8.351,1.952,17.458,1.4,26.068-.167,2.632-.338,5.266-.408,7.9-.174,6.572.05,13.161.26,19.733.436,13.663.931,27.828-1.792,41.286a87.815,87.815,0,0,1-9,25.024c-3.569,6.436-8.344,12.731-14.331,17.1-9.416,6.872-20.453,10.733-31.355,14.525-7.51,2.611-15.1,5.247-22.177,8.909-11.839,6.127-22.71,10.3-36.232,10.3q-.657,0-1.315-.013c-18.835-.369-37.544-9.983-53.992-18.406q-1.736-.889-3.472-1.775c-2.388-1.217-4.838-2.323-7.276-3.432-9.28-4.221-20.816-9.346-25.831-18.716-1.842-3.444-2.394-7.288-2.93-11.1-.131-.93-.261-1.859-.412-2.786-1.377-8.458-4.576-14.971-9.1-22.12-2.1-3.319-4.337-6.558-6.561-9.795-2.549-3.709-5.1-7.421-7.5-11.229C361.538,330.19,355.591,318.821,356.022,307.32Zm.778-.913-.051.953c-.429,11.513,5.708,23,11.7,32.432,2.3,3.615,4.719,7.144,7.143,10.672,2.23,3.245,4.469,6.491,6.576,9.819,4.589,7.245,7.811,13.817,9.207,22.392.151.931.285,1.866.415,2.8.522,3.7,1.062,7.515,2.85,10.858,4.906,9.168,16.4,14.262,25.491,18.4,2.449,1.113,4.908,2.225,7.306,3.445q1.737.886,3.472,1.775c2.891,1.48,5.782,2.961,8.69,4.406,12.776,6.354,26.622,12.485,41,13.71q1.99.17,3.99.211a62.253,62.253,0,0,0,18.481-2.4,101.69,101.69,0,0,0,18.718-7.8c7.111-3.68,14.726-6.327,22.272-8.952,10.817-3.762,21.821-7.606,31.164-14.424,5.934-4.331,10.656-10.574,14.183-16.959a87.225,87.225,0,0,0,8.868-24.724c2.711-13.393,2.212-27.517,1.777-41.119-.211-6.585-.434-13.188-.261-19.775.07-2.646.243-5.289.411-7.93.541-8.5,1.148-17.571-1.377-25.81-4.107-13.4-12.974-27.565-24.052-36.186a95.108,95.108,0,0,0-18.1-10.646c-5.474-2.564-11.079-4.824-16.685-7.077q-2.019-.812-4.035-1.627-4.283-1.74-8.674-3.2a147.525,147.525,0,0,0-21.143-5.373,116.91,116.91,0,0,0-20.207-1.871c-3.674,0-7.348-.108-11.018-.216-3.892-.115-7.784-.231-11.678-.231-2.9,0-5.8.063-8.689.235-15.479.924-31.524,4.5-43.06,15.566a48.13,48.13,0,0,0-7.891,9.946c-2.779,4.615-4.033,9.795-5.268,14.978-1.514,6.35-3.014,12.39-7.045,17.7A98.287,98.287,0,0,1,381.2,271.3q-1.583,1.53-3.181,3.046-1.3,1.236-2.59,2.477c-6.894,6.633-14.748,14.536-17.576,23.916A26.067,26.067,0,0,0,356.8,306.407Zm3.306.14.051-.951a24.19,24.19,0,0,1,1.191-5.862c2.94-8.825,10.726-16.188,17.449-22.3q1.264-1.15,2.537-2.291c2.393-2.155,4.792-4.31,7.1-6.558a66.285,66.285,0,0,0,6.038-6.607c3.969-5.086,5.484-10.674,7.1-16.776,1.306-4.943,2.617-9.776,5.267-14.206,11.554-19.311,31.172-23.235,52.08-23.621,5.209-.1,10.419.023,15.627.145,3.795.089,7.591.182,11.385.169h.319a136.717,136.717,0,0,1,49.068,9.647q1.683.663,3.368,1.321c5.584,2.181,11.166,4.37,16.605,6.892a87.172,87.172,0,0,1,17.063,10.018c10.344,8.082,18.247,20.777,21.818,33.383,1.938,6.842,1,14.03.1,20.955a97.611,97.611,0,0,0-.986,10.344c-.168,7.23.211,14.515.554,21.737.294,6.189.587,12.383.647,18.58.139,14.437-.926,30.076-7.336,43.254a49.392,49.392,0,0,1-15.236,18.4c-9.736,7.2-21.369,11.2-32.707,15.083a199.713,199.713,0,0,0-19.617,7.493l-.167.078c-10.94,5.093-20.583,9.556-32.939,9.556q-.43,0-.862-.008c-17.993-.3-36.127-9.738-51.818-17.849q-2.46-1.272-4.924-2.537c-1.872-.956-3.775-1.853-5.673-2.751-8.592-4.06-18.844-8.838-23.515-17.585-1.766-3.309-2.522-6.977-3.265-10.618-.307-1.5-.613-3.01-1-4.5-1.825-7.088-5.291-13.183-9.132-19.334-2.373-3.8-4.978-7.474-7.557-11.137-2.392-3.4-4.783-6.8-7.049-10.28-5.887-9.044-12-20.151-11.578-31.288Zm.776-.911-.052.951a37.935,37.935,0,0,0,3.19,15.668,93.875,93.875,0,0,0,8.6,15.68c2.165,3.3,4.437,6.532,6.71,9.762,2.587,3.674,5.2,7.357,7.579,11.17,3.887,6.224,7.374,12.366,9.22,19.538.386,1.5.7,3.017,1,4.533.725,3.557,1.471,7.192,3.195,10.421,4.568,8.558,14.8,13.307,23.183,17.27,1.907.9,3.817,1.8,5.694,2.76q2.468,1.262,4.927,2.539c15.569,8.049,33.659,17.473,51.5,17.768,12.587.209,22.353-4.3,33.482-9.481l.166-.077a200.8,200.8,0,0,1,19.688-7.522c11.253-3.86,22.853-7.834,32.511-14.98a48.53,48.53,0,0,0,14.584-17.314c6.792-13.387,7.853-29.484,7.687-44.25-.069-6.019-.352-12.033-.637-18.047-.345-7.239-.728-14.54-.558-21.787a99.071,99.071,0,0,1,.992-10.423c.887-6.8,1.83-13.946-.072-20.662-3.534-12.467-11.332-25.013-21.565-33.008a88.112,88.112,0,0,0-17.67-10.277c-5.189-2.371-10.5-4.454-15.815-6.53q-1.686-.659-3.371-1.321a135.975,135.975,0,0,0-49.118-9.6c-3.8.01-7.6-.08-11.4-.169-3.844-.09-7.687-.178-11.531-.178-21.718,0-43.324,2.89-55.536,23.3-2.607,4.357-3.9,9.158-5.188,14.019-1.628,6.162-3.224,11.909-7.226,17.038a66.958,66.958,0,0,1-6.066,6.643c-2.324,2.268-4.744,4.441-7.157,6.614q-1.182,1.063-2.359,2.13c-6.882,6.248-15.041,13.911-17.712,23.094a23.246,23.246,0,0,0-.865,4.725Zm4.043.593.043-.952a22.178,22.178,0,0,1,.973-5.168c2.714-8.678,10.591-15.938,17.194-21.829q1.165-1.039,2.335-2.072c2.221-1.965,4.448-3.931,6.592-5.982a60.225,60.225,0,0,0,5.541-5.935c3.865-4.856,5.526-10.183,7.295-16,1.428-4.7,2.859-9.291,5.471-13.5,6.735-10.845,16.278-17.208,28.681-20.082,11.442-2.651,23.778-2.142,35.46-1.716,3.806.138,7.613.278,11.421.311a160.8,160.8,0,0,1,29.358,3.069,150.266,150.266,0,0,1,31.55,9.715,106.629,106.629,0,0,1,22.728,13.352,57.631,57.631,0,0,1,19.665,30.437c1.54,6.131.473,12.262-.625,18.356a69.267,69.267,0,0,0-1.4,11.256c-.107,7.9.549,15.862,1.156,23.729.29,3.771.582,7.541.813,11.316.611,10.042.84,20.381-.766,30.342-2.265,14.049-8.109,25.833-19.6,34.436-9.789,7.327-21.686,11.314-33.156,15.172-4.886,1.645-9.785,3.288-14.569,5.211-1.289.517-2.574,1.044-3.859,1.571-10.144,4.151-19.726,8.031-30.9,8.031-.131,0-.262,0-.392,0-16.575-.132-33.337-8.752-47.822-16.144q-2.059-1.05-4.12-2.095c-1.642-.831-3.306-1.623-4.967-2.417-8.732-4.172-19.032-9.04-23.947-17.826a43.462,43.462,0,0,1-3.522-9.5c-.438-1.541-.876-3.084-1.4-4.6-2.415-7.035-6.141-13.426-10.069-19.7-2.211-3.529-4.625-6.946-7.016-10.354s-4.764-6.8-7.014-10.283C370.4,327.605,364.64,316.972,364.927,306.229Zm.77-.92-.043.952c-.281,10.749,5.665,21.493,11.349,30.229,2.146,3.3,4.4,6.521,6.664,9.742,2.4,3.419,4.82,6.846,7.036,10.386,3.962,6.327,7.707,12.759,10.141,19.853.525,1.529.967,3.085,1.409,4.639a42.874,42.874,0,0,0,3.458,9.345c4.807,8.6,15.066,13.435,23.626,17.526,1.665.8,3.333,1.591,4.982,2.424q2.063,1.042,4.121,2.1c14.36,7.33,31.079,15.937,47.5,16.065,11.221.088,20.828-3.807,31.013-7.975q1.93-.79,3.863-1.573c4.8-1.929,9.71-3.577,14.608-5.225,11.377-3.827,23.242-7.8,32.953-15.065,11.351-8.495,17.1-20.168,19.319-33.969a103.319,103.319,0,0,0,1.2-15.221c.063-5.225-.16-10.454-.487-15.667-.223-3.535-.494-7.067-.767-10.6-.608-7.892-1.266-15.88-1.157-23.8A69.952,69.952,0,0,1,587.89,288.1c1.084-6.04,2.162-11.976.635-18.05a56.838,56.838,0,0,0-19.406-30.041,106.353,106.353,0,0,0-23.075-13.483,149.912,149.912,0,0,0-31.151-9.5,160.019,160.019,0,0,0-28.969-3c-3.814-.032-7.629-.173-11.44-.311-4.615-.169-9.232-.337-13.849-.337-20.168,0-38.216,3.389-49.648,21.792-2.572,4.142-3.987,8.7-5.392,13.326-1.786,5.874-3.527,11.353-7.422,16.244a60.56,60.56,0,0,1-5.568,5.971c-2.163,2.07-4.411,4.054-6.652,6.038q-1.087.96-2.17,1.924c-6.737,6.006-14.987,13.553-17.4,22.556A21.036,21.036,0,0,0,365.7,305.309Zm4.758,1.127.057-.952a21.7,21.7,0,0,1,.792-4.3c2.434-8.428,9.812-15.608,16.038-21.46q1.135-1.067,2.276-2.128a109.158,109.158,0,0,0,10.589-10.746c3.748-4.632,5.611-9.745,7.582-15.264,1.6-4.482,3.2-8.881,5.816-12.9,6.67-10.242,15.9-16.265,27.784-18.976,10.985-2.5,22.825-2.008,34.034-1.6,3.5.129,7.007.258,10.511.3a162.619,162.619,0,0,1,45.246,6.856c12.607,3.853,25.352,9.645,35.725,17.877,9.032,7.169,16.458,18.48,18.1,29.98.754,5.28-.3,10.623-1.3,15.793a67.067,67.067,0,0,0-1.524,10.94c-.109,4.063.047,8.138.3,12.193.277,4.348.673,8.69,1.067,13.03.309,3.4.615,6.806.872,10.214.721,9.535,1.1,19.386-.289,28.875-1.92,13.084-7.188,24.175-17.837,32.332-10.366,7.938-23.324,12.054-35.618,16-3.59,1.153-7.184,2.3-10.739,3.559l-1.421.5c-10.405,3.683-20.677,7.342-31.862,7.342-.137,0-.273,0-.41,0-16.334-.129-33.07-8.69-47.384-15.944q-1.51-.763-3.019-1.528c-1.06-.533-2.124-1.057-3.189-1.581-8.305-4.089-17.569-8.661-22.5-16.9a145.1,145.1,0,0,1-7.835-15.927,137.662,137.662,0,0,0-8.532-17.094c-1.974-3.182-4.1-6.279-6.217-9.37-2.188-3.2-4.377-6.407-6.452-9.685a88.43,88.43,0,0,1-7.843-14.853A36.336,36.336,0,0,1,370.454,306.436Zm.783-.913-.057.954a35.978,35.978,0,0,0,2.926,14.657,90.671,90.671,0,0,0,7.939,14.841c1.978,3.1,4.053,6.138,6.129,9.174,2.119,3.1,4.254,6.207,6.234,9.4a138.454,138.454,0,0,1,8.578,17.183,144.566,144.566,0,0,0,7.794,15.849c4.879,8.165,13.959,12.57,22.194,16.624,1.066.525,2.132,1.049,3.193,1.585q1.513.76,3.023,1.528c14.192,7.192,30.882,15.745,47.061,15.866,11.224.084,21.586-3.6,32.024-7.3l1.421-.5c3.561-1.26,7.161-2.412,10.758-3.565,12.2-3.912,25.122-8.012,35.4-15.882,10.483-8.029,15.671-18.984,17.559-31.86,1.415-9.649.982-19.694.231-29.388-.246-3.179-.532-6.354-.82-9.529-.394-4.357-.791-8.718-1.067-13.084-.256-4.065-.409-8.151-.3-12.225a67.42,67.42,0,0,1,1.536-11.058c.989-5.075,2.032-10.378,1.293-15.552-1.619-11.333-8.936-22.452-17.834-29.512-10.324-8.194-23.006-13.952-35.556-17.779a161.979,161.979,0,0,0-44.972-6.8c-3.51-.042-7.02-.172-10.528-.3-23.205-.851-46.935-1.635-61.183,20.243-2.577,3.958-4.163,8.326-5.74,12.744-1.987,5.565-3.93,10.817-7.7,15.478a109.8,109.8,0,0,1-10.66,10.821q-1.053.982-2.1,1.965c-6.367,5.978-14.128,13.472-16.254,22.235A20.533,20.533,0,0,0,371.237,305.523Zm11.207,2.6.043-.952c.677-10.1,8.9-19,15.377-26.169,2.49-2.752,5.03-5.529,7.26-8.5a71.705,71.705,0,0,0,7.193-12.937,72.154,72.154,0,0,1,7.123-12.844c14.915-19.975,37.753-19.712,60.324-19.394,2.056.029,4.111.058,6.166.07,4.4.026,8.826.263,13.21.655a163.483,163.483,0,0,1,19.7,2.951c15.187,3.259,30.822,9.108,42.806,19.236,7.677,6.49,13.694,16.174,14.684,26.311.492,5.045-.437,10.115-1.343,15.057a73.034,73.034,0,0,0-1.448,11,108.943,108.943,0,0,0,.4,11.641c.336,4.228.809,8.448,1.276,12.664.514,4.639,1.028,9.279,1.389,13.933.943,12.153,1.016,25.813-4.226,37.087a36.591,36.591,0,0,1-10.044,13c-10.583,8.7-24.357,12.326-37.347,15.791l-2.155.575c-11.314,3.019-22.866,5.732-34.644,5.732h-.179c-14.826-.035-29.986-7.086-43.138-13.3l-.447-.211c-9.272-4.381-18.857-8.888-25.1-17.388-4.39-5.978-7.947-12.584-11.466-19.1-1.979-3.665-3.96-7.337-6.1-10.912-1.358-2.271-2.774-4.506-4.185-6.744C390.818,334.688,382.1,321.182,382.444,308.126Zm.769-.92-.042.952a37.176,37.176,0,0,0,2.455,13.462,84.805,84.805,0,0,0,6.586,13.637c1.91,3.3,3.943,6.524,5.977,9.746,1.414,2.241,2.833,4.484,4.193,6.758,2.145,3.584,4.13,7.265,6.115,10.94,3.5,6.485,7.041,13.062,11.411,19.013,6.141,8.361,15.694,12.858,24.825,17.161l.448.211c13.039,6.145,28.145,13.2,42.83,13.231h.176c11.708,0,23.208-2.711,34.456-5.708l2.156-.575c12.864-3.428,26.6-7.035,37.072-15.65,8.852-7.278,12.775-17.29,14.021-28.495.966-8.687.366-17.669-.49-26.346-.282-2.849-.6-5.694-.913-8.538-.47-4.238-.945-8.478-1.281-12.729a108.827,108.827,0,0,1-.4-11.676,73.74,73.74,0,0,1,1.461-11.115c.892-4.864,1.817-9.9,1.334-14.856-.971-9.958-6.891-19.451-14.431-25.826a66.831,66.831,0,0,0-8.035-5.733,98.673,98.673,0,0,0-14.977-7.484c-16.492-6.626-34.536-9.349-52.24-9.454-2.057-.012-4.115-.041-6.172-.07-2.771-.039-5.543-.078-8.316-.078-19.823,0-38.667,2.1-51.417,19.181a71.676,71.676,0,0,0-7.046,12.716,72.18,72.18,0,0,1-7.27,13.066c-2.243,2.986-4.8,5.779-7.3,8.548-5.8,6.414-13.021,14.175-14.808,22.892A20.989,20.989,0,0,0,383.213,307.206Zm5.527,2.185.033-.952c.538-9.809,7.4-18.172,13.3-25.528,1.95-2.431,3.917-4.868,5.7-7.423a91.5,91.5,0,0,0,6.306-11.106c2.4-4.719,4.825-9.491,8.192-13.608,15.877-19.408,38.9-19.413,61.883-19.315l1.776.009a150,150,0,0,1,38.366,5.03c12.363,3.36,24.82,8.713,34.529,17.241,7.458,6.55,12.872,15.841,13.474,25.879.281,4.7-.514,9.416-1.292,14.034a76.555,76.555,0,0,0-1.316,11,102.262,102.262,0,0,0,.424,10.737c.329,3.948.779,7.887,1.225,11.822.494,4.37.988,8.74,1.351,13.123,1.017,12.279,1.243,26.535-4.528,37.77a33.328,33.328,0,0,1-7.718,9.92c-17.024,14.911-48.96,19.552-71.02,19.552h-.168c-13.755-.014-27.87-5.887-40.219-11.479-9.4-4.256-18.907-8.91-25.581-17.047-5.408-6.593-9.648-14.148-13.82-21.558-1.332-2.367-2.665-4.735-4.04-7.078-.914-1.558-1.846-3.106-2.779-4.654C396.4,335.105,388.511,322.205,388.74,309.391Zm.76-.928-.033.953c-.219,12.635,7.669,25.5,13.973,35.972.933,1.55,1.867,3.1,2.782,4.661,1.377,2.347,2.712,4.718,4.047,7.09,4.15,7.371,8.368,14.893,13.747,21.454,6.584,8.026,16.05,12.648,25.319,16.844,12.244,5.544,26.293,11.4,39.92,11.415h.169c21.912,0,53.636-4.566,70.539-19.372a32.352,32.352,0,0,0,7.131-8.937c6.184-11.352,5.893-26.086,4.833-38.612-.357-4.219-.832-8.427-1.309-12.634-.447-3.958-.9-7.917-1.232-11.886a103.21,103.21,0,0,1-.424-10.771,77.586,77.586,0,0,1,1.329-11.107c.768-4.556,1.56-9.237,1.283-13.87-.591-9.847-5.915-18.954-13.23-25.376a61.29,61.29,0,0,0-7.614-5.61,91.356,91.356,0,0,0-14.306-7.311c-15.9-6.5-33.395-9.1-50.5-9.17l-1.777-.008c-1.569-.006-3.137-.013-4.706-.013-21.277,0-42.092,1.316-56.609,19.061-3.328,4.068-5.739,8.814-8.107,13.477a92.019,92.019,0,0,1-6.359,11.192c-1.794,2.569-3.77,5.017-5.729,7.462C396.875,290.555,390.034,298.876,389.5,308.463Zm5.63,2.33.029-.953c.469-9.674,6.478-18.2,11.822-25.9,1.42-2.047,2.845-4.095,4.183-6.2,1.744-2.741,3.272-5.621,4.8-8.489,2.687-5.053,5.423-10.2,9.26-14.494,16.169-18.1,38.055-19.46,60.709-19.379a142.15,142.15,0,0,1,36.957,4.876c11.869,3.278,23.78,8.54,32.924,16.963a32.788,32.788,0,0,1,10.959,20.418c.845,6.013.334,12.207-.135,18.233-.287,3.678-.568,7.354-.639,11.045a98.6,98.6,0,0,0,.4,10.008c.3,3.685.719,7.363,1.13,11.039.471,4.215.939,8.431,1.279,12.659.946,11.738,1.128,25.422-4.49,36.116a31.452,31.452,0,0,1-6.12,8.158c-8.385,8.021-20.915,12.128-32.063,14.329a171.775,171.775,0,0,1-33.1,2.893q-1.213,0-2.426-.012c-11.4-.117-23.5-3.125-34.031-7.369-10.448-4.21-21.577-10.633-29.233-19.022-6.642-7.277-11.584-16.051-16.409-24.585q-.9-1.6-1.814-3.2l-.947-1.658A173.794,173.794,0,0,1,400,330.733a64.111,64.111,0,0,1-3.609-10.142A37.742,37.742,0,0,1,395.13,310.793Zm.756-.931-.03.952c-.171,12.307,7,24.693,12.949,35.1l.951,1.66q.911,1.6,1.813,3.2c4.794,8.478,9.719,17.227,16.314,24.453,7.586,8.312,18.616,14.666,28.968,18.837,10.453,4.211,22.455,7.2,33.766,7.316,20.294.209,51.692-2.29,67.081-17.007a30.539,30.539,0,0,0,5.545-7.188c6.048-10.81,5.793-25,4.8-36.99-.335-4.058-.786-8.105-1.236-12.15-.411-3.7-.83-7.394-1.136-11.1a99.29,99.29,0,0,1-.4-10.042c.072-3.705.354-7.394.642-11.087.509-6.531,1.1-13.374-.125-19.856-1.393-7.383-4.969-13.139-10.467-18.2a60.7,60.7,0,0,0-9.157-6.907c-10.411-6.453-22.736-10.25-34.734-12.4a151.039,151.039,0,0,0-15.176-1.914c-3.431-.261-6.883-.415-10.325-.429-22.429-.083-44.206,1.271-60.163,19.136-3.79,4.243-6.506,9.357-9.16,14.35-1.535,2.886-3.071,5.779-4.826,8.537-1.342,2.112-2.774,4.167-4.2,6.223C402.342,291.9,396.352,300.384,395.887,309.862Zm5.656,2.366.024-.952c.384-9.636,5.445-18.116,10.242-26.192q.822-1.383,1.635-2.767c1.159-1.982,2.267-3.993,3.373-6,3.4-6.188,6.88-12.5,11.744-17.691,15.525-16.558,35.706-19.385,57.158-19.385h.21q5.6.006,11.182.485a127.88,127.88,0,0,1,24.125,4.31c11.339,3.235,22.718,8.417,31.27,16.716a33.278,33.278,0,0,1,10.237,19.54c.976,6.242.518,12.7.1,18.974-.221,3.319-.437,6.636-.5,9.962-.062,3.1.1,6.218.33,9.31.256,3.394.608,6.781.956,10.167.426,4.134.85,8.269,1.133,12.416A100.675,100.675,0,0,1,564.7,358.2a44.44,44.44,0,0,1-4.152,15.394,31,31,0,0,1-5.487,7.763c-13.513,13.9-40.756,15.288-59.055,15.288-1.344,0-2.687-.008-4.031-.015-10.942-.06-22.508-2.746-32.659-6.742-10.229-4.027-20.464-9.9-28.225-17.78a107.6,107.6,0,0,1-9.217-10.764,127.765,127.765,0,0,1-8.477-12.774C407.411,338.242,401.415,324.417,401.543,312.229Zm.75-.936-.023.953c-.112,10.674,4.5,22.38,9.388,31.638q2.289,4.332,4.92,8.477A115.921,115.921,0,0,0,431.611,371.6c8.58,8.708,20.768,15.2,32.242,19.164a89.17,89.17,0,0,0,28.128,5.141c11.326.063,22.6-.131,33.784-2.133,10.113-1.81,21.433-5.367,28.776-12.92,10.2-10.486,10.421-26.543,9.452-40.209-.28-3.962-.686-7.912-1.092-11.863-.35-3.4-.7-6.811-.962-10.224-.233-3.1-.391-6.23-.327-9.34.067-3.339.283-6.668.5-10,.45-6.771.981-13.878-.38-20.575A32.489,32.489,0,0,0,552,261.268c-8.464-8.213-19.742-13.336-30.963-16.538a127.191,127.191,0,0,0-24.089-4.294q-5.5-.46-11.018-.472h-.151c-12.376,0-25.989,1.151-37.571,5.835a51.9,51.9,0,0,0-19.114,13.319c-4.811,5.132-8.267,11.42-11.637,17.545-1.11,2.017-2.219,4.035-3.382,6.021q-.813,1.39-1.638,2.772C407.718,293.392,402.676,301.833,402.292,311.292Zm5.615,2.305.007-.954c.187-9.017,3.876-18.778,7.886-26.693q1.172-2.32,2.462-4.577a106.032,106.032,0,0,1,6.719-10.352,81.081,81.081,0,0,1,7.314-8.682,60.812,60.812,0,0,1,10.253-8.441c12.968-8.434,28.178-10.729,43.378-10.757h.2c20.977,0,47.153,6.077,62.509,21.28a33.685,33.685,0,0,1,9.888,18.742c1.158,6.5.772,13.268.429,19.826-.147,2.809-.292,5.618-.348,8.431a163.957,163.957,0,0,0,.932,17.278c.36,4.17.719,8.34.906,12.523.411,9.205.047,19.23-3.817,27.749a31.45,31.45,0,0,1-5.512,8.376c-12.071,13.1-34.711,13.838-51.368,13.838-1.582,0-3.163-.009-4.745-.016l-1.743-.009c-20.118-.1-43.717-8.984-58.381-22.812a92.309,92.309,0,0,1-14.547-18.1q-2.2-3.521-4.106-7.216C411.668,334.186,407.953,323.674,407.907,313.6Zm.734-.949-.008.953c.1,18.681,13.487,41.725,26.738,54.219,14.552,13.72,37.921,22.52,57.886,22.614l1.742.008c17.559.083,42.747.331,55.574-13.587a30.4,30.4,0,0,0,4.922-7.22c4.32-8.783,4.649-19.385,4.186-28.983-.192-3.971-.532-7.931-.875-11.889a164.924,164.924,0,0,1-.933-17.355c.056-2.82.2-5.637.349-8.455.771-14.766,1.22-26.805-10.1-38.012-6.427-6.362-15.239-11.171-23.626-14.372a107.9,107.9,0,0,0-38.335-6.7h-.231c-15.154.029-30.313,2.329-43.209,10.794a60.083,60.083,0,0,0-9.905,8.187q-2.385,2.43-4.552,5.06A96.185,96.185,0,0,0,413.879,291.8a78.074,78.074,0,0,0-3.866,11.524A44.134,44.134,0,0,0,408.642,312.649Zm22.721,3.6,0-.954a55.492,55.492,0,0,1,16.679-38.337,53.131,53.131,0,0,1,37.888-15.76,67.911,67.911,0,0,1,10.67.961c11.979,2.025,24.949,7.458,33.6,16.187,10.216,10.305,10.788,23.832,10.351,37.445-.081,2.526-.081,5.054-.083,7.58-.01,11.678.039,25.413-7.494,35.066-7.944,10.18-22.111,11.1-33.987,11.1-1.155,0-2.312-.009-3.467-.017a75.107,75.107,0,0,1-43.081-14.805C440.07,345.378,431.465,332.059,431.362,316.252Zm.731-.951,0,.953c.1,15.566,8.613,28.689,20.793,37.878a74.323,74.323,0,0,0,42.646,14.659c12.489.094,28.4.067,36.877-10.8,7.394-9.475,7.33-23.175,7.34-34.619,0-2.535,0-5.07.083-7.6.428-13.34-.113-26.794-10.141-36.91-8.64-8.716-21.617-14.1-33.589-16.048a67.054,67.054,0,0,0-10.174-.884,52.41,52.41,0,0,0-37.37,15.55A54.75,54.75,0,0,0,432.093,315.3Zm5.5-.135-.007.953-.727,0c.069,14.279,8.189,26.221,19.409,34.557,10.88,8.083,25.389,13.3,38.956,13.421q.733.006,1.464.007c11.142,0,24.259-1.044,31.6-10.624,6.732-8.785,6.863-21.183,7.015-31.774.03-2.012.056-4.026.134-6.037.473-12.36-.724-24.753-9.954-33.977-7.547-7.542-18.694-12.336-29.075-14.256a60.5,60.5,0,0,0-10.35-1.024A47.673,47.673,0,0,0,452.1,280.491a50.388,50.388,0,0,0-15.238,34.669l0,.954.725,0c.071,14.035,8.095,25.78,19.115,33.968,10.766,8,25.1,13.163,38.528,13.278,11.228.1,25.029-.608,32.483-10.333,6.594-8.6,6.716-20.952,6.867-31.343.029-2.018.056-4.038.133-6.055.464-12.113-.69-24.389-9.741-33.434-9.669-9.663-25.366-14.928-38.918-15.068a46.961,46.961,0,0,0-33.44,13.878A49.635,49.635,0,0,0,437.594,315.166Zm4.925.731.009-.953a44.73,44.73,0,0,1,13.171-30.2,43.622,43.622,0,0,1,30.657-13.223c12.157-.08,24.129,3.886,32.729,12.716a38.506,38.506,0,0,1,3.669,4.377,40.432,40.432,0,0,1,5.99,12.417,46.336,46.336,0,0,1,1.733,14.409c-.042,1.237-.07,2.476-.1,3.713-.23,9.84-.462,21.249-6.714,29.4-6.421,8.374-17.408,10.073-27.292,10.073-.552,0-1.1-.006-1.654-.014-12.093-.2-25.04-4.907-34.766-12.076C449.963,339.181,442.576,328.6,442.519,315.9Zm.736-.948h0l-.009.954c.059,12.459,7.349,22.84,17.136,30.053,9.616,7.087,22.392,11.739,34.347,11.935,6.484.107,13.794-.469,19.8-3.123a21.137,21.137,0,0,0,8.555-6.651c6.116-7.977,6.338-19.336,6.564-28.979.03-1.24.058-2.479.1-3.72A45.526,45.526,0,0,0,528,301.093a39.678,39.678,0,0,0-6.042-12.328,37.662,37.662,0,0,0-3.4-4.018c-8.358-8.584-19.984-12.5-31.815-12.5h-.385a42.94,42.94,0,0,0-30.149,13.011A43.988,43.988,0,0,0,443.256,314.949Zm5.041.667.015-.953A40.029,40.029,0,0,1,459.8,288.1a37.512,37.512,0,0,1,27-11.522c10.787.046,21.294,3.753,28.863,11.6a34.477,34.477,0,0,1,4.124,5.188,35.911,35.911,0,0,1,4.532,10.225,39.791,39.791,0,0,1,1.31,11.579c-.288,9.186-1.5,19.864-6.982,27.5-5.676,7.906-14.45,10.451-23.83,10.451-.249,0-.5,0-.747-.006-12.948-.185-27.2-6.231-36.216-15.534C452.028,331.573,448.3,324.059,448.3,315.616Zm.743-.94-.016.953c.006,8.233,3.66,15.577,9.349,21.444,8.9,9.18,22.928,15.128,35.706,15.313,9.581.138,18.543-2.267,24.2-10.471,5.157-7.481,6.347-17.927,6.624-26.773a38.983,38.983,0,0,0-1.323-11.5A35.1,35.1,0,0,0,519,293.5a33.613,33.613,0,0,0-3.866-4.82c-7.432-7.7-17.756-11.332-28.341-11.373h-.139a36.044,36.044,0,0,0-17.927,4.847A39.2,39.2,0,0,0,449.039,314.676Zm5.123.629,0-.953a33.244,33.244,0,0,1,9.814-22.918,32.608,32.608,0,0,1,23.24-9.853h.108A34.018,34.018,0,0,1,511.981,291.6a31.987,31.987,0,0,1,8.868,23.24c-.431,18.017-7.3,32.74-27.195,32.742-.11,0-.219,0-.328,0a45.835,45.835,0,0,1-26.173-9.079C459.662,332.869,454.308,324.845,454.162,315.3Zm.73-.95v.953c.147,9.3,5.4,17.126,12.7,22.616a45.018,45.018,0,0,0,25.742,8.935c19.788.15,26.361-14.134,26.789-32.032a31.27,31.27,0,0,0-8.661-22.716,33.309,33.309,0,0,0-24.14-9.8h-.1a31.891,31.891,0,0,0-22.724,9.637A32.535,32.535,0,0,0,454.892,314.355Zm7.091,222.883c5.235,0,10.47-.129,15.7-.251,4.982-.118,9.962-.237,14.945-.249,10.4-.022,19.419-5.313,28.114-10.411a113.372,113.372,0,0,1,13.408-7.092c10.15-4.242,21.244-6.423,32-8.573,2.7-.54,5.407-1.075,8.1-1.649q2.658-.566,5.318-1.118c10.727-2.236,21.522-4.49,31.851-8.212,13.241-4.771,23.5-13.868,33.3-23.685a146.3,146.3,0,0,0,13.608-15.368,86.242,86.242,0,0,0,11.348-19.875c1.384-3.47,2.674-6.976,3.962-10.482,1.885-5.129,3.767-10.266,5.967-15.271a92.325,92.325,0,0,1,7.825-14.479,196.556,196.556,0,0,0,11.1-17.792,76.529,76.529,0,0,0,7.364-20.324,223.136,223.136,0,0,0,4.638-45.22c.022-12.046-4.266-23.7-8.353-34.858-1.347-3.681-2.7-7.364-3.9-11.093a138.376,138.376,0,0,1-4.023-17.519c-1.426-7.742-2.879-15.56-6-22.832-3.508-8.157-9.145-14.985-14.76-21.759a138.128,138.128,0,0,1-10.523-13.837,160.619,160.619,0,0,1-9.739-18.807A174.7,174.7,0,0,0,644.39,159.1c-14.781-24.36-41.825-37.354-67.706-46.559-12.344-4.389-24.753-8.639-37.4-12.074-17.515-4.758-35.161-7.812-53.353-7.89h-.157c-10.254,0-19.646,4.264-28.792,8.421-3.766,1.712-7.544,3.434-11.426,4.868-7.336,2.709-15.119,3.771-22.827,4.815-6.832.923-13.7,1.859-20.3,3.932-9.019,2.836-16.188,8.428-23.485,14.2-3.754,2.97-7.517,5.941-11.553,8.526a135.143,135.143,0,0,1-14.052,7.5c-8.623,4.182-17.612,8.528-24.118,15.777-6.057,6.748-9.455,15.333-12.748,23.647-2.356,5.946-4.752,12.022-8.152,17.461-3.942,6.306-9.282,11.426-14.628,16.518a114.213,114.213,0,0,0-11.82,12.458c-7.875,10.161-12.62,22.5-15.573,34.919a174.456,174.456,0,0,0-3.8,23.626,279.17,279.17,0,0,0-1.174,27.941c.045,10.516,6.63,18.934,12.769,26.851,3.608,4.653,7.447,9.547,9.891,14.932,4.411,9.719,3.262,20.4,2.132,30.682a126.482,126.482,0,0,0-1.046,14.622,53.486,53.486,0,0,0,4.745,21.394,111.533,111.533,0,0,0,10.4,17.892c7.855,11.52,16.358,23.464,28,31.456,6.421,4.407,13.57,7.586,20.661,10.735a141.706,141.706,0,0,1,18.506,9.322c6.292,3.983,11.762,9.081,17.182,14.148,4.97,4.645,9.968,9.308,15.612,13.134C418.86,535.006,440.039,537.237,461.983,537.237Z" transform="translate(-261.327 -92.576)" fill="#113268" fill-rule="evenodd" opacity="0.12"/>
</svg>
