<svg xmlns="http://www.w3.org/2000/svg" width="28.368" height="26.261" viewBox="0 0 28.368 26.261">
  <g id="chat" transform="translate(-119.33 -148.26)">
    <path id="Path_4" data-name="Path 4" d="M146.769,426.066v5.483a3.646,3.646,0,0,1-3.634,3.636h-1.886a.166.166,0,0,0-.166.161c-.079,2.892-2.282,2.817-3.285,2.632a.111.111,0,0,1-.011-.215c1.42-.437,1.2-1.987,1.1-2.448a.166.166,0,0,0-.162-.13h-4.613a3.646,3.646,0,0,1-3.634-3.636v-5.483a3.646,3.646,0,0,1,3.634-3.636h9.021a3.645,3.645,0,0,1,3.634,3.636Z" transform="translate(-10.734 -263.947)" fill="#5cbae9"/>
    <path id="Path_5" data-name="Path 5" d="M426.972,422.42H425.31a3.646,3.646,0,0,1,3.634,3.636v5.484a3.646,3.646,0,0,1-3.634,3.636h1.662a3.646,3.646,0,0,0,3.634-3.636v-5.483a3.646,3.646,0,0,0-3.634-3.636Z" transform="translate(-294.571 -263.938)" fill="#44b3e7"/>
    <path id="Path_6" data-name="Path 6" d="M241.5,174.942c-1.025,2.525.4,3.713,1.147,4.139a.135.135,0,0,1-.056.251c-3.8.34-3.741-2.956-3.585-4.2a.387.387,0,0,0-.384-.435H227.641a3.551,3.551,0,0,1-3.551-3.551v-8.185a3.551,3.551,0,0,1,3.551-3.551h16.943a3.551,3.551,0,0,1,3.551,3.551v8.185a3.551,3.551,0,0,1-3.551,3.551h-2.72a.389.389,0,0,0-.36.243Z" transform="translate(-100.854 -10.734)" fill="#f5f6f6"/>
    <g id="Group_2" data-name="Group 2" transform="translate(128.955 154.683)">
      <circle id="Ellipse_1" data-name="Ellipse 1" cx="0.997" cy="0.997" r="0.997" transform="translate(0 0)" fill="#5cbae9"/>
      <circle id="Ellipse_2" data-name="Ellipse 2" cx="0.997" cy="0.997" r="0.997" transform="translate(4.965 0)" fill="#5cbae9"/>
      <circle id="Ellipse_3" data-name="Ellipse 3" cx="0.997" cy="0.997" r="0.997" transform="translate(9.93 0)" fill="#5cbae9"/>
    </g>
    <path id="Path_7" data-name="Path 7" d="M147.292,304.91a.415.415,0,0,0-.415.415v5.9a3.14,3.14,0,0,1-3.136,3.136h-2.72a.8.8,0,0,0-.745.5,3.843,3.843,0,0,0-.08,3.193,3.194,3.194,0,0,0,.706.949,2.447,2.447,0,0,1-1.642-.679,3.6,3.6,0,0,1-.68-3.065.8.8,0,0,0-.8-.9h-4.258a.415.415,0,1,0,0,.831h2.106v3.222a3.223,3.223,0,0,1-3.219,3.22h-1.886a.584.584,0,0,0-.581.566c-.036,1.326-.546,2.212-1.87,2.3a2.65,2.65,0,0,0,.5-2.4.585.585,0,0,0-.568-.458h-4.613a3.223,3.223,0,0,1-3.219-3.22v-.893a.415.415,0,0,0-.831,0v.893a4.055,4.055,0,0,0,4.05,4.051h4.4a1.442,1.442,0,0,1-.853,1.766.526.526,0,0,0,.057,1.021,4.756,4.756,0,0,0,.866.083,2.731,2.731,0,0,0,2.9-2.87h1.648a4.055,4.055,0,0,0,4.05-4.051v-3.222h1.29a4.643,4.643,0,0,0,.911,3.713,3.408,3.408,0,0,0,2.564.945q.272,0,.564-.026a.551.551,0,0,0,.224-1.026,2.672,2.672,0,0,1-.974-3.606h2.7a3.972,3.972,0,0,0,3.967-3.967v-5.9a.416.416,0,0,0-.416-.415Z" transform="translate(-0.01 -150.809)" fill="#1e3668"/>
    <path id="Path_8" data-name="Path 8" d="M143.731,148.26H126.788a3.972,3.972,0,0,0-3.967,3.967v5.879a4.064,4.064,0,0,0-3.49,4.012v2.812a.415.415,0,0,0,.831,0v-2.812a3.232,3.232,0,0,1,2.66-3.17v1.465a3.972,3.972,0,0,0,3.967,3.967h4.966a.415.415,0,0,0,0-.831h-4.966a3.14,3.14,0,0,1-3.136-3.136v-8.186a3.14,3.14,0,0,1,3.136-3.136h16.943a3.14,3.14,0,0,1,3.136,3.136v.523a.415.415,0,1,0,.831,0v-.523A3.971,3.971,0,0,0,143.731,148.26Z" fill="#1e3668"/>
    <path id="Path_9" data-name="Path 9" d="M366.33,310.793a1.413,1.413,0,1,0,1.413-1.413,1.414,1.414,0,0,0-1.413,1.413Zm1.995,0a.582.582,0,1,1-.582-.582A.582.582,0,0,1,368.325,310.793Z" transform="translate(-237.79 -155.112)" fill="#1e3668"/>
    <path id="Path_10" data-name="Path 10" d="M500.9,312.206a1.413,1.413,0,1,0-1.413-1.413,1.414,1.414,0,0,0,1.413,1.413Zm0-1.994a.582.582,0,1,1-.582.582A.582.582,0,0,1,500.9,310.211Z" transform="translate(-365.985 -155.113)" fill="#1e3668"/>
    <path id="Path_11" data-name="Path 11" d="M634.063,312.206a1.413,1.413,0,1,0-1.413-1.413,1.414,1.414,0,0,0,1.413,1.413Zm0-1.994a.582.582,0,1,1-.582.582A.582.582,0,0,1,634.063,310.211Z" transform="translate(-494.18 -155.113)" fill="#1e3668"/>
  </g>
</svg>
