<svg xmlns="http://www.w3.org/2000/svg" width="51.228" height="40.312" viewBox="0 0 51.228 40.312">
  <g id="checked" transform="translate(0 -54.549)">
    <path id="Path_1214" data-name="Path 1214" d="M187.228,99.527,185.106,97.4l-33.152,28.149v5l2.122,2.122Z" transform="translate(-136.75 -38.568)" fill="#aee6e0"/>
    <path id="Path_1215" data-name="Path 1215" d="M51.567,62.049,24.076,89.541,13.16,78.625,7.5,84.285,21.953,98.738,55.1,65.587Z" transform="translate(-6.749 -6.75)" fill="#cff3ef"/>
    <path id="Path_1216" data-name="Path 1216" d="M51.009,60.429l-5.66-5.66a.75.75,0,0,0-1.061,0L17.326,81.73,6.941,71.345a.75.75,0,0,0-1.061,0L.22,77a.75.75,0,0,0,0,1.061L16.8,94.642a.75.75,0,0,0,1.061,0L51.009,61.49A.75.75,0,0,0,51.009,60.429ZM17.326,93.05,1.812,77.535l4.6-4.6L16.8,83.322a.75.75,0,0,0,1.061,0L44.818,56.361l4.6,4.6Z" transform="translate(0 0)" fill="#113268"/>
  </g>
</svg>
