<svg xmlns="http://www.w3.org/2000/svg" width="198" height="53.044" viewBox="0 0 198 53.044">
  <g id="logo" transform="translate(-34.78 -322.14)">
    <g id="Group_1" data-name="Group 1" transform="translate(34.78 322.14)">
      <path id="Path_1" data-name="Path 1" d="M131.886,399.239c1.992-.157,4.677.2,4.646-2.139s-3.345-2.479-5.231-2.479c-1.968,0-6,.381-5.995,2.932v1.685Zm15.164-1.553,0,15.441H153.1l0-15.337c.1-2.562,3.171-3.088,5.014-3.162,2.02-.081,6.225.219,6.225,3.3v15.2h6.044V397.686a7.806,7.806,0,0,0-5.278-7.167,21.163,21.163,0,0,0-11.3-.458C150.3,390.921,147.051,393.487,147.051,397.686Zm-110.431,0,0,15.441h6.044l0-15.337c.1-2.562,3.171-3.088,5.014-3.162,2.017-.081,6.222.219,6.222,3.3l0,15.2H59.95V397.686a7.806,7.806,0,0,0-5.278-7.167,21.163,21.163,0,0,0-11.3-.458C39.874,390.921,36.62,393.487,36.62,397.686Zm33.94-.326c.47-2.132,3.267-2.66,4.98-2.728,2.02-.081,6.193.3,6.193,3.379v.713H73.78c-4.105.121-9.283.872-9.331,6.569a7.846,7.846,0,0,0,4.673,6.942,20.493,20.493,0,0,0,13.377.226,7.785,7.785,0,0,0,5.278-7.24V397.76a7.794,7.794,0,0,0-5.278-7.24,21.142,21.142,0,0,0-11.3-.458c-3.4.836-6.576,3.292-6.74,7.3H70.56Zm4.582,6.376h6.582v1.685c0,2.549-4.026,2.93-6,2.93-1.883,0-5.2-.138-5.231-2.477S73.15,403.893,75.142,403.736Zm22.223-6.376c.411-2.192,3.228-2.662,4.965-2.732,2.017-.081,6.225.217,6.225,3.3.006,0,0,6.193,0,6.765,0,2.63-3.077,3.286-4.963,3.322L93.439,408v5.124H103.56c4.748-.034,11.036-2.045,11.036-8.365,0-2.356-.015-4.72,0-7.076a7.806,7.806,0,0,0-5.278-7.167,21.142,21.142,0,0,0-11.3-.455c-3.4.836-6.576,3.292-6.74,7.3h6.09Zm43.046,15.771H130.29c-4.748-.034-11.036-2.045-11.036-8.365v-7.008a7.788,7.788,0,0,1,5.278-7.24,20.493,20.493,0,0,1,13.377.226,7.846,7.846,0,0,1,4.673,6.942c-.053,6.352-6.486,6.554-10.7,6.593v-.023H125.3v.441c0,2.63,3.077,3.284,4.963,3.322h.023l10.127-.009Z" transform="translate(-36.228 -375.171)" fill="#0a2f64"/>
      <path id="Path_2" data-name="Path 2" d="M736.232,337.241v21.542H754.14v-4.85H742.014V337.241Zm8.027-15.1a26.309,26.309,0,1,1-18.6,7.706A26.228,26.228,0,0,1,744.259,322.14Z" transform="translate(-572.568 -322.14)" fill="#0a2f64" fill-rule="evenodd"/>
      <path id="Path_3" data-name="Path 3" d="M34.8,531.936a1.567,1.567,0,0,1,.134-.628h1.381a2.562,2.562,0,0,0-.062.536,1.072,1.072,0,0,0,1.073,1.164c.8,0,1.041-.7,1.041-1.268s-.226-1.309-1.145-1.309h-.681v-1.794H34.78V527.6h1.762v-.99h1.37v.99H39.7v1.041H37.912v.815a2.215,2.215,0,0,1,1.907,2.247,2.411,2.411,0,0,1-2.494,2.411A2.226,2.226,0,0,1,34.8,531.936Zm5.758-2.113a2.137,2.137,0,0,1,.1-.689h1.4a2.782,2.782,0,0,0-.062.6c0,.609.289,1.215,1.011,1.215a1.007,1.007,0,0,0,1-1.134,1.636,1.636,0,0,0-.877-1.453,1.9,1.9,0,0,1-1.092-1.751H43.5c.062.494.4.743.794,1.041a2.474,2.474,0,0,1,1.185,2.143,2.3,2.3,0,0,1-2.473,2.258A2.155,2.155,0,0,1,40.56,529.823Zm5.82-.464v-2.988c0-1.515.753-2.2,2.577-2.2h2.1V525.3H48.823c-.7,0-.979.279-.979.958v1.124h.021a1.88,1.88,0,0,1,1.607-.753c1.309,0,2.207,1.062,2.207,2.722a2.65,2.65,0,1,1-5.3.011Zm3.833.021c0-1-.413-1.66-1.185-1.66s-1.236.609-1.236,1.66c0,.928.475,1.566,1.247,1.566C49.791,530.946,50.213,530.306,50.213,529.38Zm2.243-.053c0-1.66.887-2.639,2.207-2.639a1.894,1.894,0,0,1,1.607.753h.021v-1.03c0-.815-.392-1.287-1.092-1.287a.993.993,0,0,0-1.083.907H52.683c0-1.03.824-2,2.515-2a2.246,2.246,0,0,1,2.556,2.288v3.041a2.65,2.65,0,1,1-5.3-.034Zm3.886.062c0-1.051-.464-1.607-1.236-1.607s-1.185.609-1.185,1.607c0,.928.413,1.556,1.164,1.556C55.858,530.946,56.341,530.316,56.341,529.388Zm7.974-.134c0-1.092-.279-1.526-.815-1.526-.423,0-.609.424-.609,1.051v1.751h-1.36V528.78c0-.67-.175-1.051-.587-1.051-.536,0-.815.453-.815,1.545a4.978,4.978,0,0,0,.753,2.628H59.4a5.649,5.649,0,0,1-.743-3.267c0-2.524,1.207-3.6,2.969-3.958l.938-.2a.61.61,0,0,0,.434-.309h1.483c-.081.794-.5,1.226-1.556,1.443L62,525.8c-.947.185-1.958.475-2.226,1.483H59.8a1.4,1.4,0,0,1,1.2-.66,1.2,1.2,0,0,1,1.185.917h.04a1.581,1.581,0,0,1,1.515-.917c1.319,0,2.051,1.051,2.051,2.6a4.465,4.465,0,0,1-.732,2.679H63.566A4.771,4.771,0,0,0,64.315,529.254Zm8.9.011c0-1.051-.236-1.545-.772-1.545-.494,0-.743.362-.743,1.019v.587a2.571,2.571,0,1,1-5.133,0,2.465,2.465,0,0,1,2.5-2.72,1.962,1.962,0,0,1,1.885.968H71a1.578,1.578,0,0,1,1.609-.958c1.3,0,2.071.99,2.071,2.639a4.417,4.417,0,0,1-.732,2.649H72.466A4.87,4.87,0,0,0,73.217,529.265Zm-2.96.062c0-.917-.33-1.617-1.134-1.617-.772,0-1.092.711-1.092,1.617s.319,1.617,1.1,1.617S70.257,530.233,70.257,529.327Zm5.15,2.556a2.961,2.961,0,0,1,.185-1.011H77a3.1,3.1,0,0,0-.134.917c0,.609.289,1.217,1.041,1.217.783,0,1.062-.619,1.062-1.217v-2.773c0-.732-.217-1.309-.958-1.309-.689,0-.958.536-.958,1.092a2.052,2.052,0,0,0,.051.432H75.653a2.091,2.091,0,0,1-.062-.494,2.193,2.193,0,0,1,2.422-2.132,2.226,2.226,0,0,1,2.422,2.32V531.8a2.291,2.291,0,0,1-2.524,2.309A2.2,2.2,0,0,1,75.407,531.882ZM85.091,533H82.1v-1.019h.877l.011-.04a2.775,2.775,0,0,1-1.649-2.679c0-1.7.741-2.649,2.051-2.649a1.428,1.428,0,0,1,1.453.949h.04a1.271,1.271,0,0,1,1.3-.949,1.193,1.193,0,0,1,1.3.949h.04a1.5,1.5,0,0,1,1.443-.949c1.36,0,2.092.949,2.092,2.617a5.262,5.262,0,0,1-.434,2.215H89.139a4.8,4.8,0,0,0,.443-2.154c0-1.1-.268-1.577-.764-1.577-.411,0-.617.392-.617,1.011v1.813H86.83v-1.8c0-.638-.145-1.019-.628-1.019s-.638.424-.638,1.011v1.813H84.183v-1.794c0-.67-.206-1.03-.619-1.03-.547,0-.762.526-.762,1.566a2.375,2.375,0,0,0,2.051,2.566c.443.072,1.443.164,1.885.279,1.207.319,1.824.877,1.875,1.845h-1.6C86.9,533.315,86.234,533,85.091,533Zm12.424-3.709c0-1.1-.279-1.577-.826-1.577-.423,0-.609.424-.609,1.051v1.773h-1.36v-1.773c0-.67-.175-1.051-.587-1.051-.536,0-.815.485-.815,1.566a4.978,4.978,0,0,0,.753,2.628H92.586a4.55,4.55,0,0,1-.732-2.69c0-1.66.732-2.607,2.03-2.607a1.4,1.4,0,0,1,1.483.949h.043a1.5,1.5,0,0,1,1.526-.949c1.319,0,2.041,1.03,2.041,2.617a4.465,4.465,0,0,1-.732,2.679H96.751A4.742,4.742,0,0,0,97.515,529.286Zm2.241.051a2.48,2.48,0,0,1,2.164-2.669v-.381c0-.475-.309-.619-.638-.753-.4-.164-.815-.392-.815-1.36h1.36c.043.464.36.638.689.815a1.158,1.158,0,0,1,.826,1.145v.628a2.716,2.716,0,1,1-3.586,2.575Zm3.856,0c0-.866-.36-1.607-1.207-1.607-.8,0-1.185.743-1.185,1.607,0,.845.36,1.607,1.2,1.607S103.612,530.193,103.612,529.337Zm5.85.062c0-.885-.247-1.69-1.07-1.69s-1.062.8-1.062,1.69a5.479,5.479,0,0,0,.566,2.5h-1.432a4.957,4.957,0,0,1-.609-2.556,2.548,2.548,0,1,1,5.082,0,5.042,5.042,0,0,1-.609,2.556H108.9A5.445,5.445,0,0,0,109.462,529.4Zm2.377.123v-5.35H113.3v5.358c0,.815.34,1.411,1.081,1.411s1.081-.577,1.081-1.341a1.76,1.76,0,0,0-.37-1.062,2.6,2.6,0,0,1-.66-1.794h1.432a2.192,2.192,0,0,0,.5,1.319,2.538,2.538,0,0,1,.566,1.639,2.554,2.554,0,0,1-5.1-.181ZM123.047,533h-1.794v-1h.968v-.04a2.708,2.708,0,0,1-1.639-2.7c0-1.7.772-2.649,2.071-2.649a1.634,1.634,0,0,1,1.639.968h.04a2,2,0,0,1,1.866-.968,2.45,2.45,0,0,1,2.422,2.639,2.515,2.515,0,1,1-5.029,0v-.526c0-.587-.257-1.011-.732-1.011-.566,0-.815.536-.815,1.566a2.769,2.769,0,0,0,2.113,2.784c1.319.34,2.186.772,2.186,1.907h-1.6C124.748,533.44,124.2,533,123.047,533Zm4.175-3.76c0-.815-.34-1.536-1.124-1.536-.753,0-1.1.732-1.1,1.536,0,.773.34,1.494,1.1,1.494S127.222,530.018,127.222,529.235Zm2.158.587a2.137,2.137,0,0,1,.1-.689h1.4a2.781,2.781,0,0,0-.062.6c0,.609.289,1.215,1.011,1.215a1.007,1.007,0,0,0,1-1.134,1.636,1.636,0,0,0-.877-1.453,1.9,1.9,0,0,1-1.092-1.751h1.453c.062.494.4.743.794,1.041a2.474,2.474,0,0,1,1.185,2.143,2.3,2.3,0,0,1-2.473,2.258A2.156,2.156,0,0,1,129.38,529.823Zm6.45-.485a2.147,2.147,0,0,1,.536-1.475v-.051A1.756,1.756,0,0,1,134.841,526a2.109,2.109,0,0,1,4.194-.145,1.534,1.534,0,0,1-.268.856v.04a2.443,2.443,0,0,1,2.462,2.588,2.7,2.7,0,1,1-5.4,0Zm1.907-3.309c0-.547-.311-.99-.794-.99s-.8.432-.8.99a.853.853,0,0,0,.8.949C137.437,526.977,137.737,526.575,137.737,526.028Zm2.02,3.309c0-.855-.392-1.6-1.236-1.6-.783,0-1.207.753-1.207,1.6,0,.815.381,1.607,1.215,1.607S139.757,530.172,139.757,529.337ZM144.432,533h-1.741v-1h.968v-.04a2.812,2.812,0,0,1-1.649-2.7c0-1.7.732-2.649,2.03-2.649a1.4,1.4,0,0,1,1.483.949h.043a1.533,1.533,0,0,1,1.515-.949c1.36,0,2.062.949,2.062,2.617a5.3,5.3,0,0,1-.432,2.215h-1.494a4.835,4.835,0,0,0,.453-2.154c0-1.081-.268-1.577-.815-1.577-.423,0-.609.443-.609,1.073v1.751h-1.37V528.78c0-.67-.185-1.073-.6-1.073-.566,0-.8.547-.8,1.566a2.563,2.563,0,0,0,2.062,2.73c1.33.3,2.2.824,2.2,1.958h-1.588C146.143,533.44,145.585,533,144.432,533Zm5.437-1.051a2.316,2.316,0,0,1,.185-.917h1.411a2.8,2.8,0,0,0-.134.824,1.084,1.084,0,0,0,1.134,1.164,1.07,1.07,0,0,0,1.081-1.164,1.035,1.035,0,0,0-1.081-1.175h-.34v-1.1h.319c.711,0,.9-.4.9-.907a.858.858,0,0,0-.885-.958c-.711,0-.938.485-.938,1.019a2.05,2.05,0,0,0,.032.351h-1.432a1.731,1.731,0,0,1-.051-.432,2.143,2.143,0,0,1,2.411-2.041,2.09,2.09,0,0,1,2.32,1.968,1.493,1.493,0,0,1-.958,1.526v.04a1.731,1.731,0,0,1,1.175,1.762,2.33,2.33,0,0,1-2.566,2.2A2.293,2.293,0,0,1,149.869,531.944Zm5.82-.062a2.961,2.961,0,0,1,.185-1.011h1.411a3.1,3.1,0,0,0-.134.917c0,.609.289,1.217,1.041,1.217.783,0,1.062-.619,1.062-1.217v-2.773c0-.732-.217-1.309-.958-1.309-.689,0-.958.536-.958,1.092a2.051,2.051,0,0,0,.051.432h-1.453a2.09,2.09,0,0,1-.062-.494A2.193,2.193,0,0,1,158.3,526.6a2.226,2.226,0,0,1,2.422,2.32V531.8a2.291,2.291,0,0,1-2.524,2.309A2.2,2.2,0,0,1,155.689,531.882Zm5.861.062a2.316,2.316,0,0,1,.185-.917h1.413a2.8,2.8,0,0,0-.134.824,1.084,1.084,0,0,0,1.134,1.164,1.07,1.07,0,0,0,1.081-1.164,1.034,1.034,0,0,0-1.081-1.175h-.34v-1.1h.319c.711,0,.9-.4.9-.907a.858.858,0,0,0-.885-.958c-.711,0-.938.485-.938,1.019a2.05,2.05,0,0,0,.032.351H161.8a1.731,1.731,0,0,1-.051-.432,2.143,2.143,0,0,1,2.411-2.041,2.09,2.09,0,0,1,2.32,1.968,1.493,1.493,0,0,1-.958,1.526v.04A1.731,1.731,0,0,1,166.7,531.9a2.33,2.33,0,0,1-2.566,2.2A2.294,2.294,0,0,1,161.55,531.944Zm5.85-2.122a2.137,2.137,0,0,1,.1-.689h1.4a2.781,2.781,0,0,0-.062.6c0,.609.287,1.215,1.009,1.215a1.007,1.007,0,0,0,1-1.134,1.636,1.636,0,0,0-.877-1.453,1.9,1.9,0,0,1-1.092-1.751h1.453c.062.494.4.743.794,1.041a2.474,2.474,0,0,1,1.185,2.143,2.3,2.3,0,0,1-2.473,2.258A2.155,2.155,0,0,1,167.4,529.823Z" transform="translate(-34.78 -481.067)" fill="#0a2f64"/>
    </g>
  </g>
</svg>
