<svg xmlns="http://www.w3.org/2000/svg" xmlns:xlink="http://www.w3.org/1999/xlink" width="770" height="107.077" viewBox="0 0 770 107.077">
  <defs>
    <clipPath id="clip-path">
      <path id="Path_1208" data-name="Path 1208" d="M1280.265,341.057v9.637H1250.2c9.9-3.7,19.908-6.917,29.946-9.606Zm0-17.921v10.91l-.7.18a341.7,341.7,0,0,0-47.525,16.468h-27.643a400.949,400.949,0,0,1,70.932-26.27c.494-.131.981-.258,1.478-.392Q1278.537,323.575,1280.265,323.136Zm0-16.884v9.891c-1.727.434-3.459.872-5.195,1.333a414.452,414.452,0,0,0-85,33.218h-23.2a452.079,452.079,0,0,1,104.809-42.216c.309-.082.592-.16.9-.24Q1276.448,307.209,1280.265,306.252Zm0-16.3v9.3q-4.68,1.162-9.434,2.421c-.249.067-.519.138-.768.209a474.516,474.516,0,0,0-116.36,48.8h-20.964q2.133-1.312,4.3-2.611c38.551-23.089,85.241-42.65,131.468-55.076l.585-.156Q1274.768,291.329,1280.265,289.955Zm0-16.21v9.181q-6.373,1.612-12.7,3.31c-.278.076-.543.145-.819.22-46.815,12.582-94.117,32.406-133.193,55.809q-6.931,4.15-13.51,8.429h-18.05c63.429-42.987,134.764-65.2,162.491-72.737Q1272.385,275.807,1280.265,273.746Zm0-16.45v9.443q-8.767,2.274-17.562,4.672c-34.887,9.488-87.413,27.224-139.529,57.843q-17.591,10.333-33.1,21.44h-16.14c41.026-31.148,101.176-64.809,186.466-88l6.926-1.885Q1273.781,259.053,1280.265,257.3Zm-12.495-13.679h12.495v6.655q-7.378,1.986-14.732,4l-6.917,1.887c-35.869,9.748-90.117,28.057-144.853,59.913a451.3,451.3,0,0,0-51.435,34.625h-15.511c42.813-35.421,109.839-76.561,209.335-103.847Q1261.941,245.261,1267.77,243.617Zm-58.646,0h33.663c-43.24,12.869-135.7,45.637-207.261,107.077h-15.353C1080.064,296.472,1155.51,262.638,1209.124,243.617Zm-51.264,0h31.691c-54.108,20.75-123.921,54.921-179.366,107.077H994.759C1037.171,308.842,1093.69,271.8,1157.86,243.617Zm-45.477,0h29.069c-61.671,28.789-115.73,65.711-156.266,107.077H969.159C1009.74,306.688,1060.708,270.937,1112.383,243.617Zm-36.752,0h22.535C1047.912,271.429,998.939,307.173,960,350.694H943.876c28.35-31.627,65.559-59.011,98.966-83.594q5.956-4.377,11.774-8.678Q1064.919,250.8,1075.631,243.617Zm-35.822,0H1063.6q-6.59,4.59-13.022,9.35-5.806,4.3-11.754,8.671c-35.255,25.938-74.713,54.974-103.979,89.056H918.1c30.5-38.6,74.533-71.658,113.554-100.95Zm-35.01,0h23.719l-.935.7c-40.747,30.59-86.925,65.252-118.063,106.373H892.439q3-4.41,6.183-8.7C926.2,304.816,966.113,272.537,1004.8,243.617Zm-34.12,0h22.833c-36.77,27.814-73.95,58.762-100.329,94.337q-4.631,6.246-8.9,12.74H867.509q6.744-11.244,14.264-21.58C905.71,296.245,937.419,268.943,970.68,243.617Zm-34.551,0h23.414c-31.1,24.131-60.511,50.273-83.247,81.5a298.35,298.35,0,0,0-16.664,25.58H842.9a335.49,335.49,0,0,1,21.22-34.587C884.032,287.832,909.233,264.621,936.128,243.617Zm-35.159,0H925.2c-24.781,19.931-47.912,42.014-66.614,68.586a345.562,345.562,0,0,0-23.349,38.491H818.974a361.019,361.019,0,0,1,26.868-47.507C861.7,279.706,880.442,260.634,900.97,243.617Zm-34.776,0h24.258c-18.54,16.043-35.553,34.03-50.24,55.777a370.376,370.376,0,0,0-28.733,51.3H796.023a401.424,401.424,0,0,1,31.186-59.979A252.318,252.318,0,0,1,866.193,243.617Zm-32.061,0h22.484a256.808,256.808,0,0,0-35.11,43.434,411.622,411.622,0,0,0-32.831,63.643H777.507c8.137-24.723,17.527-49.3,30.992-71.762A243.58,243.58,0,0,1,834.133,243.617Zm-29.61,0h20.672a252.591,252.591,0,0,0-22.51,31.829c-14.2,23.681-23.9,49.445-32.306,75.248H759.662c8.07-27.99,16.586-56.77,30.269-82.813A238.973,238.973,0,0,1,804.523,243.617Zm-25.842,0h17.7a242.386,242.386,0,0,0-12.457,21.11c-14.3,27.231-22.984,57.059-31.319,85.966h-9.1c1.513-5.606,2.98-11.193,4.438-16.71,6.677-25.446,13.577-51.758,24.108-76.267Q775.222,250.352,778.68,243.617Zm-22.573,0h14.983q-2.738,5.529-5.279,11.427c-10.723,24.972-17.705,51.535-24.433,77.217-1.6,6.083-3.223,12.252-4.9,18.433h-7.95c3.336-12.7,6.257-25.466,9.105-37.977,4.9-21.438,9.971-43.6,16.988-64.782C755.1,246.477,755.6,245.041,756.108,243.617Zm-19.975,0h12.8c-.247.726-.5,1.444-.743,2.179-7.12,21.491-12.221,43.819-17.16,65.41-2.967,13.018-6,26.31-9.506,39.488h-7.264c5.159-19.535,8.753-39.4,12.257-58.771C729.36,276.029,732.326,259.64,736.132,243.617Zm-18.558,0h11.582c-3.67,15.693-6.546,31.629-9.328,47.1-3.583,19.8-7.255,40.129-12.593,59.973h-7.256c6.757-24.52,9.953-49.57,13.036-73.9C714.414,265.9,715.832,254.741,717.575,243.617Zm-17.714,0h10.85c-1.682,10.863-3.069,21.716-4.413,32.326-3.136,24.683-6.377,50.113-13.352,74.751h-7.654c8.119-28.066,10.434-56.866,12.682-84.811C698.561,258.549,699.155,251.1,699.861,243.617Zm-17.451,0h10.634c-.683,7.309-1.264,14.576-1.838,21.727-2.264,28.226-4.6,57.34-12.987,85.35h-8.885c9.913-30.692,11.217-62.737,12.5-93.734C682.018,252.549,682.2,248.093,682.409,243.617Zm-17.932,0h11.135q-.3,6.577-.554,13.067c-1.271,30.618-2.555,62.274-12.263,92.156q-.3.928-.612,1.854H651.205l.08-.232c11.318-33.145,12.21-68.054,13.062-101.809Zm-18.88,0h12.09l-.125,4.863c-.855,33.249-1.714,67.627-12.684,99.788-.276.81-.561,1.618-.848,2.426H630.037q1.987-5.125,3.692-10.372C643.9,308.94,644.907,275.793,645.6,243.617Zm-20.67,0h13.886c-.683,31.64-1.7,64.219-11.54,94.622-1.358,4.2-2.878,8.353-4.527,12.455h-17.69a223.809,223.809,0,0,0,7.825-21.226C621.557,301.444,623.649,272.226,624.927,243.617Zm-23.361,0H618.13c-1.246,28.077-3.312,56.7-11.725,83.841a222.843,222.843,0,0,1-8.738,23.236H577.594c3.35-7.659,6.4-15.464,9-23.452C595.508,299.768,599.051,271.453,601.566,243.617Zm-25.068,0h18.27c-2.484,27.258-5.978,54.923-14.62,81.528a255.289,255.289,0,0,1-9.975,25.548h-22.49a328.514,328.514,0,0,0,13.8-35.268C568.982,291.9,573.176,267.619,576.5,243.617Zm-26.973,0h20.12c-3.256,23.4-7.376,47.015-14.616,69.743a332.95,332.95,0,0,1-14.8,37.333H516.846c6.877-15.375,13.45-31.13,18.526-47.313C541.527,283.795,545.825,263.621,549.526,243.617Zm-39.261,0h32.357c-3.612,19.388-7.81,38.887-13.73,57.732-5.061,16.158-11.7,31.992-18.626,47.458Z" transform="translate(-212.265 0.416)" clip-rule="evenodd"/>
    </clipPath>
  </defs>
  <g id="Mask_Group_1" data-name="Mask Group 1" transform="translate(-298 -244.033)" opacity="0.05" clip-path="url(#clip-path)">
    <path id="Rectangle_91" data-name="Rectangle 91" d="M8,0H762a8,8,0,0,1,8,8v92a0,0,0,0,1,0,0H0a0,0,0,0,1,0,0V8A8,8,0,0,1,8,0Z" transform="translate(298 251)"/>
  </g>
</svg>
