<svg xmlns="http://www.w3.org/2000/svg" width="197.608" height="52.62" viewBox="0 0 197.608 52.62">
  <g id="SvgjsG1028" transform="translate(102.828 -740.14)">
    <g id="Group_1" data-name="Group 1" transform="translate(-103.22 740.14)">
      <path id="Path_1" data-name="Path 1" d="M131.886,399.239c1.992-.157,4.677.2,4.646-2.139s-3.345-2.479-5.231-2.479c-1.968,0-6,.381-5.995,2.932v1.685Zm15.164-1.553,0,15.441H153.1l0-15.337c.1-2.562,3.171-3.088,5.014-3.162,2.02-.081,6.225.219,6.225,3.3v15.2h6.044V397.686a7.806,7.806,0,0,0-5.278-7.167,21.163,21.163,0,0,0-11.3-.458C150.3,390.921,147.051,393.487,147.051,397.686Zm-110.431,0,0,15.441h6.044l0-15.337c.1-2.562,3.171-3.088,5.014-3.162,2.017-.081,6.222.219,6.222,3.3l0,15.2H59.95V397.686a7.806,7.806,0,0,0-5.278-7.167,21.163,21.163,0,0,0-11.3-.458C39.874,390.921,36.62,393.487,36.62,397.686Zm33.94-.326c.47-2.132,3.267-2.66,4.98-2.728,2.02-.081,6.193.3,6.193,3.379v.713H73.78c-4.105.121-9.283.872-9.331,6.569a7.846,7.846,0,0,0,4.673,6.942,20.493,20.493,0,0,0,13.377.226,7.785,7.785,0,0,0,5.278-7.24V397.76a7.794,7.794,0,0,0-5.278-7.24,21.142,21.142,0,0,0-11.3-.458c-3.4.836-6.576,3.292-6.74,7.3H70.56Zm4.582,6.376h6.582v1.685c0,2.549-4.026,2.93-6,2.93-1.883,0-5.2-.138-5.231-2.477S73.15,403.893,75.142,403.736Zm22.223-6.376c.411-2.192,3.228-2.662,4.965-2.732,2.017-.081,6.225.217,6.225,3.3.006,0,0,6.193,0,6.765,0,2.63-3.077,3.286-4.963,3.322L93.439,408v5.124H103.56c4.748-.034,11.036-2.045,11.036-8.365,0-2.356-.015-4.72,0-7.076a7.806,7.806,0,0,0-5.278-7.167,21.142,21.142,0,0,0-11.3-.455c-3.4.836-6.576,3.292-6.74,7.3h6.09Zm43.046,15.771H130.29c-4.748-.034-11.036-2.045-11.036-8.365v-7.008a7.788,7.788,0,0,1,5.278-7.24,20.493,20.493,0,0,1,13.377.226,7.846,7.846,0,0,1,4.673,6.942c-.053,6.352-6.486,6.554-10.7,6.593v-.023H125.3v.441c0,2.63,3.077,3.284,4.963,3.322h.023l10.127-.009Z" transform="translate(-36.228 -375.171)" fill="#fff"/>
      <path id="Path_2" data-name="Path 2" d="M736.232,337.241v21.542H754.14v-4.85H742.014V337.241Zm8.027-15.1a26.309,26.309,0,1,1-18.6,7.706A26.228,26.228,0,0,1,744.259,322.14Z" transform="translate(-572.568 -322.14)" fill="#fff" fill-rule="evenodd"/>
    </g>
  </g>
</svg>
