<svg xmlns="http://www.w3.org/2000/svg" width="53.086" height="60" viewBox="0 0 53.086 60">
  <g id="file_1_" data-name="file (1)" transform="translate(-29.5)">
    <g id="Group_4" data-name="Group 4" transform="translate(30.381 0.881)">
      <path id="Path_12" data-name="Path 12" d="M104.918,60.538a5.2,5.2,0,0,1-5.209,5.2H63.9a5.2,5.2,0,0,1-5.209-5.2V12.7A5.2,5.2,0,0,1,63.9,7.5H86.192a3.91,3.91,0,0,1,2.765,1.145l14.82,14.826a3.9,3.9,0,0,1,1.141,2.755Z" transform="translate(-56.142 -7.5)" fill="#f9f8f9"/>
      <path id="Path_13" data-name="Path 13" d="M67.437,65.738H63.913a5.212,5.212,0,0,1-5.223-5.2V12.7a5.212,5.212,0,0,1,5.223-5.2h3.524a5.212,5.212,0,0,0-5.223,5.2V60.538A5.212,5.212,0,0,0,67.437,65.738Z" transform="translate(-56.142 -7.5)" fill="#e3e0e4"/>
      <path id="Path_14" data-name="Path 14" d="M297.966,26.271v1.908H284.345a7.064,7.064,0,0,1-7.055-7.056V7.5h1.9a3.923,3.923,0,0,1,2.772,1.148L296.822,23.51A3.906,3.906,0,0,1,297.966,26.271Z" transform="translate(-249.19 -7.5)" fill="#e3e0e4"/>
      <path id="Path_15" data-name="Path 15" d="M324.091,27.311h-13.27a3.532,3.532,0,0,1-3.531-3.532V10.51a3.881,3.881,0,0,1,1.148.794L323.3,26.166A3.882,3.882,0,0,1,324.091,27.311Z" transform="translate(-275.666 -10.156)" fill="#dc4955"/>
      <path id="Path_16" data-name="Path 16" d="M83.637,239.047H41.687a4.693,4.693,0,0,1-4.687-4.7V217.2a4.693,4.693,0,0,1,4.687-4.7h41.95a4.693,4.693,0,0,1,4.687,4.7v17.15A4.693,4.693,0,0,1,83.637,239.047Z" transform="translate(-37 -188.562)" fill="#dc4955"/>
      <path id="Path_17" data-name="Path 17" d="M44.635,239.047H41.7a4.7,4.7,0,0,1-4.7-4.7V217.2a4.7,4.7,0,0,1,4.7-4.7h2.937a4.7,4.7,0,0,0-4.7,4.7v17.15A4.7,4.7,0,0,0,44.635,239.047Z" transform="translate(-37 -188.562)" fill="#c42430"/>
    </g>
    <g id="Group_5" data-name="Group 5" transform="translate(29.5 0)">
      <path id="Path_18" data-name="Path 18" d="M80.044,24.921V19.606a4.744,4.744,0,0,0-1.4-3.376L63.82,1.4A4.759,4.759,0,0,0,60.433,0h-22.3a6.091,6.091,0,0,0-6.09,6.079V16.656a.879.879,0,1,0,1.758,0V6.079a4.331,4.331,0,0,1,4.332-4.321h22.3a3.014,3.014,0,0,1,.742.094V9.7a.879.879,0,0,0,1.758,0V3L77.043,17.114H65.576a2.647,2.647,0,0,1-2.644-2.644V13.8a.879.879,0,0,0-1.758,0v.672a4.407,4.407,0,0,0,4.4,4.4H78.2a3.031,3.031,0,0,1,.09.734v4.565a5.553,5.553,0,0,0-1.267-.147H73.88a.879.879,0,0,0,0,1.758H77.02a3.813,3.813,0,0,1,3.809,3.809V46.7a3.813,3.813,0,0,1-3.809,3.809H55.389a.879.879,0,1,0,0,1.758H77.02a5.553,5.553,0,0,0,1.267-.147v1.8a4.331,4.331,0,0,1-4.332,4.321H38.131A4.331,4.331,0,0,1,33.8,53.921v-1.8a5.553,5.553,0,0,0,1.267.147H51.287a.879.879,0,0,0,0-1.758H35.066A3.813,3.813,0,0,1,31.258,46.7V29.59a3.813,3.813,0,0,1,3.809-3.809H69.779a.879.879,0,1,0,0-1.758H35.066a5.553,5.553,0,0,0-1.267.147V20.758a.879.879,0,0,0-1.758,0v4.163A5.565,5.565,0,0,0,29.5,29.59V46.7a5.565,5.565,0,0,0,2.542,4.669v2.552A6.091,6.091,0,0,0,38.131,60H73.955a6.091,6.091,0,0,0,6.09-6.079V51.369A5.565,5.565,0,0,0,82.586,46.7V29.59a5.565,5.565,0,0,0-2.542-4.669Z" transform="translate(-29.5 0)"/>
      <path id="Path_19" data-name="Path 19" d="M337.108,263.183a.881.881,0,0,0,0-1.762h-5.387a.881.881,0,0,0-.881.881v13.292a.881.881,0,0,0,1.762,0V269.7h4.078a.881.881,0,1,0,0-1.762H332.6v-4.758Z" transform="translate(-295.54 -230.81)"/>
      <path id="Path_20" data-name="Path 20" d="M219.829,276.352a.969.969,0,0,0,.911,1.092c.111,0,2.73-.011,3.774-.029a5.62,5.62,0,0,0,4.436-2.257,8.387,8.387,0,0,0,1.569-5.092c0-4.413-2.463-7.378-6.128-7.378h-3.68a.886.886,0,0,0-.881.895Zm4.561-11.9c3.219,0,4.366,2.9,4.366,5.616,0,3.246-1.758,5.544-4.274,5.588-.656.011-1.982.02-2.868.024,0-1.453-.014-4.319-.014-5.626,0-1.093-.005-4.1-.008-5.6h2.8Z" transform="translate(-197.537 -231.928)"/>
      <path id="Path_21" data-name="Path 21" d="M121.177,261a.887.887,0,0,0-.881.881v13.39a.881.881,0,0,0,1.762,0v-4.94c.873,0,2.194-.012,2.848-.012a4.66,4.66,0,1,0,0-9.319h-3.729Zm6.7,4.66a2.975,2.975,0,0,1-2.972,2.9c-.649,0-1.951.007-2.827.012,0-.9-.012-2.247-.012-2.909,0-.557,0-1.966-.007-2.9h2.845A2.975,2.975,0,0,1,127.877,265.663Z" transform="translate(-109.661 -230.441)"/>
    </g>
  </g>
</svg>
