<svg id="Group_884" data-name="Group 884" xmlns="http://www.w3.org/2000/svg" width="420.343" height="556.351" viewBox="0 0 420.343 556.351">
  <path id="Path_1338" data-name="Path 1338" d="M2106.718,1786.624s62.4,37.3,50.21,296.961c0,0-23.67,175.019-91.1,177.17l-32.277,13.629-33,2.871-32.277-7.174-31.562-2.871-22.952-1.434-22.955,3.585-9.326-.715-15.062-2.871-22.237-10.044-17.214-10.759-11.478-12.192L1805.453,2217l-15.781-17.214-9.325-25.822-11.474-31.562-4.3-12.911-12.2-37.3-5.022-30.843v-55.233l1.437-24.388-.718-10.278-.477-23.674,7.65-37.3,7.413-33.234,15.539-33.472,11.477-32.281,24.15-33.711s16.02-11.958,16.734-13.153,18.176-14.824,18.176-14.824,5.256-4.78,6.932-4.78,19.366-2.871,19.366-2.871l22.717-1.672,21.038-2.632,26.063-2.152,20.561-.238,27.5-3.347,28.212-1.437,27.735,6.7,5.979,1.195,16.019,4.3,10.521,10.521Z" transform="translate(-1741.707 -1727.361)" fill="#f7ea84"/>
  <g id="Group_883" data-name="Group 883" transform="translate(0)">
    <path id="Path_1339" data-name="Path 1339" d="M2163.984,1950.715c-.757-7.521-1.824-19.983-2.4-27.517-.316-4.171-7.169-46.145-11.645-60.883-4.522-14.9-16.453-51.737-29.348-73.044-5.71-9.432-11.521-18.421-18.855-26.47a78.989,78.989,0,0,0-35.717-22.3c-6.073-1.882-12.509-2.847-18.324-5.28-17.343-7.252-34.745-6.264-52.663-2.507-9.392,1.968-19.21,2.108-28.86,2.741-8.4.551-16.929-.074-25.217,1.086a247.35,247.35,0,0,1-41.876,2.468,140.341,140.341,0,0,0-28.122,2.391c-6.007,1.05-11.911,3.659-17.374,6.479-7.213,3.722-14.641,7.557-20.737,12.743-9.189,7.822-18.1,16.234-25.638,25.56-6.912,8.561-12.071,18.535-17.542,28.138-3.042,5.338-5.163,11.185-7.654,16.816-2.913,6.577-6.049,13.071-8.6,19.78-3.332,8.76-6.167,17.707-9.259,26.552-1.594,4.55-3.539,9-4.819,13.626-.66,2.378.078,5.1-.316,7.58-2.019,12.661-4.253,25.291-6.307,37.943-.855,5.272-1.609,10.572-2.132,15.883-.605,6.124-.843,12.278-1.347,18.41-.879,10.677-2.047,21.334-2.683,32.023-.332,5.592.242,11.235.332,16.851.183,11.3-.211,22.635.621,33.886s2.7,22.44,4.436,33.609c1.113,7.162,2.523,14.309,4.3,21.342,3.456,13.656,6.873,27.337,13.055,40.169,3.843,7.975,2.863,17.531,8.459,25.017,1.332,1.777,1.875,4.116,2.831,6.17,3.363,7.229,6.69,14.473,10.166,21.65a66.858,66.858,0,0,0,3.714,5.905c3.136,5.045,5.854,10.4,9.509,15.051,2.707,3.44,6.944,5.686,9.923,8.967,4.894,5.389,9,11.485,14.051,16.71a66.992,66.992,0,0,0,12.255,9.4c6.346,4.042,13.383,7.123,19.4,11.56a38.52,38.52,0,0,0,15.433,7.295c8.865,1.82,17.7,3.479,26.8,2.105,7.889-1.2,15.766-2.469,23.666-3.554a16.023,16.023,0,0,1,4.749.434c3.937.675,7.826,1.789,11.79,2.109,6.354.508,12.836-.246,18.644,3.452,1.316.84,3.4.6,5.144.7,9.291.554,18.6.82,27.86,1.683,5.241.484,10.435,2.925,15.57,2.714,8.939-.371,35.17-3.631,39.263-4.545,16.617-3.7,32.324-9.834,45.142-20.889,8.556-7.385,15.621-16.473,23.068-25.033,6.553-7.533,11.985-15.8,15.246-25.306,2.688-7.826,5.5-15.609,8.357-23.376,1.625-4.417,3.91-8.643,5.081-13.161,2.87-11.063,5.588-22.189,7.783-33.4,3.956-20.179,9.568-40.017,9.74-60.911.133-15.992,3.964-29.375,3.847-47.941-.117-18.644.324-34.073-.863-52.589C2165.7,1975.553,2164.652,1957.382,2163.984,1950.715Zm-308.052-178.85c-.07.144-.105.332-.223.425-8.217,6.745-8.217,6.745-16.363-2.659C1848.329,1761.72,1852.332,1762.255,1855.932,1771.866Zm-30.734,9.1c7.912-9.564,10.326-9.5,17.019.914.648,1.011-.094,3.683-1.1,4.764a91.08,91.08,0,0,1-8.134,7.073,37.65,37.65,0,0,0-2.929-5.128,76.407,76.407,0,0,0-5.7-6.292A13.027,13.027,0,0,1,1825.2,1780.965Zm-31.773,48.757,1.816-.137c3.128,5.389,6.706,10.587,9.173,16.25,1.074,2.468.34,6.014-.417,8.857-1.059,3.987-2.906,7.771-4.167,11.013-4.487-5.062-8.775-9.873-13.009-14.723-.645-.734-1.687-1.917-1.464-2.472C1787.926,1842.2,1790.7,1835.975,1793.425,1829.722Zm6.549,1c10.427,8.345,11.044,9.7,6.913,13.243C1804.679,1839.732,1802.4,1835.365,1799.974,1830.722Zm-17.8,26.771c7.858-.2,13.325,10.563,13.665,10.322.848.656,2.526,1.582,2.41,1.933-1.652,4.964-3.55,9.853-5.37,14.7-5.6-5.3-10.584-10.009-16.161-15.277C1778.128,1866.147,1780.151,1861.816,1782.169,1857.493Zm-10.56,33.171a110.035,110.035,0,0,1,2.6-11.091c7.943,1.3,12.223,7.611,14.293,13.1,2.058,5.467-.25,12.517-.711,19.979-5.725-5.737-10.767-10.388-15.231-15.528C1771.333,1895.7,1771.324,1892.781,1771.61,1890.664Zm-2.386,14.59c7.541,1.32,11.173,6.979,15.176,11.947,5.42,6.729-2.375,11.708-2.222,17.769-5.8-5.651-11.231-10.931-16.59-16.148C1766.74,1914.522,1767.943,1910.03,1769.224,1905.254Zm-3.57,16.578c5.733,5.936,16.071,18.1,15.747,18.5-1.527-1.121-3.035-2.261-4.577-3.355-3.054-2.167-6.038-4.44-9.217-6.416C1764.135,1928.409,1763.53,1925.784,1765.654,1921.832Zm-2.515,10.177c7.439,3.062,15.535,5.991,18.1,13.906,1.929,5.952,3.94,12.974.2,19.429-5.87-5.772-11.048-10.65-15.977-15.762C1760.569,1944.51,1760.488,1938.6,1763.139,1932.009Zm-3.191,24.416c10.228.438,14.465,8.236,20.034,14.094.82.859-.152,3.234-.043,4.894.41,6.311.93,12.614,1.4,18.886-5.608-5.991-10.712-13.6-17.781-18.452C1754.751,1969.8,1760.148,1963.1,1759.948,1956.425Zm-3.913,40.841c-.028-3.424.687-6.85,1.062-10.278.3-2.726,1.335-4.257,4.374-2.687,2.687,1.386,6.2,2.14,7.893,4.28a66.958,66.958,0,0,1,8.908,14.707c1.046,2.417-.477,5.827-.5,8.787-.023,2.87.383,5.749.719,10.228-4.062-3.234-7.069-5.612-10.056-8.014-2.468-1.984-4.608-4.725-7.424-5.847C1755.258,2006.159,1756.071,2001.535,1756.036,1997.266Zm-.586,19.808c7.923,1.453,14.422,3.749,20.127,8.732,5.366,4.69,5.834,9.978,4.847,16.269-.527,3.359.051,6.885.109,9.3-6.737-4.2-13.845-8.568-20.862-13.067-1.14-.726-2.593-1.941-2.726-3.062C1756.25,2029.4,1755.938,2023.5,1755.45,2017.074Zm2.28,44.989c.086-5.093-.66-10.2-1.125-16.371,6.158,2.366,11.626,3.815,16.39,6.478,4.7,2.628,8.893,6.264,8.795,12.594-.031,1.965.863,3.964,1.441,5.917,1.2,4.069,2.729,12.759,2.233,13.048-1.648-1.367-3.655-2.483-4.886-4.147-4.409-5.963-10.7-8.6-17.574-10.642C1759.9,2068.014,1757.664,2066.058,1757.73,2062.063Zm4.7,17.351c.387-.8,2.492-1.527,3.464-1.227a41.709,41.709,0,0,1,19.472,12.138c1.964,2.25,2.031,6.112,2.905,9.255.637,2.273.656,4.89,1.875,6.779,2.078,3.207,4.2,6.038.718,9.365-7.561-5.311-15.25-10.563-22.76-16.055C1764.014,2096.675,1760.39,2083.624,1762.432,2079.414Zm13.688,55.708c-5.065-7.327-8.466-15.266-7.8-24.479,8.275-1.1,11.868,5.808,17.824,7.951,5.76,2.074,6.725,6.943,8.037,12.052,1.457,5.65,3.987,11.04,5.03,17.062-3.194-2.425-6.213-5.139-9.646-7.178-2.5-1.488-5.573-2.05-8.361-3.1C1779.44,2136.759,1777.018,2136.423,1776.12,2135.123Zm3.788,15c-.523-.851-.539-2.8.055-3.315a4.911,4.911,0,0,1,3.749-.8c5.292,1.129,10.521,2.526,14.942,3.62,4.331,8.861,11.84,25.869,11.559,26.111-7.822-5.17-15.914-10.005-23.337-15.684C1783.786,2157.683,1782.025,2153.579,1779.908,2150.119Zm12.313,30.234a72.314,72.314,0,0,0-3.382-7.713l.645-1.147c7.334,3.3,14.676,6.576,22,9.9a4.743,4.743,0,0,1,1.761,1.332c3.886,5.115,12.04,16.839,12.2,17.332-6.975-2.4-13.973-4.562-20.769-7.217C1798.771,2190.531,1794.2,2186.684,1792.222,2180.353Zm12.61,21.381c-.625-1.542-2.059-2.772-3.875-5.123,6.8,1.281,12.442,2.112,17.957,3.464,3.7.906,6.475,2.507,7.424,7.225.906,4.495,4.183,8.529,5.632,13.625-2.168-1.582-4.335-3.164-7.233-5.28C1817.278,2215.774,1807.991,2209.545,1804.832,2201.734Zm40.7,41.7c-1.156-.77-1.207-3.1-2.352-3.944-4.194-3.089-8.291-6.811-13.083-8.471-4.959-1.718-6.854-5.018-9.142-9.361,8.627.453,15.438,2.363,20.334,9.908,4.093,6.3,9.841,11.568,15.836,18.414C1852.492,2247.415,1848.86,2245.65,1845.537,2243.436Zm15.074,14.473c3.147-2.979,9.251-1.7,15.074,4.71C1870.589,2261.024,1865.488,2259.431,1860.611,2257.908Zm35.975,5.647q-12.039-7.305-24.073-14.609c.36-.516,20.452,2.9,24.893,13.313C1897.133,2262.692,1896.859,2263.125,1896.587,2263.555ZM1908,2248.762c-1.27-.949-3.019-1.277-4.546-1.89.027,1.73-.348,3.592.183,5.162.625,1.852,2.359,6.058,1.988,6.506-6.822-4.67-13.645-9.337-20.834-14.254l-2.578,2.194c-8.393-2.608-16.465-4.967-24.415-7.677a21.889,21.889,0,0,1-6.479-3.976c-2.53-2.069-4.745-4.506-7.443-7.127.832-.645,2.042-1.589,3.4-2.644.906,2.109,1.554,3.612,2.906,6.756.836-5.987,3.741-4.608,6.467-4.069,10.868,2.14,20.561,6.9,29.871,12.606,1.73,1.058,3.851,1.5,5.788,2.23.191-.395-10.556-9.662-16.722-12.735-10.466-5.226-21.412-9.529-32.2-14.142-1.113-.476-3.159-.015-3.577-.695-1.816-2.94-3.187-6.147-4.717-9.255,1.132-.477,2.519-1.625,3.351-1.32,5.053,1.875,10.013,4.011,14.938,6.206,2.3,1.023,7.5,2.839,7.908,2.476-1.484-1.871-2.714-4.026-4.5-5.561-7.131-6.135-15.508-10.072-24.525-12.786-5.014-1.507-11.575-9.826-12.051-15.71,7.486,3.428,14.679,6.8,21.971,9.966.992.433,2.46-.188,3.706-.324-.57-.992-.9-2.3-1.746-2.925-6.8-5.006-13.594-10.017-20.588-14.746-3.386-2.289-7.287-3.835-10.759-6.011-1.55-.976-3.257-2.48-3.8-4.093-1.523-4.577-2.484-9.333-3.909-15,3.3,1.679,6.334,3.312,9.447,4.784,11.333,5.362,20.385,13.7,29.188,22.182,7.353,7.084,14.02,14.879,20.736,22.573,6.225,7.127,12.106,14.543,18.172,21.8.339.406,1.011.542,2.1.234-8.658-11.383-16.895-23.111-26.1-34.062-9.169-10.911-19.308-21.038-29.247-31.758-4.9,1.316-6.971-4.284-11-6.042-1.874-.82-2.874-3.5-4.386-5.24-.664-.766-1.929-2.012-2.37-1.816-4.854,2.093-6.182-2.226-7.7-4.588-2.261-3.523-3.616-7.67-4.877-11.7-.348-1.121.723-3,1.691-4.042.468-.5,2.526-.274,3.323.324,3.772,2.828,7.291,5.979,11.032,8.854,3.413,2.62,7,5.03,10.821,7.76,1.492-5.1-2.913-7.436-5.053-10.373a90.7,90.7,0,0,0-11.935-13.051c-1.753-1.621-4.917-1.68-7.131-2.96-1.672-.968-3.812-2.6-4.081-4.206-.871-5.2-.977-10.525-1.461-16.949,5.644,3.835,10.548,7.236,15.54,10.509a21.691,21.691,0,0,0,3.917,1.6c-.129-1.363.175-2.972-.457-4.05-5.178-8.845-10.755-17.273-20.507-22.225-3.472-1.765-5.694-4.768-3.823-9.517.762-1.933-.617-4.823-1.378-7.166-1.769-5.417-.765-10.513,1.757-17.374,7.088,8.579,13.52,16.148,19.707,23.9,8.427,10.572,12.653,23.056,16.707,35.663,6.084,18.933,12.84,37.624,22.869,55,.773,1.339.972,3.011,1.781,4.319a8.635,8.635,0,0,0,3.8,3.183c-5.034-13.665-9.978-27.364-15.129-40.993-5.389-14.262-11.017-28.435-16.457-42.681-1.656-4.339-2.6-8.994-4.683-13.1a71.53,71.53,0,0,0-7.854-11.372c-4.135-5.272-8.666-10.247-12.762-15.547a19.522,19.522,0,0,0-9.947-6.975c-1.824-.6-3.413-4.315-3.628-6.741-.449-5.038-.531-10.114-1.269-15.148-.141-.977.375-2.047.679-3.511,15.637,4.116,24.974,14.36,31.676,27.587a31.762,31.762,0,0,0,6,8.553c-2.171-4.983-4.472-9.916-6.49-14.953a57.4,57.4,0,0,0-16.945-23.667c-.867-.707-1.781-1.828-2.73-1.89-6.846-.441-8.033-6.744-10.114-10.806-1.859-3.64-.762-9.009-.172-13.516,1.011-7.775,1.183-7.608,8.072-3.343,7.2,4.452,12.813,10.157,16.254,17.847.242.539.757.957,2.2.949-1.633-3.94-2.816-8.143-5-11.763-3.261-5.409-7.217-10.412-10.9-15.574a6.219,6.219,0,0,0-1.1-.96c-2.733-2.363-8.791-1.727-6.534-8.518,1.266-3.812-.176-8.408.328-12.567.387-3.214,1.894-6.3,2.9-9.443.562-.1,1.128-.207,1.691-.309,1.98,2.753,4.042,5.452,5.924,8.268,9.228,13.793,17.921,27.747,21.1,44.415,1.277,6.717,4.9,12.974,6.542,19.655,2.784,11.357,4.967,22.857,7.154,34.339,1.191,6.275,1.879,12.645,3.176,18.956.046-12.309,1.675-24.635-1.461-36.878-4.413-17.23-8.131-34.644-13.075-51.725a109.971,109.971,0,0,0-18.741-36.413c-2.1-2.733-3.457-6.006-5.44-8.837-.9-1.289-2.558-2.047-3.765-3.156a4.223,4.223,0,0,1-1.531-2.167,72.765,72.765,0,0,1-.418-9.173,4.353,4.353,0,0,1,6.932-3.425,40.275,40.275,0,0,1,8.037,7.9c4.843,6.229,9.311,12.735,14.129,19.015-3.956-12.125-7.943-24.712-18.394-32.754-6.127-4.717-6.018-9.685-5.607-15.484.246-3.472,1.46-6.873,2.132-9.818,10.251,2.547,15.152,10.06,18.87,18.6,1.43,3.284,2.512,6.713,4.179,9.9-1.559-12.907-4.035-25.4-15.7-33.851-1.023-.739-2.132-2.391-2-3.476.777-6.28,1.914-12.517,2.925-18.765.531-.164,1.058-.328,1.585-.488,2.98,3.167,6.518,5.995,8.807,9.588,3.487,5.475,7.057,11.212,8.865,17.323,2.488,8.4,3.456,17.234,4.9,25.908,1.433,8.643,2.964,17.289,3.854,25.994.7,6.811.266,13.723.782,20.561.214,2.819,1.929,5.5,2.394,8.338,1.008,6.143,1.878,12.325,2.375,18.527.418,5.225.23,10.5,1.425,15.812.227-5.053.917-10.138.593-15.16-1.226-18.929-2.456-37.866-4.334-56.736-1.121-11.271-3.647-22.4-5.178-33.644-1.621-11.876-4.421-23.3-11.333-33.4a36.532,36.532,0,0,0-4.9-5.87c-5.053-4.811-5.151-10.368-.059-15.379-3.026-3.456-5.288-1.944-9.681,6.354-3.71-3.651-7.526-7.291-11.153-11.1a3.2,3.2,0,0,1-.484-3c3.19-5.187,6.6-10.244,10.716-16.531,3.8,4.971,6.952,9.087,10.1,13.2l.852-.375c-.691-1.851-1.386-3.7-2.277-6.085,1.652,1.234,3.046,2.277,4.686,3.5-.683,2.695-1.823,5.374-1.9,8.088-.059,2.015.621,4.874,2.065,5.972,6.377,4.842,10.306,11.212,13.321,18.3a23.7,23.7,0,0,0,2.405,4.905c1.464-8.705-1.054-16.438-6.721-22.928-6.827-7.818-7.529-6.506-1.96-17.636a17.58,17.58,0,0,0,.929-3.64l-1.769-.656c-1.617,2.082-3.233,4.167-5.131,6.608-4.229-4.206-8.466-8.416-12.981-12.9,2.582-3.929,5.245-7.986,8.044-12.251,5.6,3.737,7.525,9.064,8.846,14.856,1.738-5.284-1.648-9.361-3.854-13.7.488-.234,4.124,3.769,5.4,6.034,2.1,3.733,1.363,9.361,7.4,10.5.559.105,1.465,1.464,1.3,1.753-2.082,3.694,1.785,5.213,2.757,7.768,2.238,5.862,4.206,11.821,6.163,17.781.777,2.359,1.226,4.823,1.823,7.24l1.707-.164c-.488-6.444-.91-12.9-1.48-19.331-.73-8.209-5.112-14.8-9.939-21.2-.723-.957-1.718-2.8-1.328-3.308,2.945-3.862,3.031-10.2,9.959-11.06,2.289,6.167,4.635,12.423,6.928,18.7.957,2.629,1.558,5.4,2.745,7.916,2.7,5.733,1.578,11.552,1.042,17.438-.769,8.518-1.27,17.058-1.886,25.587-.292,4.093-.82,8.181-.824,12.274a34.11,34.11,0,0,0,1.968,11.826c.516-4.862,1.1-9.717,1.527-14.587.739-8.482.075-17.332,2.348-25.388,3.944-13.973.734-27.118-2.578-40.271-1.445-5.729-5.358-10.841-7.975-16.316-.426-.895-.062-2.246.2-3.32.133-.523.882-.9,1.347-1.343,6.9-6.611,8.463-6.44,12.142,2.679,2.8,6.939,4.78,14.192,7.065,21.116.98-18.245-3.218-30.243-15.875-44.232,4.815-5.322,11.306-7.545,18.066-8.642a49.805,49.805,0,0,1,13.543.1c1.055.125,2.43,2.925,2.554,4.578.895,11.911-2.9,23.119-5.784,34.456-2,7.885-4.1,15.75-6.069,23.647a10.2,10.2,0,0,0,.191,3.05l1.3.359c2.843-7.717,6.014-15.332,8.431-23.174,2.589-8.408,4.468-17.024,6.658-25.548.078-.309.3-.664.219-.921-2.109-6.565,3.632-10.548,5.319-15.852,1.214-3.808,4.472-4.354,7.479-5.1,2.507-.625,5.214-.469,8.061-.672-10.068,11.805-19.792,39.873-19.41,40.115,1.281-1.894,2.488-3.843,3.866-5.667,1.547-2.05,3.32-3.94,4.878-5.983,5.307-6.975,9.408-15.43,16.141-20.608,7.857-6.045,17.093-12.067,29.04-8.373-7.049,3.538-14.423,6.581-21.054,10.755-6.678,4.21-18.351,15.208-18.085,15.614,4.12-2.375,8.123-4.979,12.392-7.073,7.357-3.6,14.855-6.943,22.346-10.282a37.913,37.913,0,0,1,7.646-2.664,7.544,7.544,0,0,1,5.44,1.32q10.28-2.941,20.561-5.874c.289.613.574,1.23.863,1.843-2.956,2.656-3.718,6.561-10.009,6.862a54.3,54.3,0,0,0-27.813,9.532,198.637,198.637,0,0,1-18.647,11.755c-8.643,4.538-15.734,10.736-22.077,17.839a182.46,182.46,0,0,0-14.2,17.371c-3.194,4.616-5.19,10.025-7.748,15.071-3.136,6.186-8.841,19.2-8.537,19.538a28.82,28.82,0,0,0,3.117-3.144c9.388-12.79,18.405-25.856,28.165-38.365,7.522-9.642,15.184-19.675,26.732-24.955,10.052-4.6,20.8-7.748,31.227-11.56a26.088,26.088,0,0,0,2.554-1.246c-.906,4.807-2.644,6.17-10.4,8.33a65.681,65.681,0,0,0-25.275,13.9q11.933-4.944,23.857-9.876c.648,1.477.917,1.781.863,2.007-1.64,6.807-3.843,8.111-12.813,8.58-3.694.195-7.791.316-10.931,1.921-10.153,5.19-19.538,11.513-26.212,22.861a80.078,80.078,0,0,1,41.416-19.815c.063,4-3.125,4.569-5.718,5.713-2.577,1.137-5.44,1.925-7.65,3.554-8.31,6.135-17.093,11.88-24.416,19.034-9.107,8.9-17.957,18.406-25.029,28.876-6.205,9.193-10.134,19.944-14.441,30.258a173.454,173.454,0,0,0-8.88,25.833c-2.128,8.8-2.726,17.964-3.979,26.97-.687,4.936-1.078,14.945-.609,15.012,1.047-6.788,1.835-13.625,3.214-20.347a216.813,216.813,0,0,1,5.71-23.139c3.261-10.091,6.541-20.292,11.2-29.79,4.042-8.24,9.813-15.707,15.2-23.259,4.64-6.506,9.888-12.591,14.723-18.968,7.982-10.529,20.3-14.844,31.253-21.112.609-.352,1.546-.152,2.351-.211.09,6.623-3.979,11.1-10.38,14.148a78.013,78.013,0,0,0-16.781,10.619c-5.151,4.37-9.24,9.947-14.531,15.816,1.917.16,3.136.648,3.659.25,4.733-3.608,9.482-7.229,13.965-11.13a49.914,49.914,0,0,1,19.577-10.263,7.013,7.013,0,0,0,3.995-4.3c2.148-7.943,8.166-10.189,15.391-10.388,7.9-.214,15.832-.129,23.725.313,2.386.133,4.6,2.16,7.037,2.808,2.008.531,4.226.309,7.077.457a13.783,13.783,0,0,0-15.2-6.682c-2.964.734-6.3-.07-9.443.109-6.385.363-12.758.937-19.14,1.375a11.665,11.665,0,0,1-2.542-.589c3.159-5.881,6.1-11.45,9.177-16.953a3.054,3.054,0,0,1,2.121-1.023c3.928-.387,7.908-.414,11.805-.992,11.06-1.648,21.62.878,32.238,3.265,1.737.39,3.651,0,5.487-.035-1.019-1.484-2-3-3.066-4.445a8.01,8.01,0,0,0-1.273-1.171c.293-1.859.57-3.624,1-6.385-8.037.578-15.223,1.093-22.408,1.613l-21.616,1.554c.051-6.889,7.705-15.031,16.344-15.273a108.887,108.887,0,0,1,21.533,1.773c5.39.941,10.49,3.425,15.8,4.948,1.18.336,2.7-.5,4.542-.894-9.942-12.786-22.857-13.586-36.733-11.653-2.558.355-5.233-.1-8.1-.191,6.611-4.851,13.379-8.416,21.737-8.1,5.331.2,10.919-.89,15.937.359,5.1,1.27,9.6,4.792,14.47,7.119,1.109.531,2.644.207,4.1-.48-12.817-12.153-29.024-11.544-46.559-12.438,2.937-2.3,4.929-4.46,7.4-5.678,5.292-2.612,10.951-2.238,16.727-1.4,5.069.734,10.364.1,15.371,1.047,5.034.953,9.865,3.019,14.719,4.772a45.594,45.594,0,0,1,5.511,2.863c1.16-5.5-1.7-8.264-6.627-9.006-5.8-.87-11.372-3.147-17.152-4.3-5.936-1.191-12-1.738-18.007-2.628a3.034,3.034,0,0,1-2.312-2.011c5.741.027,11.556-.523,17.195.214a203.237,203.237,0,0,1,26.322,5.034c3.987,1.07,7.354,4.334,11.063,6.494.839.488,2.425,1.035,2.824.672.718-.656,1.41-2.562,1.042-2.937a52.088,52.088,0,0,0-6.115-5.077,14.252,14.252,0,0,1-3.574-2.964c13.957-.375,35.019,7.924,36.706,13.036-1.754-.836-3.464-1.777-5.268-2.472a51.994,51.994,0,0,0-7.2-2.367,17.112,17.112,0,0,0-7.541.031q2.923,1.582,5.846,3.152c-.25.406-.5.812-.758,1.218-5.1.859-10.365,1.223-15.285,2.679-8.084,2.4-14.168,7.385-19.889,13.805-12.552,14.075-22.526,29.762-32.172,45.673-3.976,6.553-6.631,13.969-9.213,21.225-3.362,9.451-6.053,19.128-9.228,29.341-8.682-6.175-18.054-6-27.345-4.339-6.745,1.2-13.262,3.581-19.894,5.409-1.828.5-3.686.9-5.5,1.335a18.189,18.189,0,0,1,12.7-22.42c5.28-1.34,10.5-3.285,15.859-3.8,4.144-.4,8.6.535,12.685,1.691,5.264,1.488,8.529,1.019,11.876-3.476l-13.1-4.823c.2-.543.4-1.086.6-1.628l14.086,4.839c-1.953-4.445-7.721-7.819-14.668-7.19-10.9.98-21.85,2.089-32.117,6.366a3.476,3.476,0,0,1-3.069-.348,3.651,3.651,0,0,0-6.252,1.012c-1.355,9.267-8.322,12.446-15.6,16.445a48.511,48.511,0,0,0-20.667,21.334c-.434.894.024,2.2.067,3.319,1.1-.344,2.542-.371,3.257-1.089a147.7,147.7,0,0,0,11.067-11.821c3.569-4.464,8.505-5.394,13.961-6.706-1.6,6.1-2.7,11.884-4.768,17.312-.746,1.96-3.644,3.39-5.85,4.515-9.251,4.729-16.367,11.771-22.4,19.874-9.759,13.106-16.3,27.938-22.3,42.9a120.86,120.86,0,0,0-8.974,43.2c-.106,6.6-1.168,13.188-1.6,19.792a57.961,57.961,0,0,0,.367,10.946c2.351-15.48,3.948-31.121,7.256-46.4,3.815-17.613,9.626-34.569,18.854-50.519A112.146,112.146,0,0,1,1904.893,1891c2.644-2.132,6.186-3.175,9.251-4.834,2.726-1.48,5.358-3.125,8.033-4.694-.184-.465-.371-.93-.554-1.395l3.425,1.058c-.16-.433-.317-.867-.477-1.3,5.174-1.738,10.283-3.7,15.535-5.144,4.776-1.312,9.693-2.663,14.59-2.831,2.905-.1,5.834,2.281,8.873,3.12,1.714.473,3.679.074,5.53.066-.52-1.785-.546-3.968-1.652-5.28-3.209-3.819-7.283-3.675-12.5-1.652-4.616,1.784-9.756,2.226-14.61,3.475-5.534,1.426-11,3.089-16.21,4.569-.5-1.191,20.62-9.919,31.933-12.407,6.827-1.5,13.161,1.375,19.039,4.491,1.07.566,1.492,3.554,1.16,5.217-3.085,15.356-6.4,30.668-9.478,45.185-5.823-.34-12.833.472-19-1.395-9.412-2.843-16.574,1.4-24.326,4.612-3.831,1.585-7.556,3.581-11.54,4.589-3.55.9-4.854,3.276-5.8,6.042-1.558,4.573-2.777,9.255-4.241,14.239-12.676,4.194-33.007,34.257-32.511,49.249,3.347-3.972,6.842-7.834,9.982-11.958a68.078,68.078,0,0,0,7.385-11.149c3.289-6.749,9.041-11,14.688-15.453.125-.1.242-.332.348-.324,10.7.84,7.3-8.357,8.462-12.95,2.05-8.1,2.339-9.736,11.13-12.181,7.4-2.062,14.668-4.94,22.213-6.057,5.562-.824,11.537.219,17.2,1.16,4.272.711,4.511,4.593,4.121,8.01-.492,4.312-1.387,8.58-2.093,12.774-3.136-.895-6.346-2.816-9.256-2.453a247.54,247.54,0,0,0-27.028,4.944c-4.065.977-7.736,3.522-11.411,5.565,8.158-2.273,16.218-5.022,24.509-6.69,7.959-1.6,15.879-.773,22.838,3.933-18.687-6.865-35.05-.184-51.249,8.131,17.269-8.053,34.253-11.333,50.389,2.292.075,2.819.153,5.815.239,9.166-20.78-4.015-36.6,7.163-53.409,15.945-.637-8.4-1.23-16.265-1.827-24.138-.527-.082-4.988,11.93-6.725,18.144-6.143.328-9.123,5.35-12.317,9.568a127.463,127.463,0,0,0-24.318,54.553c-2.015,11.1-3.554,22.537-3.152,33.749.645,17.9,2.945,35.757,4.862,53.6.515,4.823,2.175,9.529,3.94,14.254-.547-7.182-1.207-14.36-1.6-21.553-.652-11.653-1.293-23.314-1.633-34.983-.227-7.76-.57-15.6.289-23.283,1.3-11.653,2.691-23.358,7.943-34.237,2.714-5.616,4.358-11.72,6.838-17.461,4.077-9.431,10.416-17.558,19.237-22.705,5.058-2.952,11.025-4.979,16.609-7.26,7.237-2.953,14.613-6.706,22.916-5.92a157.945,157.945,0,0,1,18.039,2.6c1.492.321,3.16,2.734,3.55,4.448a14.933,14.933,0,0,1-.492,7,5.438,5.438,0,0,1-3.011,2.937c-6.885,2.788-14.234,4.687-20.706,8.174-7.8,4.2-14.828,9.775-22.307,14.575-2.16,1.386-4.729,2.159-7.295,3.3-.031-8.022-1.094-23.451-1.593-23.538-.863,4.5-1.6,9.029-2.656,13.485-.418,1.754-1.125,4.179-2.464,4.867-9.1,4.674-13.355,13.118-16.636,21.654-3.753,9.759-6.417,20.042-4.921,30.992a72.944,72.944,0,0,1,22.963-34.709c1.851,9.662,1.9,18.518-5.151,26.466a52.724,52.724,0,0,0-9.88,15.547c-2.413,6.271-2.917,13.246-4.253,19.917l1.242.559c2.839-4.19,5.737-8.35,8.5-12.586,2.16-3.312,3.987-6.842,6.315-10.025.859-1.172,2.73-1.625,4.136-2.406.723,1.347,1.82,2.632,2.089,4.061.808,4.3,1.113,8.7,1.957,12.993.96,4.9-.488,8.8-3.706,12.583-4.038,4.741-8.2,9.548-11.2,14.926a58.659,58.659,0,0,0-6.186,16.609c-1.988,9.767-3.124,19.714-4.315,29.622a88.411,88.411,0,0,0,4.519,39.841,9.514,9.514,0,0,0,2.14,3.14c-6.553-31.684-2.113-61.774,12.364-90.5,1.152-2.289,3.96-3.772,6.233-5.843,1.383,6.69,2.57,12.455,3.905,18.937-2.835,5.737-6.389,12.56-9.607,19.531-3.12,6.751-6.213,13.586-5.6,22.643,3.089-6.561,5.866-11.771,8.025-17.215,2.542-6.416,7.436-9.978,13.25-12.149,1.066,5.511,1.882,11.153,3.319,16.641.859,3.28-1.21,4.717-3.038,6.241-10.1,8.412-11.181,19.94-12.2,30.59,3.753-6.732,7.377-14.415,12.13-21.354,3.077-4.487,5.667-3.577,7.377,1.644a62.843,62.843,0,0,1,2.425,8.1,5.674,5.674,0,0,1-.926,4.374c-7.658,8.037-10.317,18.448-12.52,28.47-1.886,8.572.238,17.667,4.026,25.97,2.593,5.682,5.225,11.345,8.494,18.444C1919.154,2257.373,1913.644,2252.98,1908,2248.762Zm27.606-406.641c4.312-3.772,13.024-5.768,21.659-4.963l.3,1.266q-10.8,2.478-21.612,4.952ZM1911.942,2073.1c.387-10.243,6.818-16.589,15.808-20.538a191.345,191.345,0,0,1,19.253-7.135c2.363-.75,5.151-.164,7.741-.273,2.226-.094,4.448-.3,6.674-.465.137-.6.27-1.2.406-1.808-2.48-1.281-4.964-2.562-7.49-3.871,4.214-2.042,7.662-.742,8.014,3.132.7,7.83,1.218,15.676,1.8,23.307-18.7,3.273-33.976,12.739-49.578,23.116C1910.587,2084.514,1911.734,2078.554,1911.942,2073.1Zm-1.926-11.926c.1-7.65-.187-14.762.418-21.8.359-4.2,2.3-8.244,3.183-12.435.914-4.362,4.659-5.506,7.916-6.807a229.21,229.21,0,0,1,24.205-8.607c4.382-1.2,9.3-.52,14.032-.687.714,9.443,1.316,17.394,1.949,25.732-10.5-3.526-18.937,1.246-27.423,5.62-4.94,2.546-10.154,4.815-14.516,8.134C1916.077,2053.139,1913.426,2057.283,1910.016,2061.172Zm4.562,50.417c.488-5.327,1.386-11.294,4.288-15.531,2.738-4,8.1-6.542,12.731-8.939a198.428,198.428,0,0,1,19.655-8.556c2.523-.977,5.519-.711,8.182-1.418,1.269-.335,2.276-1.625,3.4-2.483-1.445-.82-3.183-2.617-4.276-2.3-7.1,2.074-14.071,4.55-21.042,7.021-2.44.867-4.753,2.085-7.127,3.144-.168-.469,10.962-7.709,17-10.142a42.241,42.241,0,0,1,13.009-2.659c1.367-.083,3.389,2.472,4.264,4.225a21.7,21.7,0,0,1,1.6,6.857c1.133,8.756,2.148,17.527,3.128,25.669-3.319.238-6.979.457-10.634.773-8.092.707-14.172,5.565-20.389,9.908-6.323,4.417-12.286,9.326-18.246,13.9C1915.179,2125.3,1913.945,2118.47,1914.578,2111.589Zm10.728,139.465c5.553,5.421,10.845,10.591,16.1,15.719C1936.111,2269.772,1926.743,2259.845,1925.306,2251.054Zm21.35-10.2c.012,4.511-.8,9.033-1.359,13.532-.227,1.832-.754,3.624-1.367,6.475-5.187-5.01-17.093-15.559-18.663-11.825-12.427-20.686-3.335-45.11,8.014-48.894.964,2.292,2.327,4.515,2.772,6.9a11.192,11.192,0,0,1-.64,6.26c-3.746,8.455-7.252,16.929-6.346,26.411a9.283,9.283,0,0,0,6.127,8.346c-6.733-5.683-2.878-11.989-1.445-18.039a21.311,21.311,0,0,1,3.1-7.4,7.25,7.25,0,0,1,5.062-2.679c1.273-.027,2.683,1.953,3.87,3.187C1951.186,2228.748,1946.64,2234.941,1946.655,2240.854Zm30.637,13.028c-1.469.125-2.905.543-5.6,1.078-1.062-2.022-2.843-5.268-4.483-8.58-3.011-6.068-2.976-6.084-8.177-1.233,1.628,2.7,3.245,5.318.191,8.638-1.1,1.2.148,4.495.375,7.51-9.583-6.862-9.521-18.077-.871-24.673a3.689,3.689,0,0,0,.7-3.511c-2.218-4.37-5.045-8.451-7.108-12.883-1.207-2.59-1.75-4.851-5.112-6.077-1.839-.671-2.5-4.28-3.827-6.49-1.824-3.034-3.854-5.952-5.627-9.013a13.119,13.119,0,0,1-1.187-3.8c-.406-1.858-.176-4.014-1.066-5.577-6.479-11.368-9.826-23.67-12.126-36.37a68.214,68.214,0,0,0-3.644-12.8c-1.944-4.925,2.086-6.811,4.655-8.76,3.4-2.574,8.029-3.562,11.5-6.069,6.932-5.011,14.778-6.663,23.021-7.373,3.75-.32,8.283-1.816,11.033-.293,2.292,1.273,2.655,6.124,3.608,9.462,1.242,4.351,2.222,8.768,3.616,14.367-7.924-3.546-13.411.688-18.979,2.875-6.194,2.429-12.134,5.514-16.434,11.3-2.7,3.628-7.342,5.862-12,9.4,1.874.531,3.323,1.254,3.577.969,5.94-6.78,14.523-9.486,22.111-13.583,5.358-2.89,11.521-4.343,17.285-6.533a44.272,44.272,0,0,0,4.686-2.469c2.788,7.646,5.569,15.258,8.1,22.213-17.112,8.236-34.385,15.426-44.57,32.375,8.229-5.264,16.273-10.845,24.744-15.7,6.6-3.777,13.707-6.7,20.651-9.873a2.555,2.555,0,0,1,2.343.738c2.886,7.116,5.62,14.293,8.326,21.3-15.386,5.249-28.422,13.3-41.981,22.5,2.059.383,3.194.6,4.249.792.281,1.484.086,3.519.992,4.276.792.66,3.413.453,4.229-.348,7.939-7.795,18.339-10.782,28.375-14.566,1.7-.645,2.925-2.507,4.366-3.808-.254-.434-.508-.863-.762-1.293-2.831.895-5.667,1.792-9.763,3.089,3.593-3.065,6.034-5.522,8.9-7.319.695-.433,3.37.938,4.171,2.109,3.1,4.561,5.932,9.321,8.587,14.152a3.706,3.706,0,0,1-.645,3.542,64.5,64.5,0,0,1-22.19,12.555,61.718,61.718,0,0,0-9.283,3.894c-3,1.511-3.889,3.976-1.815,7.854l40.767-19.862c1.5,2.351,2.945,4.6,4.155,6.491-2.144,2.78-3.909,5.624-6.232,7.932a36.3,36.3,0,0,1-7.838,5.995c-7.076,3.929-14.27,7.674-21.6,11.122C1981.913,2254.386,1979.433,2253.7,1977.293,2253.882Zm18.972,14.012c-3.233-1.344-6.51-2.628-9.6-4.241-1.121-.586-1.781-2.023-2.651-3.073a19.816,19.816,0,0,1,3.421-2.586c12.142-5.658,25.041-9.935,35.3-19.01a3.668,3.668,0,0,1,3.48.046c3.928,3.214,7.635,6.69,11.591,10.232-2.351-.535-2.363,5.995-6.01,1.883-10.72,6.526-19.5,17.652-34.933,12.286.355,2.046.535,3.062.73,4.183C1997.147,2267.718,1996.608,2268.035,1996.264,2267.894Zm25.744,5.264c-1.152.3-3.011,1.191-3.347.809-3.627-4.163-8.392-1.4-12.512-2.242a18.988,18.988,0,0,1-2.843-1.066l.457-1.867,18.281,2.578C2022.031,2271.963,2022.02,2272.561,2022.008,2273.158Zm33.679-12.5c-6.8-3.081-11.974.441-17.3,3.687a3.543,3.543,0,0,1-2.647.441c-3.8-1.406-5.5.7-6.889,3.8-3.163-.789-6.354-1.589-9.63-2.409,6.908-4.542,14.926-6.932,19.12-14.379a2.9,2.9,0,0,1,2.448-1.2q7.112,2.59,14.051,5.612c1.578.691,2.886,1.968,5.319,3.683C2058.014,2260.3,2056.578,2261.06,2055.687,2260.657ZM2162.7,2008.326c-.039,6.412-.023,12.833-.328,19.233-.586,12.141-1.117,24.291-2.175,36.393q-1.6,18.27-4.269,36.443c-.832,5.667-3.389,11.083-4.241,16.746-1.68,11.142-7.346,21.42-6.846,33.078.145,3.371-2.058,6.846-3.233,10.259-2.89,8.4-5.393,16.953-8.822,25.138-3.925,9.376-5.873,19.683-13.356,27.5-5.913,6.182-10.876,13.3-17.148,19.069-5.987,5.511-14.27,7.084-22.073,9.17-2.312.617-4.471,2-6.8,2.288-13.5,1.671-25.056-2.714-34.967-11.54-8.279-7.369-14.469-16.429-21.284-25.041-7.99-10.107-10.478-22.194-15.247-33.472-1.164-2.757-2.89-5.284-4.014-8.053-2.394-5.87-4.9-11.731-6.737-17.777-2.554-8.427-4.71-16.98-6.713-25.552-2.789-11.935-5.514-23.893-7.8-35.925-1.55-8.15-4.3-47.433-4.366-58.755-.082-13.567,1.137-27.138,1.6-40.713.274-7.923-.023-15.871.309-23.795.293-7.068,1.176-14.109,1.633-21.178.32-4.89.266-9.8.535-14.692,1.281-23.419,3.5-46.617,12.872-68.647,4.921-11.559,8.361-23.716,13.094-35.358,7.947-19.546,19.792-36.222,38.631-47.3,6.709-3.944,13.138-8.564,21.253-9.345,2.854-.274,5.967-.629,8.615.171,8.771,2.644,18.093,4.132,24.06,12.509,3.757,5.276,9.061,9.478,13.028,14.633,4.538,5.893,9.1,11.962,12.356,18.565,7.549,15.325,15.305,30.676,21.1,46.668,5.213,14.379,8.26,29.555,11.657,44.512,3.089,13.583,5.6,27.306,7.873,41.044.878,5.3.332,10.818.59,16.23.332,6.986,1.019,13.965,1.183,20.952C2162.891,1990.631,2162.758,1999.481,2162.7,2008.326Z" transform="translate(-1746.443 -1729.825)" fill="#f98c90"/>
    <path id="Path_1340" data-name="Path 1340" d="M1813.913,1814.789c4.284-5.549,9.033-11.11,16.238-13.551,2.8-.945,5.471-1.93,5.019-5.741a3.04,3.04,0,0,1,1.207-2.484,145.372,145.372,0,0,1,14.758-7.553c2.621-1.074,6.081-.156,8.72-1.2,7.717-3.054,15.234-1.808,22.9-.121,1.66.367,3.527-.184,5.3-.309l.2-1.472q-2.607-1.84-5.218-3.675l.277-.789q3.058.774,6.115,1.543l.7-1.234c-1.762-1.023-3.484-2.832-5.3-2.929-5.663-.3-11.618-.961-16.988.359-10.455,2.574-20.588,6.4-30.988,9.755,1.136-4.1,2.558-9.22,4.229-15.25-6.58,2.5-9.185,7.088-11.228,12.227-.625,1.57-1.128,3.875-2.343,4.409-5.581,2.46-8.744,7.057-12.594,11.376-10.572,11.837-15.6,25.717-17.691,40.978a6.038,6.038,0,0,0,1.222-1.093C1803.571,1830.262,1808.231,1822.147,1813.913,1814.789Z" transform="translate(-1668.102 -1612.71)" fill="#f98c90"/>
    <path id="Path_1341" data-name="Path 1341" d="M1831.341,1770.338c.219-12.024-1.292-23.744-7.221-35.213-5.206,3.69-4.976,3.608-3.19,8.271,2.8,7.322,5.323,14.754,7.822,22.182C1829.287,1767.176,1830.709,1770.448,1831.341,1770.338Z" transform="translate(-1697.421 -1714.426)" fill="#f98c90"/>
    <path id="Path_1342" data-name="Path 1342" d="M1897.787,1880.692c-2.64-14.746-5.069-29.555-8.525-44.126s-7.654-28.961-14.816-42.446c-6.893-12.978-12.829-26.571-23.744-36.839-6.042-5.686-11.954-11.294-22.084-11.739-13.606-.6-23.115,5.252-30.848,14.4-7.025,8.311-12.911,17.645-18.522,26.974-3.53,5.866-5.928,12.459-8.287,18.914-2.968,8.107-6.2,16.258-7.842,24.666-2.491,12.785-3.921,25.787-5.424,38.74-2.082,17.937-4.288,35.885-5.554,53.889-1.113,15.879-1.683,31.859-1.253,47.765.449,16.832,2.109,33.652,3.71,50.437,1.382,14.523,2.687,29.121,5.386,43.438,2.847,15.117,6.955,30.035,11.192,44.856,2.847,9.962,5.948,20.057,10.63,29.266a159.006,159.006,0,0,0,19.237,29.77,25.8,25.8,0,0,0,21.725,9.248,56.616,56.616,0,0,0,30.57-11.341c11.028-8.232,20-17.812,24.24-31.086,2.659-8.318,5.819-16.488,8.263-24.861,3.738-12.8,7.4-25.646,10.435-38.619,2.726-11.642,4.659-23.471,6.775-35.245,1.394-7.763,2.929-15.546,3.617-23.389,1.082-12.3,2.078-24.658,2.046-36.986-.035-13.708-.984-27.431-2.1-41.1C1906.113,1929.141,1899.943,1892.732,1897.787,1880.692Zm-135.505-5.733c1.871-12.38,3.522-24.814,6.108-37.057,1.687-7.971,4.842-15.641,7.338-23.447l.875-.258c.8,5.612,1.726,11.212,2.378,16.84.871,7.525,1.979,15.063,2.179,22.615.328,12.509.094,25.033-.086,37.545-.059,4.147-4.132,6.729-7.385,4.276a51.61,51.61,0,0,1-11.4-11.743C1760.9,1881.708,1761.84,1877.884,1762.282,1874.959Zm21.62,22.361c-1.765,2.722-2.909,6.584-5.436,7.889-3.5,1.812-9.357-3.257-12.918-10.356,12.048,8.791,15.629,7.431,17.148,1.8Zm-.418-8.018c3.862-13.274,1.074-22.865,1.574-33.526C1789.1,1860.857,1788.549,1881.84,1783.483,1889.3Zm-11.61,61.567c-.395.188-.785.375-1.18.566q-5.74-7.159-11.481-14.313C1759.654,1936.807,1770.483,1944.238,1771.873,1950.87Zm-12.728,53.256c-.39-5.83-1.058-11.673-.964-17.5.136-8.326,1.039-16.641,1.234-24.971.078-3.4-1.012-6.814-1.25-10.239-.133-1.9.394-3.847.679-6.245,19.261,17.984,15.024,51.179,1.582,76.008C1759.954,2014.943,1759.509,2009.538,1759.146,2004.126Zm6.237,19.792c3.124-5.03,5.3-10.634,7.822-16.019.714-1.531,1.211-3.164,1.8-4.749.7,8.939-5.175,23.748-11.028,29.485C1762.356,2027.635,1762.879,2027.952,1765.383,2023.918Zm133.271-24.443c-.73,14.781-1.667,29.629-3.878,44.25-4.144,27.391-14.364,53.01-26.349,77.9-4.479,9.3-9.759,18.32-17.488,25.591-6.866,6.463-13.86,12.646-24.2,13.075-3.034.125-6.018,1.086-9.048,1.535-8.947,1.335-15.418-2.722-19.835-9.794-4.187-6.709-8.439-13.575-11.2-20.9-6.042-16.031-11.29-32.358-16.57-48.656-1.734-5.346,2.789-15.125,7.823-18.745-1.585,5.8-4.121,18.328-3.589,18.808,2.957-9.951,9.193-17.683,16.512-24.615,3.073-2.917,5.846-2.187,6.807,1.71a199.2,199.2,0,0,1,4.706,22.749c.617,4.932-.359,10.06-.722,15.094-.043.609-.785,1.14-1.09,1.761-1.07,2.218-2.71,4.378-3.019,6.7-.973,7.314-1.258,14.715-2.156,22.041-.57,4.651,1.39,10.994,5.249,13.208,1.546-16.8,3.062-33.277,4.581-49.762.394-.031,2.234,2.773,2.214,4.195-.071,5.534-.551,11.06-.516,16.589.028,4.538.73,9.064.848,13.606.148,5.726-.593,11.294-5.01,16.3,1.472.059,2.409.1,3.877.16.239,3.124.469,6.194.7,9.263.472.074,3.479-4.807,3.624-7.373,1.031-18.323,4.292-36.612,1.874-55.018-1.062-8.076-3.3-16-4.471-24.068-.656-4.526-.152-9.208-.312-13.817-.109-3.226-.461-6.444-.7-9.665.594-.066,6.491,30.871,8.842,46.406,1.562-17.163,1.281-34.011-5.077-50.218-1.187-3.019-2.9-4.562-5.69-3.557a62.487,62.487,0,0,0-11.517,5.627,96.85,96.85,0,0,0-10.708,7.963c-6.8,5.636-9.939,13.731-14.266,21.022-.293.492-.71.91-1.738,2.2-1.394-9.006-2.851-17.059-3.737-25.166-.219-2.015,1.089-4.409,2.253-6.295,2.281-3.7,5.464-6.928,7.381-10.779a125.345,125.345,0,0,0,13.45-50.038c.328-6.8-1.582-13.88-3.456-20.565-4-14.254-10.525-27.278-21.608-37.748-3.769-3.558-.941-8.139-1.363-12.208-.359-3.456.816-7.065,1.453-11.587a50.178,50.178,0,0,0,2.62,4.5c1.938,2.609,3.523,5.8,6.108,7.534,6.3,4.21,12.227,1.937,17.027-4.058,7.455-9.314,8.361-20.374,9.029-31.16.992-16.023.4-32.14.562-48.214.063-6.166.641-12.344.434-18.5-.164-4.811-1.183-9.595-1.82-14.395-.515-.027-1.75,19.151-1.855,28.77-.465.051-4.507-13.02-4.76-12.981.188,8.611.379,17.226.57,25.978-2.363-10.079-4.628-20.627-6.92-29.875,5.569-12.2,13.887-21.6,18.855-27.216,2.979-3.37,9.649-8.83,13.325-11.446,1.5-1.066,3.757-1.1,7.03-1.961-1.422,5.866-2.824,10.431-3.566,15.094-.59,3.726-.262,7.58-.542,11.36-.6,8.006-1.394,16-1.98,24.006-.367,5.038-.754,10.095-.691,15.141.105,8.455.051,16.964,1.016,25.349,1,8.716,2.277,17.582,4.987,25.892,3.425,10.5,14.075,12.907,21.933,5.085,9.13-9.092,25.185-29.345,24.771-29.724-3.5,3.8-6.893,7.717-10.536,11.384-5.69,5.717-11.4,11.446-17.41,16.828-3.659,3.281-6.807,2.734-9.485-.542,11.2-.426,16.128-10.009,23.471-16.1-3.671,2.375-13.22,7.264-14.321,7.334a13.261,13.261,0,0,1,1.085-2.812,180.733,180.733,0,0,0,10.935-17.371c-5.885,7.662-10.669,16.171-21.608,21.116-1.332-10.447-2.832-19.882-3.655-29.376-.73-8.435-.613-16.937-1.062-25.4-.391-7.417-1.286-14.813-1.527-22.233-.363-11.071-.41-22.151-.375-33.226,0-.836,1.652-2.328,2.617-2.394,9.33-.652,18.687,3.976,25.681,9.916,9.533,8.1,23.756,30.344,27.946,44.383,4.823,16.168,8.971,29.422,11.923,48.488,2.121,13.688,3.987,25.169,5.4,38.916,1.714,16.609,2.136,33.371,2.476,50.082C1899.529,1969.713,1899.385,1984.619,1898.654,1999.475Z" transform="translate(-1505.162 -1684.283)" fill="#f98c90"/>
    <path id="Path_1343" data-name="Path 1343" d="M1797.065,1793.251c-1.887,1.769-2.9,2.757-3.953,3.7-2.32,2.085-4.592,4.217-7,6.193-2.222,1.832-5.128,3.1-6.807,5.292-4.479,5.858-8.458,12.083-12.637,18.164,6.635-16.926,14.48-33.148,26.825-46.977-.418-.262-6.264,3.7-8.771,5.94l-.5-.285c1.109-2.066,2.223-4.136,3.4-6.334-3.363,0-16.23,19.734-19.644,30.426l11.329-16.988c-.527,2.878-2.038,5.222-3.245,7.709-5.9,12.142-11.954,24.225-17.421,36.553-1.531,3.453-1.671,7.678-1.7,11.556-.054,7.592-2.562,15.3,1.215,22.775a173.782,173.782,0,0,1,7.119,15.879c4.218,10.981,10.986,20.315,18.878,28.946a31.493,31.493,0,0,0,4.593,3.5c-.879-3.3-2.492-5.749-3.773-8.357-3.409-6.936-6.612-13.961-10.013-20.9-5.448-11.118-9.435-22.635-8.908-35.124a24.616,24.616,0,0,1,2.909-11.126c3.788-6.452,8.506-12.375,12.84-18.519l1.7.906a54.569,54.569,0,0,1,4.1,26.837c-.887,8.811-.887,17.718-.992,26.583-.027,2.18,1.051,4.37,1.617,6.554l1.328.011c.882-3.194,2.48-6.385,2.5-9.583.043-6.725-.992-13.45-1.125-20.182-.164-8.354.14-16.715.226-23.955-2.082-1.226-3.5-1.578-4.046-2.457-3.886-6.284-.211-10.837,4.425-15.1-.324-.246-12.122,7.08-17.7,10.993,3.433-5.713,7.471-10.966,11.3-16.355C1788.816,1804.37,1795.8,1801.518,1797.065,1793.251Z" transform="translate(-1414.356 -1587.114)" fill="#f98c90"/>
    <path id="Path_1344" data-name="Path 1344" d="M1804.515,1811.771c-1.511,4.9-2.913,9.7-2.343,14.27,1.363,10.9-2.339,19.788-9.119,27.977-3.015,3.64-8.306,3.562-9.431-.9-2.015-7.959-6.366-15.48-5.144-24.131.726-5.167,1.684-10.365,1.656-15.547-.023-4.776,1.98-8.2,5.179-11.282,2.405-2.32,4.788-3.292,7.154.218,1.445,2.145,3.19,4.093,5.276,6.729-.242-3.218-.32-5.745-.652-8.236-.422-3.167-.973-6.338-4.769-7.5-4.2-1.286-8.057-1.086-10.833,2.733-2.515,3.464-4.831,7.064-7.237,10.607l-.64-.274c2.21-4.9,4.42-9.813,6.795-15.09-3.593.254-5.483,2.812-6.2,5.542-1.828,6.939-3.971,13.977-4.37,21.064-.976,17.292.637,34.082,13.181,48.074,6.334,7.064,13.137,7.15,16.636-1.425,2.621-6.417,3.6-13.579,4.565-20.506a162.4,162.4,0,0,0,1.168-19.847C1805.456,1820.1,1804.831,1815.93,1804.515,1811.771Z" transform="translate(-1475.499 -1551.077)" fill="#f98c90"/>
    <path id="Path_1345" data-name="Path 1345" d="M1777.515,1818.4c2.277,2.4,4.272,4.506,6.264,6.612-3.3-.645-6.362-3.855-8.564-3.362-2.71.6-4.7,4.3-7.807,7.478-.328-4.288-.566-7.451-.843-11.13-7.178,8.572-11.576,77.418-5.3,98.7-.008-7.783.387-21.729.594-21.736.355,4.706,1.734,14.176,2.066,14.2.348-2.034.7-4.069,1.148-6.736,1.016,4.4,3.632,11.833,4.062,11.743a59.435,59.435,0,0,1-1.183-6.9c-.52-8.986-1.211-17.976-1.2-26.966.011-9.138.839-18.273,1.179-27.415.14-3.8-.6-7.721.058-11.415a35.263,35.263,0,0,1,4.218-11.774c.727-1.222,5.366-1.8,6.732-.766,4.788,3.6,9,7.959,13.286,12.177,3.62,3.565,7.034,7.342,11.146,11.661C1804.684,1842.467,1785.681,1818.156,1777.515,1818.4Z" transform="translate(-1429.216 -1473.652)" fill="#f98c90"/>
    <path id="Path_1346" data-name="Path 1346" d="M1761.276,1874.588l.454.145c1.363-2.406,4.651-7.006,4.932-6.9-.8,3.214-1.6,6.428-2.562,10.259.965-.609,1.176-.664,1.226-.785,6.6-15.692,12.415-31.617,13.778-48.714.1-1.246-1.632-2.632-2.492-3.921C1771.274,1842.038,1766.275,1858.311,1761.276,1874.588Z" transform="translate(-1416.691 -1454.282)" fill="#f98c90"/>
    <path id="Path_1347" data-name="Path 1347" d="M1763.984,1755.931c7.752,16.515,15.508,33.03,23.033,49.058C1785.186,1786.638,1764.613,1755.669,1763.984,1755.931Z" transform="translate(-1435.175 -1653.983)" fill="#f98c90"/>
  </g>
</svg>
