<svg xmlns="http://www.w3.org/2000/svg" width="562.61" height="558.482" viewBox="0 0 562.61 558.482">
  <g id="Group_882" data-name="Group 882" transform="translate(4112.016 -728.18)">
    <path id="Path_1285" data-name="Path 1285" d="M-3890.748,1147.706l.109-.168.24-1.024Q-3890.563,1147.11-3890.748,1147.706Zm0,0,.109-.168.24-1.024Q-3890.563,1147.11-3890.748,1147.706Zm276.242-92.813c-.014-.033-.031-.066-.047-.1l.049.147A.448.448,0,0,0-3614.506,1054.893ZM-3975,1179.942a11.428,11.428,0,0,0,1.139-.389Zm84.251-32.236.109-.168.24-1.024Q-3890.563,1147.11-3890.748,1147.706Zm317.785-247c0-.008-.006-.016-.01-.025a274.987,274.987,0,0,0-14.805-30.469c-.1-.176-.2-.352-.3-.528q-1.908-3.367-3.912-6.677a.019.019,0,0,0-.008-.014q-1.908-3.152-3.9-6.245v0q-6.288-9.8-13.374-19.022l-.021-.027a280.245,280.245,0,0,0-123.776-91.658s0,0,0,0q-2.2-.826-4.414-1.614a.045.045,0,0,0-.021-.006c-.7-.248-1.395-.494-2.1-.735a281.654,281.654,0,0,0-92.492-15.506A280.939,280.939,0,0,0-3949.722,753.8c-.181.082-.359.164-.537.248a.127.127,0,0,0-.025.01q-3.649,1.69-7.244,3.48a280.061,280.061,0,0,0-109.124,96.707s0,0,0,.006q-6.275,9.545-11.766,19.62-5.7,10.47-10.511,21.466a273.742,273.742,0,0,0-22.846,107.4s0,.006,0,.008q-.012,1.226-.012,2.451a274.279,274.279,0,0,0,13.923,86.542.645.645,0,0,0,.02.063c18.293,53.651,53.376,100.846,98.372,135.347l.037.027a279.707,279.707,0,0,0,110.111,49.227l.053.012a283.64,283.64,0,0,0,57.188,5.794q2.316,0,4.625-.039c.074,0,.147,0,.221,0a280.125,280.125,0,0,0,215.623-106.484l.065-.084a274.122,274.122,0,0,0,59.168-170.4A273.94,273.94,0,0,0-3572.963,900.707Zm-342.48,321.05-.416-.151-3.992-1.913-3.742-9.636,6.546-21.216,26.3-41.135.109-.168.24-1.024c.024-.09.047-.178.072-.268a.132.132,0,0,0-.015.023l1.026-4.408q1.343.2,2.693.358c17.093,2.03,35.161-.207,52.135,1.022,20.278-1.012,41.59,1.884,61.742-1.423q.387-.062.774-.129l1.014,1.649-.125-.113c.119.266.24.533.363.8,10.361,22.584,29.535,41.862,33.707,66.856C-3777.772,1248.269-3864.554,1240.347-3915.444,1221.757Zm167.5-436.515q-.578-.387-1.092-.743c48.49,22.795,92.189,55.019,120.057,101.534-6.654,4.229,4.885,14.691,9.6,20.011l.192-.16,1.448,2.906-.45.025c4.891,17.765,19.829,48.549-9.266,49.89-4.968.319-9.392-2.4-14.213-3.174a92.821,92.821,0,0,1-11.582-2.81l-1.222,3.946-2.26-2.557c-32.709-15.786-69.56-27.47-105.8-29.979h0l-3.1-1.883.148-.011c-17.437-3.93-35.374-4.764-53.229-4.829-60.538,2.157-121.2,11.932-177.584,34.661-6.085,3.369-9.733,5.532-11.552,6.8l-4.766-.872.037.061a48,48,0,0,0-7.613,1c-23.354,3.267-38.253,10.883-36.771-19.448,6.7-9.825,17.882-35.794,16.208-42.761l.149.016c-.055-.033-.113-.064-.168-.1a3.461,3.461,0,0,0-.2-.58c.019.162.031.324.037.483q-2.034-1.17-4.033-2.386c1.254-.338,1.892-1.944,3.021-3.43,27.239-49.536,74.979-84.271,123.493-107.531l1.271-.638,8.909-5.222,2.587.058c49.088-13.617,100.228-17.146,149.645-1.95C-3758.94,780.354-3758.473,782.5-3747.948,785.243Zm-225.912,394.31-1.139.389c-28.838,8.266-82.992-93.953-72.147-121.614l2.154-3.451,2.041,1.228c.2.11.445.238.727.385,4.905,2.656,10.759,2.038,16.067,3.31,33.637.811,57.869,27.483,78.637,51.078,2.206,2.046,4.428,4.16,6.7,6.249-6.816,11.582-12.137,23.864-18.234,35.808l-.012.024-.006.01c-.014.029-.031.059-.047.088l-.037.068c-.239.443-.477.887-.716,1.329-.012.022-.025.047-.037.07l-.043.076v0s0,0,0,0c-4.463,7.465-7.824,15.557-12.309,22.961-.187.315-.49.758-.77,1.173l-.375.66-.076.026-.137.047Zm297.262.26-.3.053q-.519-.083-1.02-.2c-5.423-1.264-9.436-5.317-12.5-9.9.111.145.219.291.327.436-11.159-15.432-16.415-34.436-27.421-49.981-.1-.151-.213-.3-.321-.453l-1.083-3.523q.737-.712,1.458-1.442a135.734,135.734,0,0,0,16.683-20.577l.311-.529,2.349-3.7.755.04c3.365-2.431,12.638-11.752,14.031-13.536,23.985-24.179,51.931-20.847,65.409-24.3a21.689,21.689,0,0,0,2.294-.715l1.01,3.113-.121-.154q.095.172.184.35l.049.147c0,.32,0,.639,0,.961-.153,40.109-26.86,96.512-60.122,120.972q-.873.642-1.751,1.253c.541-.115,1.087-.252,1.636-.416Zm-214.15-32.107.109-.168.24-1.024Q-3890.563,1147.11-3890.748,1147.706Zm276.242-92.813c-.014-.033-.031-.066-.047-.1l.049.147A.448.448,0,0,0-3614.506,1054.893Zm-276.242,92.813.109-.168.24-1.024Q-3890.563,1147.11-3890.748,1147.706Z" transform="translate(-0.179 0)" fill="#f7ea84"/>
    <g id="Group_881" data-name="Group 881" transform="translate(-4112.016 730.23)">
      <path id="Path_1286" data-name="Path 1286" d="M-3822.822,1776.382v0c.1-.041.191-.084.287-.125Zm9.333-4.807a47.972,47.972,0,0,0-7.613,1c-23.354,3.267-38.254,10.883-36.771-19.448q.044-.928.111-1.9-.919,2.021-1.594,3.893c-9.355,25.849,14.889,30.385,36.533,21.269,4.049-1.984,8.669-3.711,9.552-4.442C-3813.022,1771.737-3813.065,1771.61-3813.489,1771.575Z" transform="translate(3912.743 -1543.747)" fill="#f98c90"/>
      <path id="Path_1287" data-name="Path 1287" d="M-3788.263,1870.491c-24.861,7.168-43.371,35.5-44.444,60.689-1.714,11.636-1.969,27.924,11.964,31.644-3.827-2.64-6.089-6.778-7.694-11.036a76.632,76.632,0,0,1,23.765-68.032l-.413.355c5.544-4.609,10.982-9.4,16.822-13.62Z" transform="translate(3890.562 -1638.591)" fill="#f98c90"/>
      <path id="Path_1288" data-name="Path 1288" d="M-3661.908,1990.231c-8.123-.768-17.431,8.281-16.807,14.382,16.572-30.147,50.042,2.439,37,26.56-12.573,19.887-35.668,3.115-37.981-15.173-1.057-9.021-1.354,4.39.057,7.637,27.456,59.24,71.824-24.783,17.73-33.405Z" transform="translate(3768.951 -1733.771)" fill="#f98c90"/>
      <path id="Path_1289" data-name="Path 1289" d="M-3670.274,1960.556c-9.8.087-20.918,10.371-20.56,18.405,14.878-29.224,50.284-14.756,50.835,14.731-1.86,36.812-43.342,32.821-51.915,1.07.006.022.014.045.02.068-4,17.465,29.194,41.867,47.017,19.54,16.956-19.484,1.374-56.045-25.4-53.814Z" transform="translate(3778.199 -1710.133)" fill="#f98c90"/>
      <path id="Path_1290" data-name="Path 1290" d="M-3640.644,2066.91c4.672,3.772,5.663,14.116-.428,16.966,9.381.367,9.346-16.281.428-16.966Zm.794,16.268-.047.028Z" transform="translate(3737.523 -1794.782)" fill="#f98c90"/>
      <path id="Path_1291" data-name="Path 1291" d="M-3600.535,2034.324c.1,10.129,10.475,13.034,15.922,4.536-7.288,4.174-11.613,2.264-15.922-4.536Z" transform="translate(3705.289 -1768.87)" fill="#f98c90"/>
      <path id="Path_1292" data-name="Path 1292" d="M-3523.883,2075.731c-6.171,4.588-5.658,12.87,1.135,16.538-3.436-5.1-3.334-10.954-1.135-16.538Z" transform="translate(3647.765 -1801.797)" fill="#f98c90"/>
      <path id="Path_1293" data-name="Path 1293" d="M-3586.917,2150.632c-3.017.651-5.277,3.057-7.133,5.365,4.589-1.825,9.747-4.352,13.685.151,4,5.514-.645-7.308-6.552-5.516Z" transform="translate(3700.132 -1861.22)" fill="#f98c90"/>
      <path id="Path_1294" data-name="Path 1294" d="M-3367.085,1657.056l-.383-.018c-76.156-3.619-153.9,2.281-225.042,32.089-6.889,2.333-14.021,4.97-17.177,5.741-1.976.479-2.4.229-.231-1.284,1.819-1.27,5.466-3.432,11.551-6.8,56.381-22.729,117.046-32.5,177.584-34.661,17.855.066,35.792.9,53.229,4.829Z" transform="translate(3713.9 -1464.943)" fill="#f98c90"/>
      <path id="Path_1295" data-name="Path 1295" d="M-2293.906,1720.417c-.922-.209-2.757-.838-5.712-1.917-34.511-15.176-70.856-24.014-107.172-33.57a.3.3,0,0,1,.041,0h.016c36.242,2.509,73.093,14.193,105.8,29.979q.617.3,1.229.6c.184.09.369.178.551.268,3.357,2.425,5.612,3.967,5.935,4.5C-2293.076,1720.511-2293.285,1720.558-2293.906,1720.417Z" transform="translate(2756.028 -1491.034)" fill="#f98c90"/>
      <path id="Path_1296" data-name="Path 1296" d="M-2006.76,2234.56c-2.292,18.828-6.1,8.3-27.634,13.843-16.511,4.225-33.264,10.738-45.878,22.076-.494.44-.981.893-1.462,1.352a61.066,61.066,0,0,0-10.855,13.745s0,0,0,0c-1.589,2.228-1.882,3.025-1.354,2.892a3.665,3.665,0,0,0,.975-.563c3.365-2.431,12.639-11.752,14.031-13.536,23.985-24.179,51.93-20.847,65.408-24.3a21.7,21.7,0,0,0,2.294-.715C-2005.929,2247.346-2003.856,2243.5-2006.76,2234.56Z" transform="translate(2507.448 -1928.097)" fill="#f98c90"/>
      <path id="Path_1297" data-name="Path 1297" d="M-2032.079,1963.325c-42.447,15.111-7.184,82.293,24.528,42.374,4.749-7.035,6.162-16.527,2.725-24.4,4.93,39.825-52.733,45.724-42.874,1.788,3.725-13.581,20.535-22.96,33.008-14.352,5.093,2.07,11.6,15.97,8.208,6.409-3.737-10-15.59-15.155-25.6-11.823Zm-7.868,47.627.114.073-.114-.073Z" transform="translate(2473.61 -1711.609)" fill="#f98c90"/>
      <path id="Path_1298" data-name="Path 1298" d="M-2046.542,1940.5c-36.534,13.062-23.311,75.483,16.8,57.066,8.235-4.187,13.6-13.036,14.6-22.1-5.043,15.671-24.292,29.649-39.7,18.524l.171.116c-33.889-26.25,18.138-79.258,38.745-35.03l-.019-.04.05.106-.011-.022c.1.222.208.445.314.667v0l.035.074-.01-.019c2.381-11.313-16.045-25.667-30.982-19.344Zm30.982,19.344-.025-.053Zm-.339-.72-.021-.044Z" transform="translate(2486.596 -1693.03)" fill="#f98c90"/>
      <path id="Path_1299" data-name="Path 1299" d="M-1985.942,2065.677c3.294,5.545,3.88,12.67-.9,17.551a9.5,9.5,0,0,0,.9-17.551Z" transform="translate(2422.086 -1793.802)" fill="#f98c90"/>
      <path id="Path_1300" data-name="Path 1300" d="M-1954.924,2024.135c-5.234,4.216-12.011,7.351-18.8,5.344,6.2,6.679,15.608,1.926,18.8-5.344Z" transform="translate(2411.657 -1760.768)" fill="#f98c90"/>
      <path id="Path_1301" data-name="Path 1301" d="M-1892.633,2051.423c-7.495,2.013-9.811,12.555-3.062,16.872-3.208-5.573-.626-12.223,3.062-16.872Z" transform="translate(2352.787 -1782.467)" fill="#f98c90"/>
      <path id="Path_1302" data-name="Path 1302" d="M-1972.236,2132.193c-4.017,1.5-6.805,5.128-9.534,8.256,6.437-3.108,13.643-8.59,20.877-4.4-2.148-3.945-7.244-5.2-11.343-3.855Z" transform="translate(2418.054 -1846.281)" fill="#f98c90"/>
      <path id="Path_1303" data-name="Path 1303" d="M-1860.225,1853.4c4.659,4.885,9.574,9.549,14.247,14.434l-.107-.116c16.778,16.953,19.912,40.969,24.87,63.142,2.777-29.385-11.8-63.882-39.009-77.46Zm33.473,51.7.032.141-.032-.141Z" transform="translate(2321.402 -1625.002)" fill="#f98c90"/>
      <path id="Path_1304" data-name="Path 1304" d="M-1872.91,1646.458a92.753,92.753,0,0,0,11.582,2.81c4.821.77,9.245,3.494,14.213,3.174,29.095-1.341,14.156-32.125,9.266-49.89-.172-.625-.332-1.231-.475-1.821-.012-.047-.022-.094-.035-.141C-1810.158,1636.82-1828.627,1676.261-1872.91,1646.458Z" transform="translate(2331.489 -1423.967)" fill="#f98c90"/>
      <path id="Path_1305" data-name="Path 1305" d="M-1720.354,1416.318l-.01.006q-.476.246-.954.487c-11.633,5.9-24.157,10.372-36.418,14.875-.258.041-.508.084-.75.133a10.837,10.837,0,0,0-3.738,1.339c-6.654,4.229,4.885,14.691,9.6,20.011q.27.307.51.59c.082.1.16.191.234.281-1.11-2.552-2.355-5.061-3.562-7.584q-.574-1.2-1.132-2.413c-1.782-.926-2.585-3.67-2.607-5.638a5.131,5.131,0,0,1,.149-1.372q.728-.341,1.483-.669c.434-.193.877-.381,1.323-.569,11.721-4.924,27.374-8.817,35.21-18.455.246-.3.483-.606.709-.917a.045.045,0,0,0,.012-.016c.047-.062.092-.125.137-.186Z" transform="translate(2245.077 -1277.357)" fill="#f98c90"/>
      <path id="Path_1306" data-name="Path 1306" d="M-3709.891,2347.9q-.891-.756-1.792-1.491a111.217,111.217,0,0,0-16.466-11.383c-.289-.16-.578-.319-.866-.475a70.287,70.287,0,0,0-38.022-8.78c-3.541.168-7.1.989-10.634.3-1.47-.256-1.886-.287-1.382.043l.006,0c.121.08.3.181.524.3.2.11.444.238.727.385,4.905,2.657,10.759,2.038,16.067,3.31,33.637.811,57.87,27.482,78.637,51.078,2.206,2.046,4.428,4.16,6.7,6.249l.332.3c8.837,8.115,18.4,15.828,30.366,17.974C-3669.747,2391.534-3688.161,2366.261-3709.891,2347.9Zm26.834,33.334c-.012-.014-.024-.027-.035-.041l-.039-.035C-3683.106,2381.185-3683.082,2381.209-3683.057,2381.236Z" transform="translate(3847.408 -2000.548)" fill="#f98c90"/>
      <path id="Path_1307" data-name="Path 1307" d="M-3529.879,2344.1c-3.141.464-6.588,3.317-3.826,6.39-.382-8.885,13.927.433,15.7,4.48,6.711,11.006-10.668,4.178.35,8.032,5.484.094,4.369-7.425,2.6-10.714-2.781-5.027-8.954-9.042-14.816-8.188Z" transform="translate(3652.948 -2015.114)" fill="#f98c90"/>
      <path id="Path_1308" data-name="Path 1308" d="M-2959.129,2725.945a81.171,81.171,0,0,1-15.477,4.186q-.387.067-.774.129c-20.153,3.307-41.464.412-61.742,1.423-16.974-1.229-35.042,1.008-52.135-1.022q-1.352-.16-2.693-.358a71.414,71.414,0,0,1-17.109-4.573C-3059.123,2727.669-3009.083,2728.8-2959.129,2725.945Z" transform="translate(3314.47 -2318.673)" fill="#f98c90"/>
      <path id="Path_1309" data-name="Path 1309" d="M-2307.788,2512.584c-5.352,4.78-11.381,8.817-16.208,14.16a248.84,248.84,0,0,1-34.051,28.14c-2.439,1.389-3.813,1.985-.039,1.071,11.8-4.266,22.557-11.786,31.845-20.825q.737-.712,1.458-1.442a135.7,135.7,0,0,0,16.683-20.577c.137-.2.273-.407.406-.612C-2307.725,2512.529-2307.757,2512.555-2307.788,2512.584Z" transform="translate(2719.159 -2149.114)" fill="#f98c90"/>
      <path id="Path_1310" data-name="Path 1310" d="M-2044.973,2323.541c-11.727,2.64-17.461,21.295-3.511,18.24l-.1.028c5.179-1.472-5.472.689-4.811-4.409,1.376-6.355,12.56-15.172,18.375-9.5,1.929,6.084,2.631-8.03-9.956-4.363Z" transform="translate(2477.607 -1998.363)" fill="#f98c90"/>
      <path id="Path_1311" data-name="Path 1311" d="M-2913.406,1935.036c-8.421.26-16.859,3.968-22.034,10.741,37.09-24.98,80.915,16.855,52,52.9-34.757,36.177-84.321-13.452-54.125-50.925-16.242,11.791-16.166,36.9-3.733,51.456,56.9,55.29,107.643-59.854,27.895-64.176Zm-32.706,32.234q-.026.138-.052.277C-2946.147,1967.454-2946.13,1967.362-2946.112,1967.27Zm4.953,26.844.09.134-.09-.134Zm33.365,16.786-.088.006Z" transform="translate(3188.17 -1689.917)" fill="#f98c90"/>
      <path id="Path_1312" data-name="Path 1312" d="M-2878.03,1981.253c-6.852,1-13.522,4.67-17.169,10.682,22.62-18.578,57.415,1.331,45.631,30.377-18.513,36.678-68.317,3.178-46.514-29.39-9.447,7.708-10.972,21.79-5.55,32.3,21.259,38.433,76.167,4.873,51.894-31.542l.072.1a30.6,30.6,0,0,0-28.364-12.532Z" transform="translate(3152.004 -1726.477)" fill="#f98c90"/>
      <path id="Path_1313" data-name="Path 1313" d="M-3740.5,2446.74c-27.866,25.94-101.311-109.814-70.928-124.87-.166.172-.328.352-.483.539a11.963,11.963,0,0,0-1.917,3.33c-10.845,27.661,43.087,129.764,71.925,121.5a11.783,11.783,0,0,0,1.37-.484Z" transform="translate(3878.738 -1997.525)" fill="#f98c90"/>
      <path id="Path_1314" data-name="Path 1314" d="M-3404.656,2624.554c-6.816,11.582-12.136,23.864-18.233,35.808l-.012.025s0,.006-.006.01c-.014.029-.031.059-.047.088l-.037.068c-.24.442-.477.887-.717,1.329l-.037.07-.043.076s0,0,0,0,0,0,0,0c-4.463,7.465-7.823,15.557-12.309,22.96-.186.316-.49.758-.77,1.174-.156.227-.3.447-.418.631-.379.606-.424.844.7-.207,10.431-8.221,30.633-47.2,32.261-61.732.039-.352.067-.688.084-1.01C-3404.379,2624.084-3404.518,2624.319-3404.656,2624.554Z" transform="translate(3575.666 -2237.658)" fill="#f98c90"/>
      <path id="Path_1315" data-name="Path 1315" d="M-3164.628,2769.492c-11.138,15.989-47.8,55.375-29.508,73.425l-3.742-9.636,6.546-21.216,26.3-41.135q.185-.6.348-1.192c.025-.09.047-.178.072-.268A.094.094,0,0,0-3164.628,2769.492Z" transform="translate(3386.122 -2353.455)" fill="#f98c90"/>
      <path id="Path_1316" data-name="Path 1316" d="M-3160.41,3135.462l0,0-.012,0Z" transform="translate(3355.311 -2644.488)" fill="#f98c90"/>
      <path id="Path_1317" data-name="Path 1317" d="M-2980.074,3083.4c-.064.385-.144.768-.236,1.145-4.872,19.872-48.963,28.292-92.535,28.234h-.012c-39.351-.053-78.276-7.023-87.5-18.713l1.073.4.416.151c50.89,18.59,137.672,26.512,178.43-10.879Z" transform="translate(3355.264 -2603.09)" fill="#f98c90"/>
      <path id="Path_1318" data-name="Path 1318" d="M-2744.653,3226.668c-3.419,13.953-5.275,29.8,2.223,42.755-1.341-14.241-.765-28.527-2.223-42.755Z" transform="translate(3027.068 -2717.016)" fill="#f98c90"/>
      <path id="Path_1319" data-name="Path 1319" d="M-2448.1,2754.833l-.125-.113c.119.266.24.532.362.8,10.361,22.584,29.535,41.862,33.707,66.857.047.268.09.536.131.807,0,.006,0,.01,0,.017C-2407.931,2808.321-2436.427,2765.326-2448.1,2754.833Z" transform="translate(2788.973 -2341.726)" fill="#f98c90"/>
      <path id="Path_1320" data-name="Path 1320" d="M-2146.891,2699.854c-22.058,4.055-36.449-43.7-41.819-60.344.035.047.068.094.1.141.109.149.217.3.322.452,11.006,15.545,16.261,34.549,27.421,49.981-.108-.145-.217-.291-.327-.436,3.068,4.581,7.08,8.635,12.5,9.9.334.077.674.145,1.02.2C-2147.415,2699.788-2147.155,2699.825-2146.891,2699.854Z" transform="translate(2582.612 -2250.111)" fill="#f98c90"/>
      <path id="Path_1321" data-name="Path 1321" d="M-1923.929,2321.686a.452.452,0,0,1,0,.052c0,.319,0,.639,0,.96-.153,40.109-26.86,96.512-60.122,120.972q-.873.642-1.751,1.253c.541-.115,1.087-.252,1.636-.416C-1952.837,2435.218-1910.631,2348.026-1923.929,2321.686Zm-.01-.164c-.033-.043-.068-.086-.1-.129l-.121-.154q.1.172.184.35c.016.031.033.063.047.1v-.151Z" transform="translate(2421.259 -1997.024)" fill="#f98c90"/>
      <path id="Path_1322" data-name="Path 1322" d="M-3587.237,1416.414l-.055-.088c-.023-.033-.043-.063-.063-.1.018.035.037.068.053.1l.053.1a277.132,277.132,0,0,1,14.1,31.386c0,.008.006.016.01.025,34.594,91.828,19.678,198.288-38.589,274.889l-.066.084a256.029,256.029,0,0,1-76.375,67.231c-66.435,41.168-137.156,49.049-201.28,33.5l-.053-.012c-152.927-37.111-268.321-207.467-198.548-377.334-15.649,34.817-23.176,69.773-23.9,103.668,0,0,0,.006,0,.008a258.257,258.257,0,0,0,13.91,88.994c.006.021.013.043.021.063,18.293,53.651,53.376,100.846,98.372,135.347l.037.026c80.529,61.728,192.8,82.8,297.415,27.5C-3566.094,1735.971-3503.559,1545.069-3587.237,1416.414Z" transform="translate(4112.016 -1277.365)" fill="#f98c90"/>
      <path id="Path_1323" data-name="Path 1323" d="M-3144.279,738.192c-31.472.459-74.624,5.472-102.334,20.638-7.491,4.126.347,1.307,4.106.759,55.615-20.451,114.779-19.463,172.108-9.424-22.87-10.715-49.038-11.358-73.879-11.974Z" transform="translate(3426.339 -738.192)" fill="#f98c90"/>
      <path id="Path_1324" data-name="Path 1324" d="M-3785.133,836.26c-45.9,11.979-116,71.182-133.323,115.588,21.687-26.66,41.1-55.586,69.214-76.232l-.35.276c19.519-16.316,42.82-26.68,64.46-39.632Z" transform="translate(3958.099 -816.175)" fill="#f98c90"/>
      <path id="Path_1325" data-name="Path 1325" d="M-2299.548,804.5c-.512,3.107,9.937,5.954,12.646,7.689a267.592,267.592,0,0,1,109.213,80.179l-.349-.443c2.477,3.1,25.659,32.939,19.153,20.835-23.319-44.614-91.838-97.449-140.758-109.242C-2299.6,803.85-2299.576,804.186-2299.548,804.5Z" transform="translate(2670.825 -790.137)" fill="#f98c90"/>
      <path id="Path_1326" data-name="Path 1326" d="M-3010.62,900.15q-.983-.439-1.976-.854-2.755-1.155-5.583-2.126l.178.072c-23.167-6.949-47.549-9.624-71.694-9.374-29.084,1.516-65.026,4.987-89.8,21.158q4.577-1.468,9.182-2.828,2.982-.879,5.976-1.71c49.088-13.617,100.227-17.146,149.645-1.95q1.626.5,3.246,1.026A4.442,4.442,0,0,1-3010.62,900.15Z" transform="translate(3370.483 -857.201)" fill="#f98c90"/>
      <path id="Path_1327" data-name="Path 1327" d="M-3665.947,994c-.488.231-.977.465-1.464.7-48.514,23.26-96.254,57.994-123.493,107.53-1.128,1.487-1.767,3.093-3.021,3.431a2.925,2.925,0,0,1-2.155-.428l.32-.688c21.183-45.293,73.583-92.654,122.479-108.413.148-.047.293-.094.438-.139Q-3669.38,994.888-3665.947,994Z" transform="translate(3860.785 -941.609)" fill="#f98c90"/>
      <path id="Path_1328" data-name="Path 1328" d="M-2241.965,1094.822a4.523,4.523,0,0,0-1.282.86,4.421,4.421,0,0,0-1.331,2.357c-.129-.231-.258-.463-.389-.692q-.71-1.272-1.44-2.529-.789-1.367-1.6-2.718c-27.868-46.515-71.567-78.739-120.056-101.534q-3.521-1.656-7.076-3.246,2,.409,3.994.891c50.157,12.09,101.077,58.314,126.876,102.55.164.274.324.551.481.827q.6,1.032,1.174,2.064.3.544.6,1.083C-2242,1094.765-2241.982,1094.793-2241.965,1094.822Z" transform="translate(2730.86 -936.297)" fill="#f98c90"/>
      <path id="Path_1329" data-name="Path 1329" d="M-3962.17,1481.1c0-.008.01-.014.014-.022.039-.049.078-.1.119-.15C-3962.08,1480.987-3962.125,1481.045-3962.17,1481.1Z" transform="translate(3992.859 -1328.814)" fill="#f98c90"/>
      <path id="Path_1330" data-name="Path 1330" d="M-3952.083,1462.47l-.15-.016c-.062-.006-.121-.012-.182-.021-10.449-1.2-18.961-7.084-28.343-11.213-6.607-2.085-7.934-9.523-11.85-3.115a40.08,40.08,0,0,0-7.688,13.849q-.071-.507-.111-1.012c-.615-7.654,3.713-14.551,8.438-20.263a3.3,3.3,0,0,1,2.073-1.2c2.791-.3,5.433,4.246,7.871,5.536,8.3,3.92,15.923,8.962,23.739,13.761q.916.562,1.835,1.116,2,1.213,4.033,2.386c.055.033.11.066.167.1S-3952.139,1462.437-3952.083,1462.47Z" transform="translate(4023.311 -1295.839)" fill="#f98c90"/>
      <path id="Path_1331" data-name="Path 1331" d="M-3854.954,1591.912c-.524.768-1.022,1.438-1.483,1.991a9.075,9.075,0,0,1-1.313,1.335l.2-.465c4.426-12.372,7.272-25.455,14.314-36.8,1.477-2.906,4.342-5.446,4.312-8.847,0-.053,0-.1,0-.158-.006-.16-.018-.322-.037-.483a3.482,3.482,0,0,1,.205.579c.006.027.012.055.018.082C-3837.073,1556.119-3848.251,1582.088-3854.954,1591.912Z" transform="translate(3909.825 -1382.537)" fill="#f98c90"/>
      <path id="Path_1332" data-name="Path 1332" d="M-3263.177,845.068c-1.389,12.031,4.979,26.03,14.457,33.4-5.979-10.489-9.866-22.24-14.457-33.4Z" transform="translate(3437.174 -823.179)" fill="#f98c90"/>
      <path id="Path_1333" data-name="Path 1333" d="M-2356.057,807.7a18.143,18.143,0,0,0-1.692-1.52s0,0,0,0q-.371-.3-.758-.559a9.083,9.083,0,0,0-5.771-1.8c-.176.01-.354.029-.534.053l-.127.018a3.284,3.284,0,0,0-.369.1c-5.47,1.923-7.727,18.795-10.662,24.3-.934,1.546-1.842,2.925-2.663,4.162-.8,1.206-1.517,2.277-2.1,3.242-2.89,4.786-2.423,6.931,8.1,9.675q-.578-.387-1.092-.743a34.194,34.194,0,0,1-3.083-2.355c-5.389-4.77,2.622-4.059,5.319-12.878.905-3.35,2.648-6.414,3.339-9.82,1.3-2.7,1.661-10.633,4.141-12.7a2.029,2.029,0,0,1,1.081-.483C-2360.489,805.747-2358.306,806.922-2356.057,807.7Zm-6.759-1.311c-.039,0-.076.006-.113.01l-.037.01C-2362.917,806.4-2362.867,806.394-2362.816,806.386Z" transform="translate(2736.523 -790.366)" fill="#f98c90"/>
      <path id="Path_1334" data-name="Path 1334" d="M-1741.868,1495.906c-12.052-1.275,2.734,21.328.235,13.276-.981-3.451-1.253-7.039-2.193-10.5,2.077-1.769,8.232-2.69,1.958-2.776Zm-1.932,2.588-.018.036Z" transform="translate(2231.096 -1340.681)" fill="#f98c90"/>
      <path id="Path_1335" data-name="Path 1335" d="M-1613.032,1336.877c3.195,5.933,5.266,12.642,10.271,17.4-1.13-6.024-3.845-11.886-8.558-15.929l.088.079c-.587-.525-1.189-1.067-1.8-1.547Z" transform="translate(2124.835 -1214.264)" fill="#f98c90"/>
      <path id="Path_1336" data-name="Path 1336" d="M-3749.7,845.178c-8.03,4.947-14.064,17.386-19.2,25.369.841-3.252,3.055-9.318-2.031-9.9-5.211,4.249-8.123,11.091-11.717,16.742-1.123-18.5-13.652,6.523-16.574,11.726-2.57-24.576-19.843,23.817-22.074,29.3.335-3.1,2.051-9.666-2.129-10.511-2.7,1.159-3.414,4.586-4.968,6.858-2.467,4.776-4.793,9.638-6.864,14.6-.627-27.907-14.062,7.678-16.739,15.649.863-4.9,1.858-9.77,2.549-14.7-5.013,8.4-9.36,17.844-8.512,27.872.709,2.779-1.122,8.01,2.425,8.969,3.587-.036,2.615-5.159,3.775-7.54a222.029,222.029,0,0,1,12.557-35.236c2.28,9.678-9.313,43.866-3.978,46.23,3.085-.033,2.1-4.377,2.795-6.432a157.836,157.836,0,0,1,16.092-50.534c-1.271,8.371-2.662,16.742-3.683,25.155.2,2.976-2.432,7.993.37,9.968,3.531.693,3.295-4.875,4.2-7.155a195.547,195.547,0,0,1,20.608-56.268c2.091,15.836-11.33,30.149-11.083,45.892.937,2.786,3.679.98,3.66-1.332l0,.013c5.222-19.537,11.642-39.727,24.057-55.909,2.254,12.05-11.327,26.824-12.11,38.478,3.213,4.86,5.87-9.256,7.474-11.185,5.954-12.609,11.841-25.48,20.011-36.83a29.57,29.57,0,0,1-1.091,4.612l.02-.082c-.191,5.439-13.031,28.449-9.429,29.371,3.377.558,7.255-12.775,9.621-15.709,6.111-11.911,12.3-24.21,21.243-34.235.592,12.141-9.286,21.941-13.776,32.646-3.8,6.972,1.478,7.276,3.729.756l-.069.128c3.738-7.027,7.662-13.937,11.96-20.643-.627,3.97-10.455,20.1-7.466,21.341,3.858,2.537,11.013-13.672,14.317-16.326-.011,3.528-3.09,7.352-1.7,10.665,1.236,1.491,3.577.729,4.468-.761a32.146,32.146,0,0,1-2.37,4.956l.018-.032c-1.674,3.793,13.373-13.052,3.6-12.531,2.061-8.679-3.778-10.963-8.422-3.308.784-2.258,1.995-4.514,1.867-6.965-.091-2.083-1.957-5.257-4.04-2.875.87-2.4,1.808-9.677-1.381-10.3Zm-.689.328-.089.056Zm-11.374,38.588-.073.136Zm-32.233,2.164-.134.247Z" transform="translate(3910.077 -823.267)" fill="#f98c90"/>
      <path id="Path_1337" data-name="Path 1337" d="M-2271.8,856.971c-2.3.1-2.19,2.744-2.171,4.444-5.1-9.987,5.457,27.712,10.079,24.535,3.421-1.328.564-4.827-.349-6.969-2.066-4.792-3.282-9.886-4.689-14.9,5.51,7.813,10.845,15.745,15.787,23.931,2.133,2.278,4.648,11.169,7.881,10.405,3.176-1.381-.063-5.02-.482-7.259-1.563-4.683-3.633-9.286-4.5-14.156,8.851,5.993,13.389,17.09,19.764,25.514,2.083,2.051,4.36,9.828,7.364,9.131,2.949-1.435.254-5.565.071-7.98-1.507-5.842-2.769-11.745-3.826-17.685,7.473,3.612,17.45,52.64,22.012,40.636,1.059-3.937-8.195-34.849-1.756-29.907,11.309,15.1,13.146,35.068,21.571,51.424,5.269.881.742-5.761.579-8.25a65.421,65.421,0,0,1-2.144-19.057c5.434-5.762,17.2,33.988,19.405,39.071,11.324,13.179.038-28.089,1.221-31.856,8.256,6.284,10.47,36.06,16.342,36.314,3.106-1.437-.189-5.139-.125-7.534-.173-1.73-1.739-6.692,1.442-4.248,3,2.038,6.033,4.023,9.034,6.057l-.037-.025c1.959,1.434-2.39-3.408-3.189-4.357-2.617-2.686-5.771-7.89-10.077-5.295-7.018-29.887-23.883-36.971-14.223.711-4.035-11.975-7.174-27.048-18.37-34.36-4.466-.918-5.783,3.731-5.327,7.266-1.935-15.141-26.55-53.354-21.106-14.479-3.339-16.162-26.55-49.546-16.879-9.8-3.366-5.068-23.5-39.479-25.668-19.839-4.135-5.3-11.21-20.859-17.631-21.493Zm49.931,51.959c.008.046.016.092.023.138l-.023-.138Zm35.394,10.174,0,0h0Zm0,0h0l-.031.045Zm35.994,33.029-.026.075A.288.288,0,0,1-2150.489,952.138Z" transform="translate(2651.495 -832.644)" fill="#f98c90"/>
    </g>
  </g>
</svg>
